<svg width="18" height="19" viewBox="0 0 18 19" fill="none" xmlns="http://www.w3.org/2000/svg">
<path opacity="0.9" d="M17.1 0.0908203C16.8613 0.0908203 16.6324 0.185641 16.4636 0.354424C16.2948 0.523207 16.2 0.752125 16.2 0.99082V3.69082H12.6V2.79082C12.6 2.55213 12.5052 2.32321 12.3364 2.15442C12.1676 1.98564 11.9387 1.89082 11.7 1.89082C11.4613 1.89082 11.2324 1.98564 11.0636 2.15442C10.8948 2.32321 10.8 2.55213 10.8 2.79082V3.69082H9V2.79082C9 2.55213 8.90518 2.32321 8.7364 2.15442C8.56761 1.98564 8.33869 1.89082 8.1 1.89082C7.8613 1.89082 7.63239 1.98564 7.4636 2.15442C7.29482 2.32321 7.2 2.55213 7.2 2.79082V3.69082H5.4V2.79082C5.4 2.55213 5.30518 2.32321 5.1364 2.15442C4.96761 1.98564 4.73869 1.89082 4.5 1.89082C4.26131 1.89082 4.03239 1.98564 3.8636 2.15442C3.69482 2.32321 3.6 2.55213 3.6 2.79082V3.69082H1.8V0.99082C1.8 0.752125 1.70518 0.523207 1.5364 0.354424C1.36761 0.185641 1.13869 0.0908203 0.9 0.0908203C0.661305 0.0908203 0.432387 0.185641 0.263604 0.354424C0.0948211 0.523207 0 0.752125 0 0.99082V15.3908C0 16.1069 0.284464 16.7937 0.790812 17.3C1.29716 17.8064 1.98392 18.0908 2.7 18.0908H15.3C16.0161 18.0908 16.7028 17.8064 17.2092 17.3C17.7155 16.7937 18 16.1069 18 15.3908V0.99082C18 0.752125 17.9052 0.523207 17.7364 0.354424C17.5676 0.185641 17.3387 0.0908203 17.1 0.0908203ZM16.2 15.3908C16.2 15.6295 16.1052 15.8584 15.9364 16.0272C15.7676 16.196 15.5387 16.2908 15.3 16.2908H2.7C2.46131 16.2908 2.23239 16.196 2.0636 16.0272C1.89482 15.8584 1.8 15.6295 1.8 15.3908V12.6908H3.6V13.5908C3.6 13.8295 3.69482 14.0584 3.8636 14.2272C4.03239 14.396 4.26131 14.4908 4.5 14.4908C4.73869 14.4908 4.96761 14.396 5.1364 14.2272C5.30518 14.0584 5.4 13.8295 5.4 13.5908V12.6908H7.2V13.5908C7.2 13.8295 7.29482 14.0584 7.4636 14.2272C7.63239 14.396 7.8613 14.4908 8.1 14.4908C8.33869 14.4908 8.56761 14.396 8.7364 14.2272C8.90518 14.0584 9 13.8295 9 13.5908V12.6908H12.6V13.5908C12.6 13.8295 12.6948 14.0584 12.8636 14.2272C13.0324 14.396 13.2613 14.4908 13.5 14.4908C13.7387 14.4908 13.9676 14.396 14.1364 14.2272C14.3052 14.0584 14.4 13.8295 14.4 13.5908V12.6908H16.2V15.3908ZM16.2 10.8908H14.4V9.99082C14.4 9.75213 14.3052 9.52321 14.1364 9.35442C13.9676 9.18564 13.7387 9.09082 13.5 9.09082C13.2613 9.09082 13.0324 9.18564 12.8636 9.35442C12.6948 9.52321 12.6 9.75213 12.6 9.99082V10.8908H9V9.99082C9 9.75213 8.90518 9.52321 8.7364 9.35442C8.56761 9.18564 8.33869 9.09082 8.1 9.09082C7.8613 9.09082 7.63239 9.18564 7.4636 9.35442C7.29482 9.52321 7.2 9.75213 7.2 9.99082V10.8908H5.4V9.99082C5.4 9.75213 5.30518 9.52321 5.1364 9.35442C4.96761 9.18564 4.73869 9.09082 4.5 9.09082C4.26131 9.09082 4.03239 9.18564 3.8636 9.35442C3.69482 9.52321 3.6 9.75213 3.6 9.99082V10.8908H1.8V5.49082H3.6V6.39082C3.6 6.62951 3.69482 6.85843 3.8636 7.02722C4.03239 7.196 4.26131 7.29082 4.5 7.29082C4.73869 7.29082 4.96761 7.196 5.1364 7.02722C5.30518 6.85843 5.4 6.62951 5.4 6.39082V5.49082H7.2V6.39082C7.2 6.62951 7.29482 6.85843 7.4636 7.02722C7.63239 7.196 7.8613 7.29082 8.1 7.29082C8.33869 7.29082 8.56761 7.196 8.7364 7.02722C8.90518 6.85843 9 6.62951 9 6.39082V5.49082H10.8V6.39082C10.8 6.62951 10.8948 6.85843 11.0636 7.02722C11.2324 7.196 11.4613 7.29082 11.7 7.29082C11.9387 7.29082 12.1676 7.196 12.3364 7.02722C12.5052 6.85843 12.6 6.62951 12.6 6.39082V5.49082H16.2V10.8908Z" fill="#01052A"/>
</svg>
