<svg width="24" height="24" viewBox="0 0 24 24" fill="none" xmlns="http://www.w3.org/2000/svg">
<path d="M12 0C5.376 0 0 5.376 0 12C0 18.624 5.376 24 12 24C18.624 24 24 18.624 24 12C24 5.376 18.624 0 12 0ZM16.332 7.608C17.616 7.608 18.648 8.64 18.648 9.924C18.648 11.208 17.616 12.24 16.332 12.24C15.048 12.24 14.016 11.208 14.016 9.924C14.004 8.64 15.048 7.608 16.332 7.608ZM9.132 5.712C10.692 5.712 11.964 6.984 11.964 8.544C11.964 10.104 10.692 11.376 9.132 11.376C7.572 11.376 6.3 10.104 6.3 8.544C6.3 6.972 7.56 5.712 9.132 5.712ZM9.132 16.668V21.168C6.252 20.268 3.972 18.048 2.964 15.216C4.224 13.872 7.368 13.188 9.132 13.188C9.768 13.188 10.572 13.284 11.412 13.452C9.444 14.496 9.132 15.876 9.132 16.668ZM12 21.6C11.676 21.6 11.364 21.588 11.052 21.552V16.668C11.052 14.964 14.58 14.112 16.332 14.112C17.616 14.112 19.836 14.58 20.94 15.492C19.536 19.056 16.068 21.6 12 21.6Z" fill="#01052A"/>
</svg>
