<svg width="18" height="16" viewBox="0 0 18 16" fill="none" xmlns="http://www.w3.org/2000/svg">
<path d="M8.99399 0.59082C8.66849 0.59082 8.34149 0.655108 8.03399 0.782935L1.33425 3.54429C0.956999 3.69978 0.966749 4.22305 1.34325 4.37853L8.07974 7.03823C8.66997 7.27638 9.33 7.27638 9.92024 7.03823L16.6567 4.37853C17.034 4.23202 17.034 3.69978 16.6657 3.54429L9.94798 0.782935C9.64588 0.656594 9.32161 0.591293 8.99399 0.59082ZM17.55 5.14325C17.4928 5.14383 17.4363 5.15524 17.3835 5.17689L9.87449 8.07505C9.79035 8.10919 9.71832 8.16751 9.66757 8.24259C9.61681 8.31768 9.58963 8.40612 9.58949 8.49665V15.1466C9.59019 15.2194 9.60867 15.291 9.64332 15.3551C9.67798 15.4192 9.72776 15.4739 9.78838 15.5145C9.849 15.5551 9.91863 15.5804 9.99126 15.5882C10.0639 15.596 10.1373 15.5861 10.2052 15.5593L17.715 12.6514C17.7994 12.6205 17.8721 12.5643 17.9231 12.4906C17.9741 12.4168 18.001 12.3291 18 12.2395V5.58953C17.9992 5.47109 17.9514 5.35778 17.8671 5.27431C17.7828 5.19084 17.6688 5.144 17.55 5.144V5.14325ZM0.506999 5.17241C0.440388 5.16987 0.373976 5.18119 0.311994 5.20564C0.250013 5.23009 0.193822 5.26714 0.147 5.31444C0.0644999 5.39741 0 5.49758 0 5.61718V11.8628C0 12.1932 0.386249 12.4137 0.680999 12.2664L5.38349 10.0194L5.61374 9.90948L7.84049 8.83603C8.18999 8.67158 8.16299 8.15728 7.79474 8.01973L0.662249 5.20455C0.612863 5.1845 0.560296 5.17337 0.506999 5.17166V5.17241Z" fill="#01052A"/>
</svg>
