<svg width="20" height="20" viewBox="0 0 20 20" fill="none" xmlns="http://www.w3.org/2000/svg">
<path d="M2.8 4.6C3.27739 4.6 3.73523 4.41036 4.07279 4.07279C4.41036 3.73523 4.6 3.27739 4.6 2.8C4.6 2.32261 4.41036 1.86477 4.07279 1.52721C3.73523 1.18964 3.27739 1 2.8 1C2.32261 1 1.86477 1.18964 1.52721 1.52721C1.18964 1.86477 1 2.32261 1 2.8C1 3.27739 1.18964 3.73523 1.52721 4.07279C1.86477 4.41036 2.32261 4.6 2.8 4.6ZM3.7 18.1C4.41608 18.1 5.10284 17.8155 5.60919 17.3092C6.11554 16.8028 6.4 16.1161 6.4 15.4C6.4 14.6839 6.11554 13.9972 5.60919 13.4908C5.10284 12.9845 4.41608 12.7 3.7 12.7C2.98392 12.7 2.29716 12.9845 1.79081 13.4908C1.28446 13.9972 1 14.6839 1 15.4C1 16.1161 1.28446 16.8028 1.79081 17.3092C2.29716 17.8155 2.98392 18.1 3.7 18.1ZM16.3 19C17.0161 19 17.7028 18.7155 18.2092 18.2092C18.7155 17.7028 19 17.0161 19 16.3C19 15.5839 18.7155 14.8972 18.2092 14.3908C17.7028 13.8845 17.0161 13.6 16.3 13.6C15.5839 13.6 14.8972 13.8845 14.3908 14.3908C13.8845 14.8972 13.6 15.5839 13.6 16.3C13.6 17.0161 13.8845 17.7028 14.3908 18.2092C14.8972 18.7155 15.5839 19 16.3 19ZM9.1 11.8C10.0548 11.8 10.9705 11.4207 11.6456 10.7456C12.3207 10.0705 12.7 9.15478 12.7 8.2C12.7 7.24522 12.3207 6.32955 11.6456 5.65442C10.9705 4.97928 10.0548 4.6 9.1 4.6C8.14522 4.6 7.22955 4.97928 6.55442 5.65442C5.87928 6.32955 5.5 7.24522 5.5 8.2C5.5 9.15478 5.87928 10.0705 6.55442 10.7456C7.22955 11.4207 8.14522 11.8 9.1 11.8ZM14.5 4.6C14.9774 4.6 15.4352 4.41036 15.7728 4.07279C16.1104 3.73523 16.3 3.27739 16.3 2.8C16.3 2.32261 16.1104 1.86477 15.7728 1.52721C15.4352 1.18964 14.9774 1 14.5 1C14.0226 1 13.5648 1.18964 13.2272 1.52721C12.8896 1.86477 12.7 2.32261 12.7 2.8C12.7 3.27739 12.8896 3.73523 13.2272 4.07279C13.5648 4.41036 14.0226 4.6 14.5 4.6Z" stroke="#01052A" stroke-width="1.5" stroke-linecap="round" stroke-linejoin="round"/>
<path d="M4.15039 4.1499L5.95039 5.9499M12.7004 4.5999L11.8004 5.4999M14.5004 14.2749L11.8004 10.8999M5.50039 13.1499L7.30039 11.3499" stroke="#01052A" stroke-width="1.5" stroke-linecap="round" stroke-linejoin="round"/>
</svg>
