<svg width="16" height="18" viewBox="0 0 16 18" fill="none" xmlns="http://www.w3.org/2000/svg">
<path d="M12.6355 17.2778C11.6556 18.2277 10.5857 18.0777 9.55587 17.6278C8.46601 17.1678 7.46613 17.1478 6.31628 17.6278C4.87646 18.2477 4.11656 18.0677 3.25667 17.2778C-1.62272 12.2485 -0.902808 4.58942 4.63649 4.30946C5.98632 4.37945 6.9262 5.04936 7.7161 5.10935C8.89595 4.86938 10.0258 4.17947 11.2857 4.26946C12.7955 4.38945 13.9353 4.98937 14.6852 6.06923C11.5656 7.939 12.3055 12.0485 15.1652 13.1983C14.5952 14.6981 13.8553 16.188 12.6255 17.2878L12.6355 17.2778ZM7.61612 4.24946C7.46614 2.01974 9.27591 0.179977 11.3556 0C11.6456 2.57967 9.01594 4.49943 7.61612 4.24946Z" fill="#01052A"/>
</svg>
