<svg width="18" height="18" viewBox="0 0 18 18" fill="none" xmlns="http://www.w3.org/2000/svg">
<path d="M9.07592 0.617676C8.57012 0.617676 8.06928 0.717299 7.60199 0.910858C7.1347 1.10442 6.7101 1.38812 6.35245 1.74577C5.9948 2.10342 5.7111 2.52802 5.51754 2.99531C5.32398 3.4626 5.22436 3.96344 5.22436 4.46924C5.22436 4.97503 5.32398 5.47587 5.51754 5.94316C5.7111 6.41046 5.9948 6.83505 6.35245 7.1927C6.7101 7.55035 7.1347 7.83406 7.60199 8.02761C8.06928 8.22117 8.57012 8.3208 9.07592 8.3208C10.0974 8.3208 11.0771 7.91501 11.7994 7.1927C12.5217 6.47039 12.9275 5.49073 12.9275 4.46924C12.9275 3.44774 12.5217 2.46808 11.7994 1.74577C11.0771 1.02346 10.0974 0.617676 9.07592 0.617676ZM3.9405 9.86142C3.42736 9.84957 2.91702 9.9404 2.43948 10.1286C1.96195 10.3168 1.52684 10.5985 1.15973 10.9572C0.792615 11.316 0.50091 11.7444 0.301752 12.2175C0.102593 12.6906 0 13.1987 0 13.712C0 14.2252 0.102593 14.7333 0.301752 15.2064C0.50091 15.6795 0.792615 16.108 1.15973 16.4667C1.52684 16.8254 1.96195 17.1071 2.43948 17.2953C2.91702 17.4835 3.42736 17.5743 3.9405 17.5625C4.94633 17.5393 5.90314 17.1234 6.60629 16.4038C7.30945 15.6842 7.70312 14.7181 7.70312 13.712C7.70312 12.7059 7.30945 11.7397 6.60629 11.0201C5.90314 10.3005 4.94633 9.88466 3.9405 9.86142ZM14.2113 9.86142C13.7003 9.85308 13.1927 9.94652 12.7182 10.1363C12.2437 10.3261 11.8116 10.6084 11.4473 10.9669C11.083 11.3253 10.7936 11.7526 10.5961 12.224C10.3986 12.6954 10.2969 13.2014 10.2969 13.7125C10.2969 14.2236 10.3986 14.7295 10.5961 15.2009C10.7936 15.6723 11.083 16.0996 11.4473 16.4581C11.8116 16.8165 12.2437 17.0988 12.7182 17.2886C13.1927 17.4784 13.7003 17.5719 14.2113 17.5635C15.2218 17.547 16.1853 17.134 16.894 16.4136C17.6028 15.6932 18 14.7231 18 13.7125C18 12.7019 17.6028 11.7317 16.894 11.0113C16.1853 10.2909 15.2218 9.87792 14.2113 9.86142Z" fill="#01052A"/>
</svg>
