<svg width="18" height="18" viewBox="0 0 18 18" fill="none" xmlns="http://www.w3.org/2000/svg">
<path d="M5.34006 8.31469C5.25646 8.20789 5.13456 8.13783 5.0002 8.11935C4.86583 8.10088 4.72955 8.13544 4.62023 8.21571C4.55725 8.2697 4.50326 8.33269 4.46727 8.40467L0.0583312 17.2315C-0.0766362 17.4925 0.0313377 17.8074 0.292275 17.9424C0.364257 17.9964 0.454236 17.9964 0.535216 17.9964H6.67173C6.86969 17.9964 7.05864 17.8884 7.14862 17.7084C8.4713 14.9641 7.6525 10.7981 5.34006 8.31469ZM8.57927 0.279629C7.48193 1.97411 6.84217 3.92393 6.72233 5.93915C6.60249 7.95436 7.00665 9.96626 7.89544 11.7789L10.8557 17.7084C10.9547 17.8884 11.1347 17.9964 11.3326 17.9964H17.4691C17.6099 17.9964 17.745 17.9404 17.8445 17.8409C17.9441 17.7413 18 17.6063 18 17.4655C18 17.3845 18 17.3035 17.946 17.2315C17.946 17.2315 9.68601 0.693529 9.45206 0.279629C9.42617 0.220702 9.38839 0.167753 9.34109 0.124092C9.2938 0.0804318 9.238 0.0469996 9.17719 0.0258865C9.11639 0.00477337 9.05188 -0.00356652 8.9877 0.0013884C8.92353 0.00634332 8.86106 0.0244863 8.80422 0.054683C8.70524 0.0996722 8.62426 0.180653 8.57927 0.279629Z" fill="#01052A"/>
</svg>
