<svg width="18" height="18" viewBox="0 0 18 18" fill="none" xmlns="http://www.w3.org/2000/svg">
<path d="M8.96875 0C8.98938 0 9.01 0 9.03125 0C9.04094 0.0195823 9.05063 0.0391647 9.06061 0.0593404C9.2681 0.478523 9.47686 0.897125 9.6875 1.31494C9.87429 1.68547 10.0595 2.05663 10.2438 2.42829C10.3478 2.63807 10.4521 2.84769 10.5566 3.05722C10.5656 3.07521 10.5746 3.0932 10.5838 3.11173C10.7435 3.43165 10.9043 3.75107 11.0652 4.07043C11.2224 4.38243 11.3783 4.69498 11.5333 5.00795C11.6669 5.27745 11.802 5.54625 11.9375 5.81493C12.1243 6.18547 12.3095 6.55663 12.4938 6.92829C12.5978 7.13807 12.7021 7.34769 12.8066 7.55722C12.8156 7.57521 12.8246 7.5932 12.8338 7.61173C12.9935 7.93161 13.1542 8.25099 13.3152 8.57031C13.4906 8.91851 13.6644 9.26738 13.8375 9.6166C13.9415 9.82638 14.0459 10.036 14.1504 10.2455C14.1594 10.2635 14.1683 10.2815 14.1776 10.3C14.3372 10.62 14.498 10.9394 14.659 11.2587C14.8162 11.5707 14.9721 11.8833 15.1271 12.1963C15.2713 12.4872 15.4173 12.7773 15.5636 13.0673C15.7029 13.3438 15.8413 13.6207 15.9785 13.8981C16.1441 14.2328 16.3129 14.566 16.4824 14.8989C16.7125 15.351 16.9405 15.804 17.1662 16.258C17.2303 16.3869 17.2947 16.5156 17.3591 16.6444C17.4409 16.808 17.5225 16.9717 17.6039 17.1354C17.6562 17.2401 17.7087 17.3446 17.7612 17.4491C17.7933 17.5134 17.8254 17.5777 17.8574 17.642C17.8724 17.6716 17.8874 17.7012 17.9028 17.7317C17.9161 17.7586 17.9295 17.7855 17.9432 17.8133C17.955 17.8368 17.9668 17.8603 17.9789 17.8845C17.9894 17.9127 17.9894 17.9127 18 17.9416C17.9897 17.9608 17.9794 17.9801 17.9688 18C17.949 17.9887 17.9293 17.9774 17.9089 17.9658C17.0399 17.4701 16.1534 17.0151 15.209 16.6558C15.1899 16.6485 15.1708 16.6411 15.1511 16.6335C14.9115 16.5414 14.6737 16.467 14.4222 16.4083C13.6339 16.2194 13.6339 16.2194 13.4645 15.9878C13.3874 15.8455 13.3371 15.6959 13.2886 15.5433C13.1951 15.2548 13.0583 14.9817 12.9297 14.7058C12.8499 14.5341 12.772 14.3616 12.6938 14.1892C12.505 13.7735 12.3152 13.3581 12.125 12.943C12.1017 12.8921 12.1017 12.8921 12.0779 12.8403C11.8351 12.3104 11.5901 11.7815 11.3441 11.2529C11.0974 10.7225 10.8541 10.1908 10.6122 9.65846C10.4122 9.21837 10.211 8.77877 10.0074 8.34015C9.88512 8.07668 9.76386 7.81282 9.64324 7.5487C9.61737 7.49207 9.59149 7.43544 9.56561 7.37882C9.54832 7.34097 9.53102 7.30313 9.51373 7.26529C9.50515 7.24652 9.49657 7.22775 9.48773 7.20842C9.4364 7.09607 9.38515 6.98369 9.33397 6.87128C9.29441 6.78448 9.25474 6.69773 9.21509 6.61097C9.20059 6.57907 9.1861 6.54716 9.17117 6.51429C9.15104 6.47033 9.15104 6.47033 9.13051 6.42548C9.11299 6.38705 9.11299 6.38705 9.09512 6.34786C9.06169 6.27656 9.06169 6.27656 9 6.19481C8.65165 6.93027 8.3107 7.66849 7.97435 8.40882C7.94392 8.4758 7.91349 8.54277 7.88306 8.60974C7.86843 8.64192 7.85381 8.6741 7.83875 8.70726C7.73273 8.94041 7.62574 9.17314 7.51758 9.40544C7.32377 9.82174 7.13259 10.2391 6.94141 10.6565C6.92917 10.6832 6.92917 10.6832 6.91669 10.7104C6.82836 10.9032 6.74006 11.096 6.65176 11.2889C6.53845 11.5363 6.42504 11.7837 6.31163 12.0311C6.26439 12.1342 6.21716 12.2372 6.16992 12.3403C6.14453 12.3957 6.11914 12.4511 6.09375 12.5065C6.11885 12.5019 6.11885 12.5019 6.14446 12.4972C6.81779 12.3746 7.48722 12.3013 8.17188 12.2672C8.19669 12.266 8.2215 12.2647 8.24706 12.2635C8.68319 12.2419 9.12033 12.2301 9.55664 12.2545C9.5968 12.2565 9.63697 12.2585 9.67834 12.2606C9.82665 12.2781 9.82665 12.2781 9.90625 12.3312C9.94858 12.4036 9.98349 12.4723 10.0171 12.5482C10.0273 12.5704 10.0376 12.5927 10.0481 12.6156C10.082 12.6893 10.1152 12.7632 10.1484 12.8371C10.1721 12.8888 10.1958 12.9406 10.2195 12.9924C10.2685 13.0993 10.3173 13.2063 10.3659 13.3134C10.4624 13.5258 10.5607 13.7374 10.6589 13.949C10.7099 14.0592 10.7608 14.1694 10.8116 14.2796C10.8889 14.4469 10.9663 14.6142 11.0439 14.7814C11.0909 14.8826 11.1379 14.9838 11.1848 15.0851C11.2073 15.1336 11.2299 15.1822 11.2524 15.2308C11.2836 15.2977 11.3147 15.3648 11.3457 15.4318C11.3551 15.4518 11.3644 15.4719 11.374 15.4926C11.4375 15.6298 11.4375 15.6298 11.4375 15.6623C11.2139 15.6683 10.9972 15.6451 10.7754 15.6203C10.7033 15.6124 10.6313 15.6045 10.5592 15.5967C10.5118 15.5914 10.5118 15.5914 10.4634 15.586C10.1476 15.556 9.83444 15.5406 9.51709 15.5395C9.47814 15.5393 9.43919 15.5391 9.39906 15.5389C9.27385 15.5384 9.14865 15.5382 9.02344 15.5381C9.00207 15.5381 8.98071 15.5381 8.9587 15.5381C8.30127 15.5381 7.65218 15.5468 7 15.6331C6.97769 15.636 6.95538 15.6389 6.9324 15.6419C5.98005 15.7665 5.0429 15.9466 4.125 16.2175C4.07526 16.2321 4.07526 16.2321 4.02452 16.247C2.61126 16.6641 1.286 17.2658 0.03125 18C0.0209375 17.9807 0.010625 17.9614 0 17.9416C0.027298 17.8755 0.027298 17.8755 0.0715332 17.792C0.0878655 17.7608 0.104198 17.7297 0.121025 17.6975C0.139095 17.6636 0.157164 17.6296 0.175781 17.5946C0.213789 17.5221 0.251604 17.4496 0.289429 17.3771C0.299183 17.3585 0.308938 17.3398 0.318988 17.3206C0.417868 17.1313 0.512946 16.9403 0.607422 16.749C0.624132 16.7152 0.640842 16.6814 0.658058 16.6466C0.692266 16.5775 0.726463 16.5083 0.760651 16.4392C0.84853 16.2616 0.936921 16.0843 1.02539 15.9071C1.03436 15.8891 1.04332 15.8711 1.05256 15.8526C1.2122 15.5327 1.37299 15.2133 1.53391 14.894C1.70934 14.5458 1.88317 14.1969 2.05627 13.8477C2.16026 13.6379 2.2646 13.4283 2.36914 13.2187C2.3826 13.1918 2.3826 13.1918 2.39633 13.1642C2.55599 12.8443 2.71677 12.5249 2.87772 12.2055C3.03494 11.8935 3.19084 11.581 3.34583 11.268C3.47943 10.9985 3.61455 10.7297 3.75 10.461C3.93679 10.0905 4.12205 9.71934 4.30627 9.34768C4.41026 9.13791 4.5146 8.92828 4.61914 8.71875C4.6326 8.69177 4.6326 8.69177 4.64633 8.66424C4.80597 8.34436 4.96674 8.02498 5.12766 7.70566C5.30309 7.35746 5.47692 7.00859 5.65002 6.65937C5.75401 6.44959 5.85835 6.23997 5.96289 6.03044C5.97635 6.00346 5.97635 6.00346 5.99008 5.97593C6.14974 5.65601 6.31052 5.33659 6.47147 5.01723C6.62869 4.70523 6.78459 4.39269 6.93958 4.07971C7.07318 3.81022 7.2083 3.54141 7.34375 3.27273C7.53054 2.90219 7.7158 2.53103 7.90002 2.15937C8.00401 1.94959 8.10836 1.73998 8.21289 1.53044C8.22174 1.51269 8.23059 1.49495 8.23971 1.47667C8.351 1.25355 8.46285 1.03068 8.5752 0.808023C8.59245 0.773805 8.59245 0.773805 8.61006 0.738897C8.66637 0.627251 8.72274 0.515631 8.77921 0.404054C8.79963 0.363615 8.82004 0.323175 8.84045 0.282734C8.84984 0.264239 8.85923 0.245744 8.8689 0.226689C8.90669 0.151702 8.94068 0.0787545 8.96875 0Z" fill="#01052A"/>
</svg>
