<svg width="18" height="11" viewBox="0 0 18 11" fill="none" xmlns="http://www.w3.org/2000/svg">
<path d="M5.07695 3.90661C5.07695 4.13164 5.09496 4.31167 5.13996 4.4647C5.18497 4.57271 5.24798 4.71673 5.32899 4.87876C5.365 4.91477 5.374 4.96877 5.374 5.01378C5.374 5.07679 5.33799 5.1308 5.25698 5.19381L4.87892 5.44585C4.82491 5.48185 4.77091 5.49986 4.7259 5.49986C4.66289 5.49986 4.60888 5.46385 4.54587 5.40984C4.46486 5.31983 4.39285 5.22981 4.32984 5.1308C4.27583 5.03178 4.21282 4.91477 4.14981 4.77974C3.68174 5.32883 3.09665 5.60787 2.38553 5.60787C1.88146 5.60787 1.48539 5.46385 1.18835 5.17581C0.900303 4.88776 0.747279 4.5007 0.747279 4.01463C0.747279 3.51955 0.927307 3.11449 1.28736 2.79043C1.65642 2.48439 2.1425 2.32236 2.75459 2.32236C2.96162 2.32236 3.15065 2.34036 3.39369 2.37637C3.60072 2.40337 3.84376 2.44838 4.0778 2.50239V2.07032C4.0778 1.61125 3.98778 1.3142 3.79875 1.10717C3.60072 0.918143 3.28567 0.83713 2.8266 0.83713C2.61057 0.83713 2.39454 0.864135 2.1785 0.909142C1.95347 0.96315 1.73743 1.02616 1.5304 1.11617C1.43139 1.15218 1.35037 1.17918 1.32337 1.18819C1.27836 1.20619 1.25136 1.20619 1.22435 1.20619C1.14334 1.20619 1.09833 1.15218 1.09833 1.02616V0.729113C1.09833 0.639099 1.10734 0.567088 1.14334 0.522081C1.17035 0.477074 1.22435 0.441069 1.30537 0.414065C1.5214 0.288045 1.76444 0.198031 2.06148 0.12602C2.36705 0.0461233 2.6818 0.00677989 2.99763 0.00900161C3.70874 0.00900161 4.23082 0.171027 4.56387 0.495077C4.89693 0.819128 5.05895 1.3142 5.05895 1.97131V3.90661H5.07695ZM2.64658 4.82475C2.84461 4.82475 3.04264 4.78875 3.25867 4.71673C3.4747 4.64472 3.66373 4.5097 3.82576 4.32967C3.92477 4.21266 3.99679 4.08664 4.05079 3.94261C4.05079 3.79859 4.0958 3.62757 4.0958 3.42053V3.17749C3.91577 3.11448 3.73574 3.11448 3.53771 3.06948C3.35231 3.04922 3.1661 3.03721 2.97963 3.03347C2.57456 3.03347 2.28652 3.11449 2.08849 3.27651C1.89046 3.43854 1.80044 3.66357 1.80044 3.96062C1.80044 4.24866 1.86345 4.46469 2.01648 4.59972C2.1605 4.75274 2.36753 4.82475 2.64658 4.82475ZM7.45332 5.46385C7.36618 5.46645 7.27971 5.44792 7.20128 5.40984C7.17428 5.36484 7.12927 5.28382 7.09327 5.17581L5.68905 0.549086C5.65304 0.414065 5.63504 0.351055 5.63504 0.306048C5.63504 0.207032 5.68005 0.153024 5.77906 0.153024H6.36415C6.48117 0.153024 6.56218 0.171027 6.59819 0.216034C6.6522 0.252039 6.6882 0.333052 6.72421 0.45007L7.72337 4.41069L8.65951 0.45007C8.68652 0.333052 8.72252 0.252039 8.77653 0.216034C8.82154 0.180028 8.90255 0.153024 9.00156 0.153024H9.49664C9.60466 0.153024 9.68567 0.171027 9.73068 0.216034C9.77569 0.252039 9.82069 0.333052 9.8477 0.45007L10.8018 4.4647L11.828 0.45007C11.864 0.333052 11.909 0.252039 11.945 0.216034C11.999 0.180028 12.071 0.153024 12.1791 0.153024H12.7371C12.8362 0.153024 12.8902 0.207032 12.8902 0.306048C12.8902 0.333052 12.8812 0.369058 12.8722 0.414065C12.8722 0.414065 12.8542 0.486076 12.8362 0.549086L11.3869 5.17581C11.3509 5.30183 11.3149 5.36484 11.2519 5.40984C11.2159 5.44585 11.1349 5.47285 11.0359 5.47285H10.5228C10.4058 5.47285 10.3518 5.45485 10.2798 5.40984C10.2192 5.34567 10.1813 5.2635 10.1717 5.17581L9.2446 1.3142L8.31746 5.1668C8.29045 5.28382 8.25445 5.36484 8.20944 5.40984C8.13512 5.45034 8.05088 5.46906 7.9664 5.46385H7.45332ZM15.1495 5.62588C14.8525 5.62588 14.5194 5.58987 14.2224 5.51786C13.9253 5.44585 13.6913 5.36484 13.5383 5.28382C13.4601 5.24622 13.3945 5.18683 13.3492 5.1128C13.3248 5.06233 13.3125 5.00685 13.3132 4.95077V4.64472C13.3132 4.5187 13.3582 4.4647 13.4483 4.4647H13.5563C13.5923 4.4647 13.6463 4.5097 13.7093 4.53671C13.9073 4.62672 14.1324 4.69873 14.3664 4.74374C14.6094 4.78875 14.8525 4.81575 15.0775 4.81575C15.4556 4.81575 15.7526 4.75274 15.9506 4.61772C16.1577 4.4647 16.2657 4.29367 16.2657 4.05063C16.2657 3.8796 16.2027 3.74458 16.1037 3.62756C15.9957 3.51955 15.7886 3.41153 15.5006 3.32152L14.6274 3.05148C14.1954 2.90745 13.8713 2.70942 13.6733 2.43938C13.48 2.18941 13.3755 1.88221 13.3762 1.56624C13.3762 1.3142 13.4303 1.09817 13.5383 0.909142C13.6463 0.711111 13.7903 0.549086 13.9523 0.414065C14.1504 0.279043 14.3484 0.180028 14.5914 0.108017C14.8255 0.0360055 15.0775 0 15.3476 0C15.4736 0 15.6086 0.00900159 15.7526 0.0270044C15.8786 0.0450072 16.0047 0.0720111 16.1307 0.0900139C16.2567 0.12602 16.3647 0.153024 16.4727 0.189029C16.5807 0.225035 16.6528 0.261041 16.7248 0.297046C16.8058 0.342053 16.8688 0.38706 16.9048 0.441069C16.9408 0.495077 16.9588 0.558087 16.9588 0.6391V0.927145C16.9588 1.05316 16.9138 1.11617 16.8238 1.11617C16.7788 1.11617 16.6978 1.08917 16.5897 1.04416C16.2567 0.891139 15.8696 0.810126 15.4466 0.810126C15.1045 0.810126 14.8525 0.864135 14.6454 0.981153C14.4654 1.08917 14.3664 1.2692 14.3664 1.51224C14.3664 1.68326 14.4294 1.82728 14.5464 1.9353C14.6634 2.05232 14.8885 2.16034 15.2035 2.26835L16.0587 2.53839C16.4907 2.66441 16.7968 2.86245 16.9858 3.11449C17.1658 3.35752 17.2559 3.63657 17.2559 3.95162C17.2559 4.20365 17.2018 4.43769 17.1028 4.64472C16.9948 4.84275 16.8508 5.02278 16.6528 5.1668C16.4817 5.31983 16.2567 5.42785 16.0047 5.50886C15.7526 5.58987 15.4466 5.62588 15.1495 5.62588ZM16.2747 8.54233C14.3034 9.99156 11.4409 10.7657 9.00156 10.7657C5.53603 10.7657 2.43054 9.48748 0.0811754 7.37215C-0.107854 7.20112 0.0631727 6.97609 0.288208 7.11111C2.8266 8.57834 5.95009 9.46947 9.19059 9.46947C11.3779 9.46947 13.7813 9.0194 15.9867 8.06526C16.3197 7.93023 16.5987 8.29929 16.2747 8.54233ZM17.1028 7.61519C16.8418 7.28213 15.4286 7.45316 14.7895 7.52517C14.6004 7.55218 14.5734 7.38115 14.7445 7.25513C15.8696 6.47201 17.7239 6.71505 17.931 6.95808C18.147 7.22813 17.8769 9.08241 16.8238 9.96455C16.6528 10.0996 16.4997 10.0276 16.5717 9.86554C16.8148 9.25344 17.3459 7.92123 17.1028 7.61519Z" fill="#01052A"/>
</svg>
