<svg width="11" height="16" viewBox="0 0 11 16" fill="none" xmlns="http://www.w3.org/2000/svg">
<path d="M0 16V0H4.07075C5.37687 0 6.40726 0.130613 7.1619 0.391837C7.93107 0.653061 8.49705 0.986848 8.85986 1.3932C9.23719 1.79955 9.4839 2.22766 9.6 2.67755C9.7161 3.12744 9.77415 3.5483 9.77415 3.94014C9.77415 4.361 9.70884 4.80363 9.57823 5.26803C9.46213 5.71791 9.25896 6.13878 8.96871 6.53061C8.67846 6.90794 8.27937 7.2127 7.77143 7.4449C8.85986 7.72064 9.62903 8.19955 10.0789 8.88163C10.5433 9.54921 10.7755 10.2966 10.7755 11.1238C10.7755 11.6898 10.7102 12.263 10.5796 12.8435C10.449 13.424 10.1732 13.9537 9.75238 14.4327C9.34603 14.8971 8.72925 15.2744 7.90204 15.5646C7.07483 15.8549 5.96463 16 4.57143 16H0ZM2.39456 6.79184H4.46259C5.21723 6.79184 5.79773 6.66848 6.20408 6.42177C6.61043 6.16054 6.89342 5.82676 7.05306 5.42041C7.22721 5.01406 7.31429 4.58594 7.31429 4.13605C7.31429 3.75873 7.22721 3.41769 7.05306 3.11293C6.89342 2.79365 6.59592 2.53968 6.16055 2.35102C5.73968 2.16236 5.13742 2.06803 4.35374 2.06803H2.39456V6.79184ZM2.39456 13.9537H4.89796C5.6381 13.9537 6.22585 13.8667 6.66122 13.6925C7.11111 13.5184 7.45215 13.2934 7.68435 13.0177C7.91655 12.742 8.06893 12.4444 8.1415 12.1252C8.21406 11.7914 8.25034 11.4649 8.25034 11.1456C8.25034 10.3909 7.99637 9.80318 7.48844 9.38231C6.9805 8.94694 6.18231 8.72925 5.09388 8.72925H2.39456V13.9537Z" fill="#01052A"/>
</svg>
