<svg width="18" height="18" viewBox="0 0 18 18" fill="none" xmlns="http://www.w3.org/2000/svg">
<mask id="mask0_5171_50" style="mask-type:luminance" maskUnits="userSpaceOnUse" x="0" y="0" width="18" height="18">
<path d="M0 0H18V18H0V0Z" fill="white"/>
</mask>
<g mask="url(#mask0_5171_50)">
<path d="M8.53709 11.4563C9.37034 11.4533 11.1921 11.4466 11.1711 10.2878C11.1508 9.1028 9.40109 9.17405 8.54834 9.2093C8.45234 9.2138 8.36934 9.21655 8.29934 9.21755L8.33834 11.4578C8.39534 11.4563 8.46159 11.4558 8.53709 11.4563ZM8.44859 8.19155C9.14384 8.1908 10.6611 8.1893 10.6431 7.13555C10.6236 6.0578 9.16634 6.12155 8.45459 6.15305C8.37459 6.15705 8.30509 6.15955 8.24609 6.16055L8.28134 8.1923L8.44859 8.19155Z" fill="#01052A"/>
<path fill-rule="evenodd" clip-rule="evenodd" d="M6.82139 17.7309C11.6439 18.9331 16.5279 15.9984 17.7301 11.1774C18.9324 6.35562 15.9969 1.47162 11.1744 0.270117C6.35489 -0.932883 1.47089 2.00262 0.269391 6.82512C-0.932859 11.6461 2.00189 16.5301 6.82214 17.7316M10.0336 4.96662C11.3491 5.05962 12.3961 5.44512 12.5334 6.64812C12.6354 7.52862 12.2754 8.06487 11.6911 8.37537C12.6661 8.59137 13.2849 9.15762 13.1874 10.4536C13.0666 12.0624 11.8764 12.5146 10.1679 12.6429L10.1964 14.3304L9.17939 14.3484L9.15014 12.6834C8.88714 12.6884 8.61614 12.6904 8.33714 12.6894L8.36714 14.3619L7.35014 14.3799L7.32014 12.6894L7.03289 12.6916C6.88689 12.6916 6.74039 12.6931 6.59339 12.6961L5.26889 12.7186L5.44964 11.5006C5.44964 11.5006 6.20264 11.4991 6.18914 11.4879C6.47714 11.4819 6.54989 11.2741 6.56564 11.1436L6.51914 8.47512L6.59189 8.47362H6.62639C6.59056 8.46927 6.55447 8.46752 6.51839 8.46837L6.48539 6.56337C6.44264 6.35787 6.30464 6.12087 5.89289 6.12837C5.90414 6.11337 5.15339 6.14112 5.15339 6.14112L5.13389 5.05512L6.53789 5.03112V5.03637C6.74939 5.03237 6.96514 5.02587 7.18514 5.01687L7.15664 3.34512L8.17364 3.32787L8.20214 4.96587C8.47364 4.95612 8.74664 4.94562 9.01439 4.94112L8.98589 3.31362L10.0036 3.29562L10.0336 4.96662Z" fill="#01052A"/>
</g>
</svg>
