<svg width="18" height="20" viewBox="0 0 18 20" fill="none" xmlns="http://www.w3.org/2000/svg">
<path d="M0.75 2.75C0.75 2.21957 0.960714 1.71086 1.33579 1.33579C1.71086 0.960714 2.21957 0.75 2.75 0.75H14.75C15.2804 0.75 15.7891 0.960714 16.1642 1.33579C16.5393 1.71086 16.75 2.21957 16.75 2.75V16.75C16.75 17.2804 16.5393 17.7891 16.1642 18.1642C15.7891 18.5393 15.2804 18.75 14.75 18.75H2.75C2.21957 18.75 1.71086 18.5393 1.33579 18.1642C0.960714 17.7891 0.75 17.2804 0.75 16.75V2.75Z" stroke="#01052A" stroke-width="1.5" stroke-linecap="round" stroke-linejoin="round"/>
<path d="M4.75 11.75V11.76M8.75 11.75V11.76M12.75 11.75V11.76M4.75 14.75V14.76M8.75 14.75V14.76M12.75 14.75V14.76M4.75 5.75C4.75 5.48478 4.85536 5.23043 5.04289 5.04289C5.23043 4.85536 5.48478 4.75 5.75 4.75H11.75C12.0152 4.75 12.2696 4.85536 12.4571 5.04289C12.6446 5.23043 12.75 5.48478 12.75 5.75V6.75C12.75 7.01522 12.6446 7.26957 12.4571 7.45711C12.2696 7.64464 12.0152 7.75 11.75 7.75H5.75C5.48478 7.75 5.23043 7.64464 5.04289 7.45711C4.85536 7.26957 4.75 7.01522 4.75 6.75V5.75Z" stroke="#01052A" stroke-width="1.5" stroke-linecap="round" stroke-linejoin="round"/>
</svg>
