<svg width="18" height="18" viewBox="0 0 18 18" fill="none" xmlns="http://www.w3.org/2000/svg">
<path d="M14.8495 10.6965C15.0639 10.697 15.2748 10.713 15.4821 10.7445C15.4821 10.7483 15.4783 10.752 15.4783 10.755C15.396 10.9582 15.2987 11.1552 15.1872 11.3445L14.2558 12.924C13.8375 13.6372 13.2351 14.2295 12.5092 14.6413C11.7833 15.053 10.9596 15.2696 10.1212 15.2692H8.26294C7.42459 15.269 6.60106 15.0522 5.87516 14.6405C5.14926 14.2288 4.54656 13.6368 4.12765 12.924L3.19698 11.3445C2.77755 10.6317 2.55673 9.82312 2.55673 9C2.55673 8.17688 2.77755 7.36827 3.19698 6.6555L4.12765 5.076C4.54597 4.36269 5.14853 3.77028 5.87457 3.35852C6.60061 2.94677 7.42443 2.73023 8.26294 2.73075H10.1212C10.9595 2.73112 11.7828 2.94804 12.5086 3.35972C13.2343 3.77139 13.8369 4.36331 14.2558 5.076L15.1872 6.6555C15.2995 6.8445 15.3943 7.04475 15.4783 7.245C15.4783 7.248 15.4821 7.25175 15.4821 7.2555C15.2728 7.28713 15.0613 7.30317 14.8495 7.3035C13.4619 7.3035 12.9385 6.84825 12.3348 6.324C11.751 5.817 11.0274 5.18625 9.70632 5.18625H8.92007C7.96418 5.18625 7.09617 5.5275 6.47496 6.14475C5.86674 6.7485 5.53283 7.57275 5.53283 8.469V9.52725C5.53283 10.4243 5.86674 11.2485 6.47496 11.8515C7.09617 12.4687 7.96418 12.81 8.92007 12.81H9.71014C11.0313 12.81 11.7549 12.1792 12.3379 11.6722C12.9423 11.145 13.4619 10.6927 14.8495 10.6965ZM14.8533 8.26875C15.1589 8.26875 15.4592 8.24125 15.7542 8.18625C15.7526 8.18275 15.7521 8.17925 15.7526 8.17575C15.6952 7.86323 15.6059 7.55718 15.486 7.26225C16.0341 7.17793 16.5541 6.96744 17.0034 6.648C17.0034 6.645 16.9996 6.63825 16.9996 6.6345C16.7465 5.8222 16.3624 5.05497 15.8619 4.362C15.3658 3.67694 14.765 3.07107 14.0808 2.56575C12.6653 1.52029 10.9406 0.957244 9.16916 0.96225C8.06275 0.96225 6.98767 1.17225 5.97906 1.593C5.00636 2.00025 4.12765 2.57925 3.37578 3.31725C2.62391 4.05525 2.03021 4.914 1.61989 5.8725C1.19382 6.86339 0.975034 7.92823 0.976516 9.00375C0.976516 10.0897 1.19123 11.145 1.61989 12.1343C2.03403 13.0898 2.62391 13.9515 3.37578 14.6895C4.12765 15.4275 5.00254 16.0102 5.97906 16.4137C6.99072 16.8307 8.06275 17.0445 9.16916 17.0445C10.9571 17.0445 12.6542 16.4895 14.0808 15.4418C14.7659 14.9371 15.3668 14.3309 15.8619 13.6448C16.3602 12.9505 16.7441 12.1836 16.9996 11.3722C16.9996 11.3692 17.0034 11.3618 17.0034 11.3588C16.5541 11.0393 16.0341 10.8288 15.486 10.7445C15.609 10.4483 15.6968 10.1415 15.7526 9.831C15.7564 9.82425 15.7564 9.8205 15.7564 9.81375C16.4206 9.93301 17.0486 10.1984 17.5933 10.59C18.1167 10.9688 18.0151 11.3963 17.9341 11.652C16.7819 15.3278 13.2938 18 9.16916 18C4.10702 18 0 13.9688 0 9C0 4.03125 4.1032 0 9.16916 0C13.2938 0 16.7819 2.67225 17.9341 6.348C18.0151 6.60375 18.1167 7.03425 17.5933 7.41375C17.0492 7.80623 16.4209 8.07148 15.7564 8.18925C15.8542 8.72625 15.8542 9.27675 15.7564 9.81375C15.4587 9.75841 15.1563 9.73079 14.8533 9.73125C11.6563 9.73125 11.8213 11.8485 9.70632 11.8485H8.92007C7.46905 11.8485 6.51316 10.8308 6.51316 9.52725V8.469C6.51316 7.1655 7.46905 6.1485 8.92007 6.1485H9.71014C11.8252 6.1485 11.6601 8.26575 14.8533 8.26875Z" fill="#01052A"/>
</svg>
