<svg width="18" height="18" viewBox="0 0 18 18" fill="none" xmlns="http://www.w3.org/2000/svg">
<g clip-path="url(#clip0_5113_76)">
<path d="M9 0C4.02806 0 0 4.02806 0 9C0 13.9719 4.02806 18 9 18C13.9719 18 18 13.9719 18 9C18 4.02806 13.9719 0 9 0ZM5.22056 5.76C5.78588 5.76 6.22575 6.17231 6.27525 6.65944C6.32869 7.09875 6.14644 7.48294 5.66044 7.71412C5.40225 7.84294 5.29988 7.84294 5.247 7.76644C5.22056 7.71413 5.247 7.66463 5.29931 7.61119C5.76281 7.22813 5.76281 6.91763 5.70937 6.48113C5.68294 6.19706 5.47819 6.01762 5.27287 6.01762C4.37062 6.01762 3.08756 8.02181 3.26588 9.48938C3.34519 10.0547 3.67931 10.7229 4.39706 10.7229C4.62881 10.7229 4.887 10.6464 5.11762 10.5446C5.49281 10.3449 5.71838 10.1931 5.94113 9.94387C5.88544 9.27844 6.46819 8.40881 7.32937 8.40881C7.71637 8.40881 8.02406 8.56406 8.04994 8.84812C8.1 9.23231 7.76587 9.28463 7.6635 9.28463C7.56112 9.28463 7.37944 9.25819 7.37944 9.15581C7.35638 9.05288 7.61062 9.1035 7.587 8.87175C7.56056 8.7165 7.40531 8.667 7.25344 8.667C6.71119 8.667 6.4035 9.414 6.48 9.87356C6.50644 10.0811 6.60825 10.287 6.81694 10.287C6.96938 10.287 7.20112 10.0553 7.2765 9.72169C7.32881 9.48994 7.53469 9.33469 7.71581 9.33469C7.79231 9.33469 7.84181 9.36112 7.86825 9.4635V9.56644C7.84519 9.66937 7.76531 9.97987 7.79231 10.0552C7.79231 10.1087 7.81875 10.1841 7.92056 10.1841C7.98806 10.1841 8.24625 10.0491 8.50388 9.83812C8.58881 9.39544 8.69119 8.86556 8.69119 8.82169C8.71763 8.64 8.79413 8.46112 9.15413 8.46112C9.23288 8.46112 9.28294 8.48756 9.30937 8.58994V8.69288L9.20644 9.15581C9.54113 8.71931 10.0299 8.41163 10.3376 8.41163C10.4664 8.41163 10.5694 8.48756 10.5694 8.61637C10.5694 8.69287 10.5694 8.82169 10.5159 8.95106C10.4141 9.23231 10.2848 9.67162 10.2083 10.0552C10.2083 10.1582 10.2347 10.2606 10.3635 10.2606C10.4923 10.2606 10.8765 10.1081 11.1842 9.69525L11.1904 9.69244C11.1904 9.64238 11.1842 9.59287 11.1842 9.54337C11.1842 9.23287 11.2106 8.97806 11.2635 8.79637C11.3158 8.59106 11.5712 8.41219 11.7264 8.41219C11.8024 8.41219 11.8817 8.46169 11.8817 8.53819C11.8817 8.56462 11.8817 8.61694 11.8553 8.64113C11.7523 8.97806 11.673 9.28519 11.673 9.59288C11.673 9.77456 11.7 10.0294 11.7523 10.1846C11.7523 10.2111 11.7754 10.2369 11.8018 10.2369C11.8553 10.2369 12.2153 9.90337 12.4701 9.4635C12.2383 9.31106 12.1095 9.05344 12.1095 8.74575C12.1095 8.20406 12.447 7.92225 12.7547 7.92225C13.0129 7.92225 13.2176 8.10169 13.2176 8.46169C13.2176 8.69344 13.1411 8.95162 13.0129 9.18225H13.0888C13.2531 9.18844 13.4145 9.12094 13.5253 9.00394C13.5498 8.96482 13.5857 8.93419 13.6283 8.91619C13.8803 8.59669 14.2492 8.35988 14.6857 8.35988C15.0457 8.35988 15.3771 8.51512 15.4035 8.79637C15.4558 9.18281 15.1194 9.25931 15.0165 9.25931C14.9147 9.25931 14.733 9.23288 14.733 9.1305C14.733 9.02813 14.9642 9.07819 14.9406 8.84925C14.9141 8.694 14.7589 8.64169 14.6036 8.64169C14.0906 8.64169 13.7571 9.30937 13.8324 9.85162C13.8589 10.0564 13.9613 10.2881 14.1671 10.2881C14.3224 10.2881 14.5536 10.0564 14.6559 9.72281C14.7054 9.51806 14.9141 9.33581 15.0924 9.33581C15.1712 9.33581 15.2213 9.36225 15.2477 9.46463C15.2477 9.51806 15.2477 9.61988 15.1447 9.95456C15.0159 10.1858 15.0159 10.3146 15.0429 10.4175C15.066 10.6223 15.1689 10.7775 15.2741 10.854C15.2928 10.8779 15.3096 10.9033 15.3242 10.9299C15.3242 10.9834 15.2972 11.0357 15.2212 11.0357C15.1948 11.0357 15.1712 11.0357 15.1447 11.0093C14.7583 10.854 14.6031 10.5958 14.553 10.3382C14.3977 10.5199 14.2194 10.6223 14.0113 10.6223C13.6766 10.6223 13.3459 10.3146 13.2936 9.92756C13.278 9.76345 13.297 9.5979 13.3493 9.44156C13.1968 9.53831 13.0326 9.594 12.8807 9.594H12.7547C12.4177 10.0828 12.0572 10.4175 11.8024 10.5699C11.7146 10.6168 11.6176 10.6437 11.5183 10.6487C11.4688 10.6487 11.3901 10.6223 11.3659 10.5699C11.2933 10.4558 11.2489 10.2769 11.2196 10.0721C10.8591 10.4642 10.3607 10.6751 10.1301 10.6751C9.87188 10.6751 9.72 10.5199 9.69356 10.2628V9.98156C9.7695 9.41625 9.97763 9.07931 9.97763 8.97638C9.97612 8.96283 9.96998 8.95022 9.96024 8.94068C9.9505 8.93115 9.93776 8.92528 9.92419 8.92406C9.74587 8.92406 9.15412 9.54225 9.05119 9.95512L8.97244 10.2887C8.92238 10.5199 8.69119 10.6751 8.53594 10.6751C8.45944 10.6751 8.40713 10.6487 8.3835 10.5469V10.4439L8.41556 10.2684C8.08988 10.4996 7.76475 10.6487 7.6095 10.6487C7.37831 10.6487 7.2495 10.5199 7.22644 10.3382C7.07119 10.5469 6.89175 10.6487 6.66113 10.6487C6.39394 10.6487 6.13687 10.467 6.01369 10.2037C5.82862 10.4113 5.6205 10.6194 5.37469 10.7775C5.01469 11.0092 4.60463 11.1876 4.11469 11.1876C3.67819 11.1876 3.29175 10.9558 3.08644 10.7511C2.77594 10.467 2.59763 10.0305 2.57119 9.61987C2.41875 8.36044 3.18938 6.73988 4.3695 6.01931C4.65356 5.86406 4.93819 5.76225 5.21944 5.76225L5.22056 5.76ZM12.5477 8.22994C12.4717 8.22994 12.4194 8.35875 12.4194 8.48419C12.4194 8.69288 12.5212 8.9235 12.6506 9.05287C12.7023 8.91214 12.7292 8.76349 12.7299 8.61356C12.7299 8.35931 12.627 8.2305 12.5477 8.2305V8.22994Z" fill="#01052A"/>
</g>
<defs>
<clipPath id="clip0_5113_76">
<rect width="18" height="18" fill="white"/>
</clipPath>
</defs>
</svg>
