<svg width="14" height="18" viewBox="0 0 14 18" fill="none" xmlns="http://www.w3.org/2000/svg">
<path fill-rule="evenodd" clip-rule="evenodd" d="M8.99958 1.1792C6.92526 1.1792 4.9359 2.00322 3.46914 3.46998C2.00238 4.93674 1.17836 6.9261 1.17836 9.00042C1.17836 11.0747 2.00238 13.0641 3.46914 14.5309C4.9359 15.9976 6.92526 16.8216 8.99958 16.8216V18C4.02878 18 0 13.9704 0 8.99958C0 4.02878 4.02794 0 8.99874 0V1.17836L8.99958 1.1792ZM12.9964 4.27186C12.375 3.74435 11.6554 3.34488 10.8791 3.09643C10.1028 2.84799 9.28498 2.75546 8.47276 2.82416C7.66055 2.89287 6.86992 3.12146 6.14636 3.4968C5.42279 3.87213 4.78056 4.38679 4.2566 5.01119C3.73263 5.63559 3.33727 6.35742 3.09324 7.13515C2.84922 7.91288 2.76134 8.73118 2.83467 9.543C2.908 10.3548 3.14109 11.1441 3.52053 11.8655C3.89997 12.587 4.41828 13.2262 5.04565 13.7466L4.28784 14.65C3.54695 14.0285 2.93575 13.2672 2.48913 12.4095C2.0425 11.5518 1.76921 10.6145 1.68486 9.65117C1.60051 8.68784 1.70675 7.71732 1.99751 6.79506C2.28827 5.87279 2.75787 5.01683 3.37947 4.27606C4.00101 3.53515 4.7624 2.92393 5.62017 2.47729C6.47795 2.03066 7.4153 1.75736 8.3787 1.67301C9.3421 1.58866 10.3127 1.69491 11.235 1.98568C12.1574 2.27646 13.0134 2.74607 13.7542 3.36769L12.9964 4.27186ZM11.0998 4.98173C10.0344 4.43146 8.79478 4.32422 7.65073 4.68335C6.50667 5.04248 5.55075 5.83892 4.99099 6.89934C4.43122 7.95977 4.31292 9.19836 4.66182 10.3456C5.01072 11.4928 5.79859 12.4558 6.85398 13.025L6.30223 14.0679C4.98399 13.3451 4.0028 12.133 3.57039 10.6931C3.13797 9.25319 3.28902 7.70102 3.99092 6.37152C4.69282 5.04201 5.8893 4.04177 7.32216 3.58665C8.75503 3.13152 10.3094 3.258 11.6498 3.93879L11.0998 4.98173ZM8.99874 6.08943C8.2267 6.08943 7.48628 6.39613 6.94036 6.94204C6.39444 7.48796 6.08775 8.22838 6.08775 9.00042C6.08775 9.77246 6.39444 10.5129 6.94036 11.0588C7.48628 11.6047 8.2267 11.9114 8.99874 11.9114V13.0906C7.91395 13.0906 6.8736 12.6597 6.10654 11.8926C5.33948 11.1256 4.90856 10.0852 4.90856 9.00042C4.90856 7.91564 5.33948 6.87528 6.10654 6.10822C6.8736 5.34117 7.91395 4.91024 8.99874 4.91024V6.08943Z" fill="#01052A"/>
<path fill-rule="evenodd" clip-rule="evenodd" d="M10.0814 8.02114C9.95601 7.88611 9.81149 7.77021 9.65245 7.67714C9.51391 7.59484 9.35603 7.55073 9.1949 7.54929C8.98042 7.54929 8.78866 7.58882 8.6196 7.66704C8.4562 7.74066 8.30937 7.84656 8.18796 7.97838C8.06654 8.1102 7.97305 8.26522 7.91309 8.43411C7.85085 8.60485 7.82057 8.784 7.82057 8.96483C7.82057 9.14819 7.85085 9.3265 7.91309 9.49556C7.97355 9.66428 8.06722 9.81917 8.18857 9.95107C8.30992 10.083 8.45649 10.1892 8.6196 10.2635C8.78782 10.3417 8.98126 10.3812 9.1949 10.3812C9.37657 10.3812 9.54563 10.3425 9.70123 10.2677C9.85935 10.192 9.99561 10.0784 10.1007 9.93797L10.8813 10.7841C10.7635 10.9018 10.6289 11.0036 10.4759 11.0894C10.1928 11.2473 9.88466 11.3554 9.56498 11.409C9.42199 11.4309 9.29835 11.4427 9.1949 11.4427C8.85553 11.4448 8.51862 11.3849 8.20074 11.266C7.90021 11.1549 7.62527 10.9841 7.39246 10.7639C7.16095 10.5427 6.97669 10.2769 6.8508 9.98254C6.71402 9.66092 6.64584 9.3143 6.65063 8.96483C6.65063 8.59139 6.71791 8.25244 6.8508 7.94713C6.97697 7.65275 7.16032 7.38696 7.39162 7.16576C7.62544 6.94624 7.90047 6.7755 8.20074 6.66447C8.51862 6.54558 8.85553 6.48573 9.1949 6.48785C9.49348 6.48785 9.79375 6.54504 10.0965 6.65943C10.4002 6.7755 10.6727 6.96222 10.8905 7.20529L10.0814 8.02114Z" fill="#01052A"/>
</svg>
