<svg width="18" height="16" viewBox="0 0 18 16" fill="none" xmlns="http://www.w3.org/2000/svg">
<path d="M1.0007 15L0.0707047 14.63C0.0042539 14.7972 -0.0158572 14.9792 0.0124913 15.1569C0.0408397 15.3346 0.116598 15.5013 0.231779 15.6395C0.346961 15.7777 0.497299 15.8823 0.666946 15.9422C0.836593 16.0022 1.01926 16.0152 1.1957 15.98L1.0007 15ZM5.70671 14.064L6.18071 13.183L5.8637 13.013L5.5117 13.083L5.70671 14.064ZM2.6247 10.917L3.5547 11.287L3.7177 10.873L3.5217 10.474L2.6247 10.917ZM16.0007 8C16.0007 11.246 13.1477 14 9.47071 14V16C14.1117 16 18.0007 12.486 18.0007 8H16.0007ZM2.9417 8C2.9417 4.754 5.7957 2 9.4717 2V0C4.8307 0 0.940705 3.514 0.940705 8H2.9417ZM9.4717 2C13.1477 2 16.0007 4.754 16.0007 8H18.0007C18.0007 3.514 14.1127 0 9.4717 0V2ZM9.47071 14C8.2657 14 7.14371 13.7 6.18071 13.183L5.23271 14.944C6.53603 15.6427 7.99192 16.0056 9.47071 16V14ZM1.1957 15.98L5.9017 15.044L5.5117 13.083L0.805705 14.019L1.1957 15.981V15.98ZM3.5217 10.474C3.14101 9.70475 2.94322 8.85829 2.9417 8H0.940705C0.940705 9.2 1.2227 10.338 1.7267 11.36L3.5217 10.474ZM1.6957 10.547L0.0707047 14.631L1.9287 15.369L3.5527 11.286L1.6947 10.547H1.6957Z" fill="#01052A"/>
<path d="M6 9C6.55228 9 7 8.55228 7 8C7 7.44772 6.55228 7 6 7C5.44772 7 5 7.44772 5 8C5 8.55228 5.44772 9 6 9Z" fill="#01052A"/>
<path d="M9.5 9C10.0523 9 10.5 8.55228 10.5 8C10.5 7.44772 10.0523 7 9.5 7C8.94772 7 8.5 7.44772 8.5 8C8.5 8.55228 8.94772 9 9.5 9Z" fill="#01052A"/>
<path d="M13 9C13.5523 9 14 8.55228 14 8C14 7.44772 13.5523 7 13 7C12.4477 7 12 7.44772 12 8C12 8.55228 12.4477 9 13 9Z" fill="#01052A"/>
</svg>
