<svg width="31" height="30" viewBox="0 0 31 30" fill="none" xmlns="http://www.w3.org/2000/svg">
<path d="M15.0449 8C12.4199 8 10.1449 9.4 9.00742 11.5875L8.04492 10.625V14.125H11.5449L10.2324 12.8125C11.1074 11.0625 12.9449 9.75 15.0449 9.75C17.9324 9.75 20.2949 12.1125 20.2949 15C20.2949 17.8875 17.9324 20.25 15.0449 20.25C13.4699 20.25 12.0699 19.55 11.1074 18.4125L9.79492 19.55C11.0199 21.0375 12.9449 22 15.0449 22C18.8949 22 22.0449 18.85 22.0449 15C22.0449 11.15 18.8949 8 15.0449 8Z" fill="#01052A" fill-opacity="0.75"/>
</svg>
