<svg width="18" height="18" viewBox="0 0 18 18" fill="none" xmlns="http://www.w3.org/2000/svg">
<path d="M1.45498 12.1252C1.04457 11.1344 0.833333 10.0725 0.833333 9C0.833333 6.83407 1.69375 4.75684 3.22529 3.22529C4.75684 1.69375 6.83407 0.833333 9 0.833333C11.1659 0.833333 13.2432 1.69375 14.7747 3.22529C16.3063 4.75684 17.1667 6.83407 17.1667 9C17.1667 10.0725 16.9554 11.1344 16.545 12.1252C16.1346 13.1161 15.5331 14.0164 14.7747 14.7747C14.0164 15.5331 13.1161 16.1346 12.1252 16.545C11.1344 16.9554 10.0725 17.1667 9 17.1667C7.92754 17.1667 6.86558 16.9554 5.87475 16.545C4.88393 16.1346 3.98364 15.5331 3.22529 14.7747C2.46695 14.0164 1.8654 13.1161 1.45498 12.1252Z" stroke="#01052A" stroke-width="1.66667" stroke-linecap="round" stroke-linejoin="round"/>
<path d="M9 4V9L12 12" stroke="#01052A" stroke-width="1.66667" stroke-linecap="round" stroke-linejoin="round"/>
</svg>
