<svg width="18" height="18" viewBox="0 0 18 18" fill="none" xmlns="http://www.w3.org/2000/svg">
<path d="M15.4286 12.8571C14.9745 12.8594 14.5298 12.9861 14.1429 13.2236L12.1564 11.2307C12.6186 10.5787 12.8669 9.79922 12.8669 9C12.8669 8.20078 12.6186 7.42129 12.1564 6.76929L14.1429 4.77643C14.5298 5.0139 14.9745 5.14064 15.4286 5.14286C15.9372 5.14286 16.4343 4.99205 16.8572 4.70949C17.28 4.42694 17.6096 4.02534 17.8043 3.55547C17.9989 3.08561 18.0498 2.56858 17.9506 2.06977C17.8514 1.57096 17.6065 1.11278 17.2468 0.753155C16.8872 0.393534 16.429 0.14863 15.9302 0.0494104C15.4314 -0.0498087 14.9144 0.00111415 14.4445 0.195739C13.9747 0.390365 13.5731 0.719951 13.2905 1.14282C13.008 1.56569 12.8571 2.06285 12.8571 2.57143C12.8594 3.02545 12.9861 3.47017 13.2236 3.85714L11.2307 5.84357C10.5787 5.38136 9.79922 5.13309 9 5.13309C8.20078 5.13309 7.42129 5.38136 6.76929 5.84357L4.77643 3.85714C5.0139 3.47017 5.14064 3.02545 5.14286 2.57143C5.14286 2.06285 4.99205 1.56569 4.70949 1.14282C4.42694 0.719951 4.02534 0.390365 3.55547 0.195739C3.08561 0.00111415 2.56858 -0.0498087 2.06977 0.0494104C1.57096 0.14863 1.11278 0.393534 0.753155 0.753155C0.393534 1.11278 0.14863 1.57096 0.0494104 2.06977C-0.0498087 2.56858 0.00111415 3.08561 0.195739 3.55547C0.390365 4.02534 0.719951 4.42694 1.14282 4.70949C1.56569 4.99205 2.06285 5.14286 2.57143 5.14286C3.02545 5.14064 3.47017 5.0139 3.85714 4.77643L5.84357 6.76929C5.38136 7.42129 5.13309 8.20078 5.13309 9C5.13309 9.79922 5.38136 10.5787 5.84357 11.2307L3.85714 13.2236C3.47017 12.9861 3.02545 12.8594 2.57143 12.8571C2.06285 12.8571 1.56569 13.008 1.14282 13.2905C0.719951 13.5731 0.390365 13.9747 0.195739 14.4445C0.00111415 14.9144 -0.0498087 15.4314 0.0494104 15.9302C0.14863 16.429 0.393534 16.8872 0.753155 17.2468C1.11278 17.6065 1.57096 17.8514 2.06977 17.9506C2.56858 18.0498 3.08561 17.9989 3.55547 17.8043C4.02534 17.6096 4.42694 17.28 4.70949 16.8572C4.99205 16.4343 5.14286 15.9372 5.14286 15.4286C5.14064 14.9745 5.0139 14.5298 4.77643 14.1429L6.76929 12.1564C7.42129 12.6186 8.20078 12.8669 9 12.8669C9.79922 12.8669 10.5787 12.6186 11.2307 12.1564L13.2236 14.1429C12.9861 14.5298 12.8594 14.9745 12.8571 15.4286C12.8571 15.9372 13.008 16.4343 13.2905 16.8572C13.5731 17.28 13.9747 17.6096 14.4445 17.8043C14.9144 17.9989 15.4314 18.0498 15.9302 17.9506C16.429 17.8514 16.8872 17.6065 17.2468 17.2468C17.6065 16.8872 17.8514 16.429 17.9506 15.9302C18.0498 15.4314 17.9989 14.9144 17.8043 14.4445C17.6096 13.9747 17.28 13.5731 16.8572 13.2905C16.4343 13.008 15.9372 12.8571 15.4286 12.8571ZM15.4286 1.28572C15.6829 1.28572 15.9314 1.36112 16.1429 1.5024C16.3543 1.64367 16.5191 1.84447 16.6164 2.07941C16.7137 2.31434 16.7392 2.57286 16.6896 2.82226C16.64 3.07166 16.5175 3.30076 16.3377 3.48057C16.1579 3.66038 15.9288 3.78283 15.6794 3.83244C15.43 3.88205 15.1715 3.85659 14.9365 3.75927C14.7016 3.66196 14.5008 3.49717 14.3595 3.28573C14.2183 3.0743 14.1429 2.82572 14.1429 2.57143C14.1429 2.23044 14.2783 1.90341 14.5194 1.66229C14.7606 1.42117 15.0876 1.28572 15.4286 1.28572ZM1.28572 2.57143C1.28572 2.31714 1.36112 2.06856 1.5024 1.85713C1.64367 1.64569 1.84447 1.4809 2.07941 1.38358C2.31434 1.28627 2.57286 1.26081 2.82226 1.31042C3.07166 1.36003 3.30076 1.48248 3.48057 1.66229C3.66038 1.8421 3.78283 2.07119 3.83244 2.3206C3.88205 2.57 3.85659 2.82852 3.75927 3.06345C3.66196 3.29838 3.49717 3.49919 3.28573 3.64046C3.0743 3.78174 2.82572 3.85714 2.57143 3.85714C2.23044 3.85714 1.90341 3.72168 1.66229 3.48057C1.42117 3.23945 1.28572 2.91242 1.28572 2.57143ZM2.57143 16.7143C2.31714 16.7143 2.06856 16.6389 1.85713 16.4976C1.64569 16.3563 1.4809 16.1555 1.38358 15.9206C1.28627 15.6857 1.26081 15.4271 1.31042 15.1777C1.36003 14.9283 1.48248 14.6992 1.66229 14.5194C1.8421 14.3396 2.07119 14.2172 2.3206 14.1676C2.57 14.118 2.82852 14.1434 3.06345 14.2407C3.29838 14.338 3.49919 14.5028 3.64046 14.7143C3.78174 14.9257 3.85714 15.1743 3.85714 15.4286C3.85714 15.7696 3.72168 16.0966 3.48057 16.3377C3.23945 16.5788 2.91242 16.7143 2.57143 16.7143ZM9 11.5714C8.49142 11.5714 7.99426 11.4206 7.57139 11.1381C7.14852 10.8555 6.81894 10.4539 6.62431 9.98404C6.42968 9.51418 6.37876 8.99715 6.47798 8.49834C6.5772 7.99953 6.8221 7.54135 7.18173 7.18173C7.54135 6.8221 7.99953 6.5772 8.49834 6.47798C8.99715 6.37876 9.51418 6.42968 9.98404 6.62431C10.4539 6.81894 10.8555 7.14852 11.1381 7.57139C11.4206 7.99426 11.5714 8.49142 11.5714 9C11.5714 9.68199 11.3005 10.336 10.8183 10.8183C10.336 11.3005 9.68199 11.5714 9 11.5714ZM15.4286 16.7143C15.1743 16.7143 14.9257 16.6389 14.7143 16.4976C14.5028 16.3563 14.338 16.1555 14.2407 15.9206C14.1434 15.6857 14.118 15.4271 14.1676 15.1777C14.2172 14.9283 14.3396 14.6992 14.5194 14.5194C14.6992 14.3396 14.9283 14.2172 15.1777 14.1676C15.4271 14.118 15.6857 14.1434 15.9206 14.2407C16.1555 14.338 16.3563 14.5028 16.4976 14.7143C16.6389 14.9257 16.7143 15.1743 16.7143 15.4286C16.7143 15.7696 16.5788 16.0966 16.3377 16.3377C16.0966 16.5788 15.7696 16.7143 15.4286 16.7143Z" fill="#01052A"/>
</svg>
