<svg width="24" height="24" viewBox="0 0 24 24" fill="none" xmlns="http://www.w3.org/2000/svg">
<path d="M7.4305 4.11381L10.2873 5.71362L8.6875 2.85681L10.2873 0L7.4305 1.59981L4.57369 0L6.1735 2.85681L4.57369 5.71362L7.4305 4.11381ZM21.1432 15.3125L18.2864 13.7127L19.8862 16.5695L18.2864 19.4263L21.1432 17.8265L24 19.4263L22.4002 16.5695L24 13.7127L21.1432 15.3125ZM24 0L21.1432 1.59981L18.2864 0L19.8862 2.85681L18.2864 5.71362L21.1432 4.11381L24 5.71362L22.4002 2.85681L24 0ZM15.281 6.04501C15.1753 5.93908 15.0497 5.85503 14.9115 5.79769C14.7732 5.74034 14.6251 5.71083 14.4754 5.71083C14.3257 5.71083 14.1775 5.74034 14.0393 5.79769C13.9011 5.85503 13.7755 5.93908 13.6698 6.04501L0.334183 19.3806C0.228248 19.4863 0.144204 19.6119 0.0868602 19.7501C0.0295167 19.8884 0 20.0366 0 20.1862C0 20.3359 0.0295167 20.4841 0.0868602 20.6223C0.144204 20.7606 0.228248 20.8861 0.334183 20.9918L3.00816 23.6658C3.45382 24.1115 4.17374 24.1115 4.6194 23.6658L17.9436 10.3417C18.0495 10.2359 18.1335 10.1104 18.1909 9.97212C18.2482 9.83389 18.2777 9.68569 18.2777 9.53603C18.2777 9.38637 18.2482 9.23818 18.1909 9.09994C18.1335 8.9617 18.0495 8.83613 17.9436 8.73041L15.281 6.04501ZM14.104 12.3186L11.6814 9.89599L14.4697 7.10774L16.8923 9.53032L14.104 12.3186Z" fill="#01052A"/>
</svg>
