<svg width="25" height="24" viewBox="0 0 25 24" fill="none" xmlns="http://www.w3.org/2000/svg">
<path d="M7.9305 4.11381L10.7873 5.71362L9.1875 2.85681L10.7873 0L7.9305 1.59981L5.07369 0L6.6735 2.85681L5.07369 5.71362L7.9305 4.11381ZM21.6432 15.3125L18.7864 13.7127L20.3862 16.5695L18.7864 19.4263L21.6432 17.8265L24.5 19.4263L22.9002 16.5695L24.5 13.7127L21.6432 15.3125ZM24.5 0L21.6432 1.59981L18.7864 0L20.3862 2.85681L18.7864 5.71362L21.6432 4.11381L24.5 5.71362L22.9002 2.85681L24.5 0ZM15.781 6.04501C15.6753 5.93908 15.5497 5.85503 15.4115 5.79769C15.2732 5.74034 15.1251 5.71083 14.9754 5.71083C14.8257 5.71083 14.6775 5.74034 14.5393 5.79769C14.4011 5.85503 14.2755 5.93908 14.1698 6.04501L0.834183 19.3806C0.728248 19.4863 0.644204 19.6119 0.58686 19.7501C0.529517 19.8884 0.5 20.0366 0.5 20.1862C0.5 20.3359 0.529517 20.4841 0.58686 20.6223C0.644204 20.7606 0.728248 20.8861 0.834183 20.9918L3.50816 23.6658C3.95382 24.1115 4.67374 24.1115 5.1194 23.6658L18.4436 10.3417C18.5495 10.2359 18.6335 10.1104 18.6909 9.97212C18.7482 9.83389 18.7777 9.68569 18.7777 9.53603C18.7777 9.38637 18.7482 9.23818 18.6909 9.09994C18.6335 8.9617 18.5495 8.83613 18.4436 8.73041L15.781 6.04501ZM14.604 12.3186L12.1814 9.89599L14.9697 7.10774L17.3923 9.53032L14.604 12.3186Z" fill="#FCFCFC"/>
</svg>
