<svg width="19" height="18" viewBox="0 0 19 18" fill="none" xmlns="http://www.w3.org/2000/svg">
<path d="M9.37305 13.5C10.6105 13.5 11.623 14.5125 11.623 15.75C11.623 16.9875 10.6105 18 9.37305 18C8.13555 18 7.12305 16.9875 7.12305 15.75C7.12305 14.5125 8.13555 13.5 9.37305 13.5ZM12.748 6.75C13.9855 6.75 14.998 7.7625 14.998 9C14.998 10.2375 13.9855 11.25 12.748 11.25C11.5105 11.25 10.498 10.2375 10.498 9C10.498 7.7625 11.5105 6.75 12.748 6.75ZM2.62305 13.5C3.86055 13.5 4.87305 14.5125 4.87305 15.75C4.87305 16.9875 3.86055 18 2.62305 18C1.38555 18 0.373047 16.9875 0.373047 15.75C0.373047 14.5125 1.38555 13.5 2.62305 13.5ZM5.99805 6.75C7.23555 6.75 8.24805 7.7625 8.24805 9C8.24805 10.2375 7.23555 11.25 5.99805 11.25C4.76055 11.25 3.74805 10.2375 3.74805 9C3.74805 7.7625 4.76055 6.75 5.99805 6.75ZM9.37305 0C10.6105 0 11.623 1.0125 11.623 2.25C11.623 3.4875 10.6105 4.5 9.37305 4.5C8.13555 4.5 7.12305 3.4875 7.12305 2.25C7.12305 1.0125 8.13555 0 9.37305 0ZM16.123 13.5C17.3605 13.5 18.373 14.5125 18.373 15.75C18.373 16.9875 17.3605 18 16.123 18C14.8855 18 13.873 16.9875 13.873 15.75C13.873 14.5125 14.8855 13.5 16.123 13.5Z" fill="#01052A"/>
</svg>
