<svg width="20" height="20" viewBox="0 0 20 20" fill="none" xmlns="http://www.w3.org/2000/svg">
<path d="M1 9.27264V15.8181C1 17.6263 5.03 19.0908 10 19.0908C14.97 19.0908 19 17.6263 19 15.8181V9.27264M1 9.27264V3.54537M1 9.27264C1 11.0808 5.03 12.5454 10 12.5454C14.97 12.5454 19 11.0808 19 9.27264M19 9.27264V3.54537M1 3.54537C1 3.54537 2 1.09082 10 1.09082C18 1.09082 19 3.54537 19 3.54537M1 3.54537C1 5.35355 5.03 6.81809 10 6.81809C14.97 6.81809 19 5.35355 19 3.54537M14 15.409H14.01V15.4172H14V15.409ZM14.5 15.409C14.5 15.5175 14.4473 15.6216 14.3536 15.6983C14.2598 15.775 14.1326 15.8181 14 15.8181C13.8674 15.8181 13.7402 15.775 13.6464 15.6983C13.5527 15.6216 13.5 15.5175 13.5 15.409C13.5 15.3005 13.5527 15.1965 13.6464 15.1197C13.7402 15.043 13.8674 14.9999 14 14.9999C14.1326 14.9999 14.2598 15.043 14.3536 15.1197C14.4473 15.1965 14.5 15.3005 14.5 15.409ZM14 9.27264H14.01V9.28082H14V9.27264ZM14.5 9.27264C14.5 9.38114 14.4473 9.48519 14.3536 9.56191C14.2598 9.63863 14.1326 9.68173 14 9.68173C13.8674 9.68173 13.7402 9.63863 13.6464 9.56191C13.5527 9.48519 13.5 9.38114 13.5 9.27264C13.5 9.16414 13.5527 9.06009 13.6464 8.98337C13.7402 8.90665 13.8674 8.86355 14 8.86355C14.1326 8.86355 14.2598 8.90665 14.3536 8.98337C14.4473 9.06009 14.5 9.16414 14.5 9.27264Z" stroke="#01052A" stroke-width="1.25" stroke-linecap="round"/>
</svg>
