<svg width="18" height="18" viewBox="0 0 18 18" fill="none" xmlns="http://www.w3.org/2000/svg">
<path fill-rule="evenodd" clip-rule="evenodd" d="M6.10007 4.74121C6.10283 4.74382 6.10531 4.74624 6.10749 4.74846H4.20135C3.28625 4.74846 2.25661 5.18666 1.46976 5.80805C0.694103 6.41986 0.0168079 7.32081 0.00311257 8.35586H0L0.0292581 8.97246C0.126993 11.0258 0.911983 13.0935 2.21989 14.7308L0.943109 15.7024C0.220992 16.2358 0.612554 17.3486 1.52454 17.3486H3.62988C3.97787 17.3486 4.41923 17.2493 4.72239 17.1708C4.84005 17.1409 4.94837 17.1104 5.03863 17.084C6.35189 17.7749 7.84487 18.0859 9.33771 17.9796C10.8566 17.8784 12.1702 17.6348 13.2857 17.2235C13.3442 17.2475 13.4069 17.2622 13.4737 17.2678C14.2188 17.3277 14.8046 17.3277 15.7067 17.3265H16.0839C16.3522 17.3265 16.6305 17.2852 16.8645 17.1487C17.1303 16.9936 17.2866 16.744 17.3096 16.4644C17.3302 16.2196 17.2461 16.0053 17.1615 15.855C17.0736 15.702 16.9605 15.5637 16.8266 15.4456C16.6791 15.3195 16.5269 15.1987 16.3703 15.0834C16.4674 14.9613 16.5599 14.8349 16.6479 14.7044C17.6041 13.2899 18 11.4556 18 9.22629V9.2203C17.9751 6.61442 16.9853 4.58443 15.0119 3.07825C15.2174 2.66459 15.312 2.20304 15.3344 1.80375C15.3501 1.55913 15.3357 1.31358 15.2914 1.07221C15.2516 0.866277 15.1732 0.608862 14.9995 0.410113C14.8725 0.264045 14.677 0.0772694 14.3626 0.018004C14.0981 -0.0316831 13.8372 0.0317727 13.6449 0.0838543C13.4935 0.128363 13.3517 0.198951 13.2266 0.292181C13.1145 0.372399 13.0087 0.467583 12.9122 0.563964C12.7125 0.768556 12.528 0.9864 12.36 1.21588C12.1596 1.48527 12.0295 1.75885 11.9815 2.07074C11.9663 2.16961 11.9596 2.26953 11.9616 2.36946C11.4406 2.41735 10.8672 2.65801 10.3835 3.23989L10.1395 3.53023C10.0262 3.66372 9.92039 3.78884 9.83946 3.89001C9.76741 3.97734 9.70049 4.06848 9.63901 4.16299C9.60544 4.21522 9.57609 4.26986 9.55124 4.32642C9.52758 4.38269 9.48898 4.48566 9.48898 4.61376C9.48898 4.72751 9.50828 4.82928 9.54065 4.92027C9.13052 4.80628 8.70573 4.74845 8.27882 4.74846H6.24195C6.26217 4.74486 6.27136 4.74323 6.2713 4.74275C6.27125 4.74236 6.26479 4.74277 6.25294 4.74352C6.22687 4.74516 6.17472 4.74846 6.10749 4.74846C6.10966 4.74624 6.11238 4.74382 6.1156 4.74121H6.10007ZM15.6447 16.1298H15.7073L15.7384 16.1292C15.236 15.7437 14.1821 14.9972 13.046 14.2339C12.9106 14.1429 12.8184 14.004 12.7896 13.8476C12.7607 13.6912 12.7977 13.5302 12.8923 13.4C12.9869 13.2698 13.1314 13.1811 13.294 13.1534C13.3745 13.1396 13.4571 13.1413 13.5369 13.1582C13.6168 13.1752 13.6924 13.2071 13.7594 13.2521C14.3024 13.6169 14.8411 13.9874 15.3755 14.3638C15.4556 14.264 15.5317 14.1603 15.6039 14.0525C16.3759 12.9109 16.755 11.3401 16.755 9.22928C16.7313 6.85687 15.8181 5.1244 13.9954 3.83733L13.9505 3.8056L13.9119 3.76669L13.9051 3.7601C13.8584 3.71341 13.709 3.56375 13.658 3.34584C13.592 3.06448 13.7134 2.84059 13.7987 2.71727C13.9674 2.47183 14.0707 2.10426 14.0912 1.73969C14.1012 1.5625 14.09 1.40745 14.0676 1.29191C14.0622 1.26238 14.0564 1.23803 14.0501 1.21888L14.0028 1.23085L13.973 1.2506C13.9315 1.27974 13.8767 1.32823 13.8086 1.39607C13.6717 1.53197 13.5198 1.71515 13.3729 1.9127C13.2602 2.06416 13.2266 2.16114 13.2141 2.24495C13.1998 2.33773 13.2041 2.46165 13.2452 2.68195C13.2795 2.78635 13.2894 2.8967 13.2745 3.00522C13.2551 3.15246 13.1837 3.28882 13.0722 3.39139C12.9606 3.49397 12.8158 3.55652 12.6619 3.56854C12.5935 3.57453 12.525 3.57033 12.5001 3.56854H12.4951L12.4777 3.56734L12.4642 3.56657C12.4018 3.56295 12.3123 3.55776 12.1639 3.55776C11.9535 3.55776 11.656 3.62721 11.3565 3.98759L11.087 4.30846L10.9133 4.51379C11.2376 4.57126 11.4624 4.57785 11.651 4.54193C11.8751 4.49942 12.1179 4.38269 12.4528 4.06062C12.5265 3.98781 12.6146 3.92983 12.7118 3.89005C12.8091 3.85028 12.9136 3.82951 13.0193 3.82895C13.1952 3.8331 13.3663 3.88498 13.5129 3.97861L13.5833 4.02111L13.6393 4.08038C15.0319 5.55004 15.5056 7.79314 15.1732 9.66868C15.0785 10.2051 14.8009 10.6265 14.3795 10.8731C13.9698 11.1126 13.4967 11.1437 13.0809 11.0479C12.2691 10.8594 11.4947 10.1308 11.5595 9.08321C11.5539 8.24981 11.2059 7.45234 10.5913 6.8647C9.97672 6.27707 9.14547 5.94695 8.27882 5.94634H4.20135C3.65416 5.94634 2.89469 6.23249 2.25973 6.73415C1.64095 7.22204 1.27117 7.80751 1.24876 8.3385C2.47761 8.32294 5.1594 8.2972 6.09068 8.34808C6.81591 8.38759 7.7833 8.70068 8.59007 9.23646C9.39685 9.77225 10.1513 10.6091 10.2173 11.737L10.2279 11.9046C10.269 12.6206 10.302 13.1677 10.3773 13.6227C10.4514 14.0699 10.5603 14.3806 10.7272 14.6272C11.0571 15.1157 11.7257 15.5252 13.4438 16.0125L13.6966 16.0843C14.3147 16.1299 14.8256 16.1298 15.6447 16.1298H15.6447ZM2.35995 16.152H3.62428C3.42175 15.9875 3.22711 15.8149 3.04036 15.6341L2.35995 16.152ZM12.3755 7.25073C12.6582 7.82948 12.8047 8.46111 12.8045 9.10057V9.12152L12.8026 9.14248C12.7752 9.52621 13.0454 9.80697 13.3729 9.883C13.5297 9.91951 13.6536 9.89557 13.7327 9.84947C13.7993 9.81056 13.902 9.71717 13.9462 9.46694C14.2027 8.01643 13.8715 6.35341 12.99 5.20462C12.6501 5.46623 12.2947 5.63924 11.8919 5.71586C11.6522 5.76136 11.4113 5.76914 11.1685 5.75238C11.6806 6.16036 12.0927 6.67198 12.3755 7.25073ZM1.32533 9.53459C1.80467 13.5078 5.04299 17.0655 9.25181 16.7853C9.93692 16.7435 10.6184 16.6581 11.2918 16.5297C10.5628 16.1957 10.038 15.8047 9.68321 15.2785C9.38627 14.8385 9.23687 14.3471 9.14785 13.8107C9.06148 13.294 9.02647 12.692 8.98707 12.0147L8.98599 11.9962L8.97479 11.8034C8.93868 11.1886 8.52098 10.6457 7.88228 10.2212C7.24233 9.79619 6.49158 9.56871 6.02034 9.54297C5.14633 9.49508 2.57036 9.51902 1.32533 9.53459ZM8.60566 8.07151C8.50549 7.97519 8.44922 7.84454 8.44922 7.70832V7.06418C8.4502 6.92825 8.50678 6.79815 8.60674 6.70203C8.70669 6.60591 8.84198 6.55149 8.98334 6.55055C9.12469 6.55149 9.25998 6.60591 9.35993 6.70203C9.45989 6.79815 9.51647 6.92825 9.51745 7.06418V7.70832C9.51745 7.84454 9.46118 7.97519 9.36101 8.07151C9.26085 8.16784 9.12499 8.22195 8.98334 8.22195C8.84168 8.22195 8.70582 8.16784 8.60566 8.07151Z" fill="#01052A"/>
</svg>
