<svg width="20" height="16" viewBox="0 0 20 16" fill="none" xmlns="http://www.w3.org/2000/svg">
<path d="M4.14453 11.8198C8.63812 14.0666 11.3343 14.0666 15.8279 11.8198" stroke="#01052A" stroke-width="1.25" stroke-linecap="round" stroke-linejoin="round"/>
<path d="M13.1338 13.1678L14.0325 14.9653C14.0325 14.9653 17.7811 13.7718 18.9755 11.8198C18.9755 10.9211 19.4518 4.49792 16.2793 2.38323C14.9312 1.48452 12.6844 1.03516 12.6844 1.03516L11.7857 2.83259H9.98828" stroke="#01052A" stroke-width="1.25" stroke-linecap="round" stroke-linejoin="round"/>
<path d="M6.86707 13.1678L5.96835 14.9653C5.96835 14.9653 2.2198 13.7718 1.0254 11.8198C1.0254 10.9211 0.549082 4.49792 3.72156 2.38323C5.06963 1.48452 7.31643 1.03516 7.31643 1.03516L8.21515 2.83259H10.0126" stroke="#01052A" stroke-width="1.25" stroke-linecap="round" stroke-linejoin="round"/>
<path d="M6.84026 10.0221C6.09613 10.0221 5.49219 9.21777 5.49219 8.22468C5.49219 7.2316 6.09613 6.42725 6.84026 6.42725C7.5844 6.42725 8.18834 7.2316 8.18834 8.22468C8.18834 9.21777 7.5844 10.0221 6.84026 10.0221ZM13.1313 10.0221C12.3872 10.0221 11.7832 9.21777 11.7832 8.22468C11.7832 7.2316 12.3872 6.42725 13.1313 6.42725C13.8754 6.42725 14.4794 7.2316 14.4794 8.22468C14.4794 9.21777 13.8754 10.0221 13.1313 10.0221Z" fill="#01052A"/>
</svg>
