<svg width="18" height="20" viewBox="0 0 18 20" fill="none" xmlns="http://www.w3.org/2000/svg">
<path d="M16.5 7.14286H10.5V1.42857H1.5V18.5714H16.5V7.14286ZM15.879 5.71429L12 2.02V5.71429H15.879ZM0.75 0H12L18 5.71429V19.2857C18 19.4752 17.921 19.6568 17.7803 19.7908C17.6397 19.9247 17.4489 20 17.25 20H0.75C0.551088 20 0.360322 19.9247 0.21967 19.7908C0.0790178 19.6568 0 19.4752 0 19.2857V0.714286C0 0.524845 0.0790178 0.343164 0.21967 0.209209C0.360322 0.0752549 0.551088 0 0.75 0ZM4.5 10H13.5V11.4286H4.5V10ZM4.5 5.71429H8.25V7.14286H4.5V5.71429ZM4.5 14.2857H13.5V15.7143H4.5V14.2857Z" fill="#01052A"/>
</svg>
