<svg width="18" height="18" viewBox="0 0 18 18" fill="none" xmlns="http://www.w3.org/2000/svg">
<path d="M9 0C13.9706 0 18 4.02944 18 9C18 13.9706 13.9706 18 9 18C4.02944 18 0 13.9706 0 9C0 4.02944 4.02944 0 9 0ZM5.43359 6.12695V9.07617C5.42757 7.92434 4.68259 7.39258 3.66992 7.39258C2.38984 7.39267 1.80078 8.08646 1.80078 9.13867C1.8008 10.0925 2.3707 10.8045 3.65625 10.792C4.36417 10.792 5.18609 10.5308 5.33008 9.75684H4.58594C4.45815 10.1348 4.07626 10.3154 3.64551 10.3154C3.0247 10.3154 2.57329 9.92821 2.53418 9.27148H5.43164V9.90137C5.43163 10.1353 5.41922 10.4145 5.40723 10.6484H6.11523C6.13022 10.5046 6.13964 10.3519 6.13965 10.208C6.44316 10.5767 6.9373 10.7655 7.45898 10.7656C8.30291 10.7656 8.939 10.2619 9.11914 9.51465C9.10522 9.58683 9.09847 9.66758 9.09766 9.75684C9.09766 10.3057 9.57224 10.7743 10.46 10.7744C11.0599 10.7744 11.4908 10.6386 11.8525 10.1982C11.8534 10.3516 11.8623 10.5049 11.8799 10.6572H12.5479C12.5299 10.4682 12.5244 10.2613 12.5244 10.0537V8.57812C12.5244 8.35334 12.4822 8.1734 12.4043 8.02051L13.8018 10.6484L13.1602 11.8721H13.9678L16.1992 7.48926H15.4531L14.2207 9.96484L12.9873 7.49023H12.1416L12.4033 7.99414C12.1513 7.54419 11.5924 7.38184 10.9541 7.38184C10.2428 7.38193 9.42456 7.58007 9.34277 8.35352H10.1084C10.1446 8.0479 10.4591 7.86827 10.8906 7.86816C11.475 7.86816 11.8086 8.08333 11.8086 8.61426V8.69531C11.5297 8.69531 11.1789 8.69526 10.873 8.70605C9.89995 8.72945 9.27973 8.94096 9.13574 9.5127C9.16274 9.38611 9.17188 9.25111 9.17188 9.11133C9.17172 7.94106 8.27845 7.39844 7.47461 7.39844C6.99484 7.3985 6.50816 7.52087 6.1543 7.94238V6.12695H5.43359ZM11.7979 9.25195C11.7979 9.92625 11.3926 10.3398 10.6367 10.3398C10.0701 10.3398 9.85374 10.0376 9.85352 9.75879C9.85352 9.32864 10.2591 9.20887 10.916 9.18848L10.9141 9.1875H10.9072C11.2036 9.1779 11.5279 9.17383 11.7979 9.17383V9.25195ZM7.26953 7.88965C7.94446 7.88965 8.40527 8.37324 8.40527 9.10156C8.40522 9.82971 7.94601 10.3133 7.28027 10.3135H7.26074C6.59488 10.3135 6.1358 9.82979 6.13574 9.10156C6.13574 8.37334 6.60374 7.88977 7.26953 7.88965ZM3.63574 7.87793C4.15805 7.87805 4.64336 8.13021 4.66992 8.80469H2.54688C2.61961 8.16185 3.06952 7.87793 3.63574 7.87793Z" fill="#01052A"/>
</svg>
