<svg width="18" height="20" viewBox="0 0 18 20" fill="none" xmlns="http://www.w3.org/2000/svg">
<path d="M11.65 9.63C11.65 9.63 11.84 8.35 12.56 8.35C13.32 8.35 14.34 10.06 14.34 10.06C14.34 10.06 12.02 9.63 11.65 9.63ZM15.56 2.69C15.2 2.09 13.39 1.41 12.45 1.41H10.06C10.06 1.41 9.26 0 7.44 0C5.61 0 5.73 0.81 5.73 1.5V4.32L4.9 5.19H1.06C1.06 5.19 0 5.91 0 7.44C0 9 0.48 14.35 3.69 14.85C7.49 15.43 8.14 13.67 8.14 13.46C8.14 12.56 8.16 11.21 8.16 11.21C8.16 11.21 9.27 13.33 10.95 13.33C12.63 13.33 13.6 14.3 13.6 15.29V17.13C13.6 17.13 13.56 18.28 12.56 18.28H10.45C10.45 18.28 9.76 17.74 9.76 17C9.76 16.25 10.09 16.05 10.49 16.05C10.88 16.05 11.21 16.09 11.21 16.09V14.53C11.21 14.53 8.03 14.5 8.03 16.94C8.03 19.37 9.69 20 11.02 20H13.19C13.19 20 17.12 19.5 17.12 11.75C17.12 4 15.89 3.28 15.56 2.69ZM4.06 4.31H0.82L4.88 0.22V3.5L4.06 4.31Z" fill="#01052A"/>
</svg>
