<svg width="14" height="20" viewBox="0 0 14 20" fill="none" xmlns="http://www.w3.org/2000/svg">
<path d="M4.0003 7.0006C3.20457 7.0006 2.44143 6.6845 1.87877 6.12183C1.3161 5.55917 1 4.79603 1 4.0003C1 3.20457 1.3161 2.44143 1.87877 1.87877C2.44143 1.3161 3.20457 1 4.0003 1H7.00015V7.0006M4.0003 7.0006H7.00015M4.0003 7.0006C3.20469 7.0006 2.44167 7.31665 1.87909 7.87923C1.3165 8.44182 1.00045 9.20484 1.00045 10.0004C1.00045 10.7961 1.3165 11.5591 1.87909 12.1217C2.44167 12.6842 3.20469 13.0003 4.0003 13.0003H7.00015V7.0006" stroke="#01052A" stroke-width="1.5"/>
<path d="M13.0003 10.0003C13.0003 10.796 12.6842 11.5592 12.1215 12.1218C11.5589 12.6845 10.7957 13.0006 10 13.0006C9.20427 13.0006 8.44113 12.6845 7.87847 12.1218C7.3158 11.5592 6.9997 10.796 6.9997 10.0003C6.9997 9.20457 7.3158 8.44143 7.87847 7.87877C8.44113 7.3161 9.20427 7 10 7C10.7957 7 11.5589 7.3161 12.1215 7.87877C12.6842 8.44143 13.0003 9.20457 13.0003 10.0003ZM3.99985 13.001H6.9997V16.0009C6.99952 16.5942 6.82343 17.1741 6.4937 17.6673C6.16396 18.1605 5.69539 18.5448 5.14722 18.7718C4.59905 18.9987 3.99591 19.0579 3.41406 18.9421C2.8322 18.8262 2.29777 18.5405 1.87832 18.1209C1.45887 17.7013 1.17325 17.1668 1.05758 16.5849C0.9419 16.003 1.00136 15.3999 1.22844 14.8518C1.45552 14.3037 1.84001 13.8352 2.33332 13.5057C2.82662 13.1761 3.40657 13.001 3.99985 13.001Z" stroke="#01052A" stroke-width="1.5"/>
<path d="M7 1H9.99985C10.7956 1 11.5587 1.3161 12.1214 1.87877C12.684 2.44143 13.0001 3.20457 13.0001 4.0003C13.0001 4.79603 12.684 5.55917 12.1214 6.12183C11.5587 6.6845 10.7956 7.0006 9.99985 7.0006H7V1Z" stroke="#01052A" stroke-width="1.5"/>
</svg>
