<svg width="18" height="18" viewBox="0 0 18 18" fill="none" xmlns="http://www.w3.org/2000/svg">
<path d="M7.20056 9.81868V10.6367H9.89988V13.0908H8.10033V13.9097H7.20056V13.0916H6.30078V12.2736H9.00011V11.4556H6.30078V9.00065H8.10033V8.18262H9.00011V9.00065H9.89988V9.81868H7.20056Z" fill="#01052A"/>
<path d="M15.2998 9.00082V7.36475H14.4V6.54508H13.5002V5.72705H12.6005V4.90902H3.5991V5.72705H2.69933V6.54508H1.79955V7.36312H0.899775V8.99918H0V13.909H0.899775V15.5451H1.79955V16.3631H2.69933V17.1811H3.5991V18H12.5996V17.182H13.4993V16.3639H14.3991V15.5459H15.2989V13.909H16.1996V9L15.2998 9.00082ZM6.30023 7.36475V6.54508H9.89933V7.36312H11.6998V8.99918H12.5996V13.091H11.6998V14.7271H9.90023V15.5451H6.30023V14.7271H4.50067V13.091H3.5991V9H4.49888V7.36393L6.30023 7.36475ZM14.4 4.09098H13.5002V4.90902H14.4V4.09098ZM16.1996 4.90902H14.4V5.72705H16.1996V4.90902ZM17.0993 5.72705H16.1996V6.54508H17.0993V5.72705ZM18 3.27295V5.72705H17.0993L17.1002 4.09098H16.1996V3.27295H18ZM16.1996 2.4541H13.5002V3.27213L16.1996 3.27295V2.4541ZM13.4993 3.27295H12.5996V4.09098H13.5002L13.4993 3.27295ZM11.6998 3.27295H4.49888V4.09098H11.6989L11.6998 3.27295ZM13.5002 0V0.818033H12.6005V1.63607H11.6998V2.4541H4.49978V1.63607H3.6V0.818033H2.70022V0H4.49978V0.818033H7.1991V0H8.99955V0.818033H11.6998V0H13.5002Z" fill="#01052A"/>
</svg>
