<svg width="14" height="18" viewBox="0 0 14 18" fill="none" xmlns="http://www.w3.org/2000/svg">
<path d="M12.6723 8.20049C12.4423 7.90049 12.1623 7.64049 11.9023 7.38049C11.2323 6.78049 10.4723 6.35049 9.83226 5.72049C8.34226 4.26049 8.01226 1.85049 8.96226 0.000488281C8.01226 0.230488 7.18226 0.750488 6.47226 1.32049C3.88226 3.40049 2.86226 7.07049 4.08226 10.2205C4.12226 10.3205 4.16226 10.4205 4.16226 10.5505C4.16226 10.7705 4.01226 10.9705 3.81226 11.0505C3.58226 11.1505 3.34226 11.0905 3.15226 10.9305C3.0955 10.8829 3.04803 10.8253 3.01226 10.7605C1.88226 9.33049 1.70226 7.28049 2.46226 5.64049C0.792256 7.00049 -0.117743 9.30049 0.0122567 11.4705C0.0722567 11.9705 0.132257 12.4705 0.302257 12.9705C0.442257 13.5705 0.712257 14.1705 1.01226 14.7005C2.09226 16.4305 3.96226 17.6705 5.97226 17.9205C8.11226 18.1905 10.4023 17.8005 12.0423 16.3205C13.8723 14.6605 14.5123 12.0005 13.5723 9.72049L13.4423 9.46049C13.2323 9.00049 12.6723 8.20049 12.6723 8.20049ZM9.51226 14.5005C9.23226 14.7405 8.77226 15.0005 8.41226 15.1005C7.29226 15.5005 6.17226 14.9405 5.51226 14.2805C6.70226 14.0005 7.41226 13.1205 7.62226 12.2305C7.79226 11.4305 7.47226 10.7705 7.34226 10.0005C7.22226 9.26049 7.24226 8.63049 7.51226 7.94049C7.70226 8.32049 7.90226 8.70049 8.14226 9.00049C8.91226 10.0005 10.1223 10.4405 10.3823 11.8005C10.4223 11.9405 10.4423 12.0805 10.4423 12.2305C10.4723 13.0505 10.1123 13.9505 9.51226 14.5005Z" fill="#01052A"/>
</svg>
