<svg width="20" height="20" viewBox="0 0 20 20" fill="none" xmlns="http://www.w3.org/2000/svg">
<path d="M8 3C8 4.10457 8.89543 5 10 5C11.1046 5 12 4.10457 12 3C12 1.89543 11.1046 1 10 1C8.89543 1 8 1.89543 8 3Z" stroke="#01052A" stroke-width="1.25"/>
<path d="M15 17C15 18.1046 15.8954 19 17 19C18.1046 19 19 18.1046 19 17C19 15.8954 18.1046 15 17 15C15.8954 15 15 15.8954 15 17Z" stroke="#01052A" stroke-width="1.25"/>
<path d="M8 17C8 18.1046 8.89543 19 10 19C11.1046 19 12 18.1046 12 17C12 15.8954 11.1046 15 10 15C8.89543 15 8 15.8954 8 17Z" stroke="#01052A" stroke-width="1.25"/>
<path d="M1 17C1 18.1046 1.89543 19 3 19C4.10457 19 5 18.1046 5 17C5 15.8954 4.10457 15 3 15C1.89543 15 1 15.8954 1 17Z" stroke="#01052A" stroke-width="1.25"/>
<path d="M3 15V9H17V15M10 5V15" stroke="#01052A" stroke-width="1.25" stroke-linecap="round" stroke-linejoin="round"/>
</svg>
