<svg width="18" height="18" viewBox="0 0 18 18" fill="none" xmlns="http://www.w3.org/2000/svg">
<path d="M16.0714 12.9435V9.64226C16.0714 9.30158 15.936 8.97486 15.6948 8.73397C15.4537 8.49307 15.1267 8.35774 14.7857 8.35774H9.64286V5.05651C10.2489 4.90019 10.777 4.52843 11.1282 4.01091C11.4795 3.49339 11.6298 2.86564 11.5509 2.24534C11.4721 1.62503 11.1695 1.05475 10.6999 0.641402C10.2303 0.228049 9.62587 0 9 0C8.37413 0 7.76975 0.228049 7.30014 0.641402C6.83053 1.05475 6.52793 1.62503 6.44907 2.24534C6.37021 2.86564 6.52049 3.49339 6.87176 4.01091C7.22302 4.52843 7.75115 4.90019 8.35714 5.05651V8.35774H3.21429C2.8733 8.35774 2.54627 8.49307 2.30515 8.73397C2.06403 8.97486 1.92858 9.30158 1.92858 9.64226V12.9435C1.32258 13.0998 0.794455 13.4716 0.44319 13.9891C0.0919257 14.5066 -0.0583608 15.1344 0.0205013 15.7547C0.0993634 16.375 0.40196 16.9452 0.87157 17.3586C1.34118 17.7719 1.94556 18 2.57143 18C3.1973 18 3.80169 17.7719 4.2713 17.3586C4.74091 16.9452 5.0435 16.375 5.12236 15.7547C5.20123 15.1344 5.05094 14.5066 4.69968 13.9891C4.34841 13.4716 3.82028 13.0998 3.21429 12.9435V9.64226H14.7857V12.9435C14.1797 13.0998 13.6516 13.4716 13.3003 13.9891C12.9491 14.5066 12.7988 15.1344 12.8776 15.7547C12.9565 16.375 13.2591 16.9452 13.7287 17.3586C14.1983 17.7719 14.8027 18 15.4286 18C16.0544 18 16.6588 17.7719 17.1284 17.3586C17.598 16.9452 17.9006 16.375 17.9795 15.7547C18.0584 15.1344 17.9081 14.5066 17.5568 13.9891C17.2055 13.4716 16.6774 13.0998 16.0714 12.9435ZM3.85715 15.4226C3.85715 15.6767 3.78174 15.925 3.64046 16.1363C3.49919 16.3475 3.29839 16.5121 3.06345 16.6094C2.82852 16.7066 2.57001 16.732 2.3206 16.6825C2.0712 16.6329 1.84211 16.5106 1.6623 16.3309C1.48249 16.1513 1.36003 15.9224 1.31042 15.6732C1.26081 15.424 1.28628 15.1658 1.38359 14.931C1.4809 14.6963 1.64569 14.4957 1.85713 14.3546C2.06856 14.2134 2.31714 14.1381 2.57143 14.1381C2.91243 14.1381 3.23945 14.2734 3.48057 14.5143C3.72169 14.7552 3.85715 15.0819 3.85715 15.4226ZM7.71429 2.57738C7.71429 2.32333 7.78969 2.07498 7.93097 1.86374C8.07224 1.6525 8.27305 1.48786 8.50798 1.39064C8.74291 1.29342 9.00143 1.26798 9.25083 1.31754C9.50023 1.36711 9.72933 1.48945 9.90914 1.66909C10.0889 1.84873 10.2114 2.07761 10.261 2.32679C10.3106 2.57596 10.2852 2.83423 10.1878 3.06895C10.0905 3.30367 9.92574 3.50428 9.7143 3.64543C9.50287 3.78657 9.25429 3.86191 9 3.86191C8.65901 3.86191 8.33198 3.72657 8.09086 3.48568C7.84975 3.24478 7.71429 2.91806 7.71429 2.57738ZM15.4286 16.7071C15.1743 16.7071 14.9257 16.6318 14.7143 16.4907C14.5028 16.3495 14.338 16.1489 14.2407 15.9142C14.1434 15.6795 14.1179 15.4212 14.1676 15.172C14.2172 14.9228 14.3396 14.694 14.5194 14.5143C14.6992 14.3347 14.9283 14.2123 15.1777 14.1628C15.4271 14.1132 15.6857 14.1386 15.9206 14.2359C16.1555 14.3331 16.3563 14.4977 16.4976 14.709C16.6389 14.9202 16.7143 15.1686 16.7143 15.4226C16.7143 15.7633 16.5788 16.09 16.3377 16.3309C16.0966 16.5718 15.7696 16.7071 15.4286 16.7071Z" fill="#01052A"/>
</svg>
