<svg width="19" height="16" viewBox="0 0 19 16" fill="none" xmlns="http://www.w3.org/2000/svg">
<path d="M2.20039 15.1998C1.70539 15.1998 1.28179 15.0237 0.929591 14.6715C0.577391 14.3193 0.400991 13.8954 0.400391 13.3998V2.5998C0.400391 2.1048 0.576791 1.6812 0.929591 1.329C1.28239 0.976805 1.70599 0.800405 2.20039 0.799805H7.60039L9.40039 2.5998H16.6004C17.0954 2.5998 17.5193 2.7762 17.8721 3.129C18.2249 3.4818 18.401 3.9054 18.4004 4.3998V13.3998C18.4004 13.8948 18.2243 14.3187 17.8721 14.6715C17.5199 15.0243 17.096 15.2004 16.6004 15.1998H2.20039ZM2.20039 13.3998H16.6004V4.3998H8.65789L6.85789 2.5998H2.20039V13.3998Z" fill="#01052A"/>
</svg>
