<svg width="17" height="18" viewBox="0 0 17 18" fill="none" xmlns="http://www.w3.org/2000/svg">
<path d="M6.35327 14.6669C6.53652 14.6144 6.68938 14.4976 6.77821 14.3422C6.86704 14.1869 6.88457 14.0057 6.82694 13.8386C6.76932 13.6715 6.64125 13.5321 6.47093 13.451C6.3006 13.37 6.10196 13.354 5.91871 13.4066L6.35327 14.6669ZM1.06902 10.7565L0.367928 10.5874L0 11.8662L0.701091 12.034L1.06902 10.7565ZM11.2059 17.3395V18H12.6544V17.3395H11.2059ZM11.2971 10.9824L11.2189 10.3245C11.0828 10.3378 10.9536 10.386 10.8463 10.4636C10.739 10.5411 10.658 10.6448 10.6126 10.7626C10.5673 10.8804 10.5595 11.0075 10.5902 11.1292C10.6208 11.2508 10.6886 11.3621 10.7858 11.4501L11.2971 10.9824ZM16.2757 5.99401H17V5.99268L16.2757 5.99401ZM15.0691 3.34391L14.3941 3.10612C14.3436 3.22523 14.3321 3.35513 14.3609 3.4801C14.3896 3.60507 14.4575 3.71975 14.5563 3.81026L15.0691 3.34391ZM14.9967 0.679291L15.6572 0.409791C15.614 0.321979 15.5502 0.243847 15.4704 0.180864C15.3906 0.117881 15.2966 0.07157 15.1951 0.0451719L14.9967 0.679291ZM11.849 1.72559L11.6665 2.36499C11.7638 2.38816 11.8653 2.39261 11.9645 2.37805C12.0638 2.3635 12.1586 2.33026 12.243 2.28044L11.849 1.72559ZM6.21711 1.72559L5.82311 2.28044C5.90751 2.33026 6.00235 2.3635 6.10161 2.37805C6.20087 2.39261 6.30236 2.38816 6.39963 2.36499L6.21711 1.72559ZM3.06944 0.680612L2.871 0.0464929C2.76923 0.0727209 2.675 0.118955 2.59492 0.181946C2.51484 0.244938 2.45086 0.323158 2.40746 0.411112L3.06944 0.680612ZM2.99702 3.34524L3.5098 3.81158C3.60886 3.72096 3.67692 3.60605 3.70573 3.48081C3.73453 3.35557 3.72282 3.2254 3.67203 3.10612L2.99702 3.34524ZM1.79039 6.01778H2.51466V6.01514L1.79039 6.01778ZM6.77045 10.9824L7.28033 11.4514C7.37682 11.3639 7.44433 11.2534 7.47513 11.1325C7.50593 11.0116 7.49877 10.8853 7.45447 10.768C7.41018 10.6506 7.33054 10.547 7.22467 10.4691C7.11881 10.3911 6.99101 10.3419 6.85591 10.3272L6.77045 10.9824ZM6.13599 12.7157H6.86026L6.85881 12.6668L6.13599 12.7157ZM5.41172 17.3395V18H6.86026V17.3395H5.41172ZM5.91871 13.4066C5.04525 13.6576 4.49046 13.6299 4.12253 13.5189C3.75895 13.4092 3.47938 13.1886 3.2114 12.8716C3.0717 12.7004 2.94118 12.5232 2.8203 12.3405C2.69717 12.1569 2.55666 11.9415 2.41471 11.75C2.13804 11.3787 1.72955 10.9137 1.06902 10.7552L0.701091 12.034C0.816973 12.0604 0.967621 12.1595 1.21532 12.4911C1.3341 12.6523 1.44709 12.824 1.58904 13.0354C1.7252 13.2362 1.88165 13.4581 2.06271 13.6748C2.42919 14.1107 2.92894 14.5507 3.67059 14.7739C4.40934 14.9959 5.28715 14.9721 6.35327 14.6669L5.91871 13.4066ZM12.6544 12.6338C12.6544 12.2137 12.6341 11.8305 12.5037 11.4739C12.3647 11.0934 12.1242 10.8001 11.807 10.5134L10.7858 11.4514C11.0103 11.6535 11.0871 11.7751 11.1291 11.8913C11.1798 12.03 11.2059 12.2269 11.2059 12.6338H12.6544ZM11.3739 11.639C12.6819 11.5108 14.1087 11.2096 15.2082 10.3417C16.338 9.44996 17 8.05621 17 5.99401L15.5515 5.99533C15.5515 7.79068 14.9865 8.7696 14.2594 9.34295C13.5003 9.94272 12.4371 10.2056 11.2189 10.3245L11.3739 11.639ZM17 5.99268C16.9963 4.82411 16.486 3.70297 15.5804 2.87625L14.5563 3.81026C15.1908 4.39153 15.5486 5.17493 15.5515 5.99533L17 5.99268ZM15.7441 3.58171C15.9614 3.07441 16.0628 2.53277 16.0483 1.98716L14.5998 2.02019C14.6111 2.39018 14.5412 2.75851 14.3941 3.10348L15.7441 3.58171ZM16.0483 1.98716C16.0344 1.44244 15.9014 0.907054 15.6572 0.409791L14.3347 0.947471C14.5013 1.28567 14.5896 1.65029 14.5998 2.02019L16.0483 1.98716ZM14.9967 0.679291C15.1951 0.0438508 15.1951 0.0425296 15.1937 0.0425296H15.1893L15.1835 0.0398875L15.1401 0.03064L15.0619 0.0174292C14.9862 0.00618965 14.9097 0.0004469 14.833 0.000255079C14.5846 -0.00274655 14.3367 0.0207521 14.0942 0.0702724C13.4786 0.190491 12.6109 0.489055 11.4579 1.16941L12.243 2.27912C13.2845 1.66614 13.9899 1.44156 14.3984 1.36229C14.528 1.33443 14.6607 1.32025 14.7939 1.32002L14.8417 1.32266L14.8301 1.32134L14.8156 1.31869L14.8069 1.31605H14.8026L14.7997 1.31473C14.7982 1.31473 14.7968 1.31473 14.9967 0.67797M12.0315 1.08354C10.0655 0.615747 8.00067 0.615747 6.03459 1.08354L6.39963 2.36235C8.12634 1.9514 9.93978 1.9514 11.6665 2.36235L12.0315 1.08354ZM6.60966 1.16809C5.45518 0.490377 4.58606 0.191812 3.97043 0.0729145C3.72802 0.0233942 3.48008 -0.000104424 3.23168 0.00289721C3.11421 0.0061443 2.99734 0.019413 2.88258 0.0425296L2.87679 0.0451719H2.87244L3.06944 0.680612L3.26789 1.31605L3.26355 1.31737L3.2592 1.31869L3.23603 1.32398L3.27224 1.32266C3.4054 1.32289 3.53808 1.33707 3.66769 1.36493C4.07618 1.4442 4.78161 1.66746 5.82311 2.28044L6.60966 1.16809ZM2.40891 0.407148C2.16469 0.904412 2.03173 1.44112 2.01781 1.98584L3.46634 2.01887C3.47534 1.64875 3.56547 1.28401 3.73142 0.94615L2.40891 0.407148ZM2.01781 1.98584C2.00332 2.53145 2.10472 3.07309 2.322 3.58039L3.67203 3.10216C3.52443 2.75728 3.454 2.38895 3.46489 2.01887L2.01781 1.98584ZM2.48424 2.87493C2.03453 3.28862 1.67735 3.77815 1.4326 4.31623L2.77105 4.81824C2.94197 4.44173 3.19402 4.09825 3.5098 3.80761L2.48424 2.87493ZM1.4326 4.31623C1.19041 4.85632 1.06593 5.43427 1.06612 6.01778L2.51466 6.01514C2.51466 5.60561 2.60157 5.20003 2.77105 4.82221L1.4326 4.31623ZM1.06612 6.01778C1.06612 8.06943 1.72955 9.44864 2.86086 10.3351C3.9574 11.1938 5.38131 11.4976 6.68499 11.639L6.85591 10.3272C5.629 10.1924 4.56578 9.92819 3.80385 9.33106C3.07669 8.76167 2.51466 7.79596 2.51466 6.01514L1.06612 6.01778ZM6.25912 10.5147C5.53485 11.1726 5.34799 11.9547 5.41317 12.7659L6.85881 12.6668C6.81535 12.1278 6.93558 11.7645 7.28178 11.4501L6.25912 10.5147ZM5.41172 12.7157V17.3395H6.86026V12.7157H5.41172ZM12.6544 17.3395V15.3578H11.2059V17.3395H12.6544ZM12.6544 15.3578V12.6338H11.2059V15.3578H12.6544Z" fill="#01052A" fill-opacity="0.9"/>
</svg>
