<svg width="18" height="14" viewBox="0 0 18 14" fill="none" xmlns="http://www.w3.org/2000/svg">
<path d="M16.2 12.25H14.4V4.59375L9 7.875L3.6 4.59375V12.25H1.8V1.75H2.88L9 5.46875L15.12 1.75H16.2M16.2 0H1.8C0.801 0 0 0.77875 0 1.75V12.25C0 12.7141 0.189642 13.1592 0.527208 13.4874C0.864773 13.8156 1.32261 14 1.8 14H16.2C16.6774 14 17.1352 13.8156 17.4728 13.4874C17.8104 13.1592 18 12.7141 18 12.25V1.75C18 1.28587 17.8104 0.840752 17.4728 0.512563C17.1352 0.184374 16.6774 0 16.2 0Z" fill="#01052A"/>
</svg>
