<svg width="18" height="15" viewBox="0 0 18 15" fill="none" xmlns="http://www.w3.org/2000/svg">
<g clip-path="url(#clip0_5050_85)">
<path d="M4.09092 14.5013V7.32644L1.93409 5.29078L0 4.16113V13.2351C0 13.9357 0.550195 14.5013 1.2273 14.5013H4.09092Z" fill="#4285F4"/>
<path d="M13.9082 14.5012H16.7718C17.451 14.5012 17.9991 13.9335 17.9991 13.235V4.16113L15.8085 5.45501L13.9082 7.32637V14.5012Z" fill="#34A853"/>
<path d="M4.09036 7.32639L3.79688 4.52298L4.09036 1.83984L8.99944 5.63827L13.9085 1.83984L14.2368 4.37812L13.9085 7.32639L8.99944 11.1248L4.09036 7.32639Z" fill="#EA4335"/>
<path d="M13.9082 1.84001V7.32656L17.9991 4.16125V2.47306C17.9991 0.907306 16.2666 0.0147149 15.0537 0.95373L13.9082 1.84001Z" fill="#FBBC04"/>
<path d="M0 4.16129L1.88149 5.61714L4.09092 7.32659V1.84004L2.94539 0.953764C1.73039 0.0146756 0 0.907339 0 2.47302V4.16129Z" fill="#C5221F"/>
</g>
<defs>
<clipPath id="clip0_5050_85">
<rect width="18" height="14" fill="white" transform="translate(0 0.570312)"/>
</clipPath>
</defs>
</svg>
