<svg width="17" height="18" viewBox="0 0 17 18" fill="none" xmlns="http://www.w3.org/2000/svg">
<path d="M16.3009 2.2486V15.7479C16.3039 16.3411 16.0711 16.9112 15.6538 17.3329C15.2366 17.7545 14.6689 17.9932 14.0756 17.9964C13.9834 17.997 13.8912 17.992 13.7996 17.9814C13.246 17.8992 12.7414 17.6175 12.3809 17.1893C12.0204 16.7611 11.8288 16.2159 11.8421 15.6564V2.3401C11.8289 1.77996 12.021 1.23431 12.3823 0.806029C12.7436 0.37775 13.249 0.0964297 13.8034 0.0151043C14.1179 -0.0216293 14.4367 0.00882312 14.7385 0.104448C15.0404 0.200073 15.3185 0.358691 15.5545 0.569815C15.7906 0.780939 15.9791 1.03976 16.1076 1.32916C16.2361 1.61856 16.3025 1.93195 16.3009 2.2486ZM2.27064 13.5414C1.97444 13.5359 1.68012 13.5896 1.40488 13.6992C1.12964 13.8088 0.879 13.9721 0.667603 14.1797C0.456206 14.3872 0.28829 14.6348 0.173664 14.908C0.0590375 15.1812 0 15.4745 0 15.7707C0 16.067 0.0590375 16.3603 0.173664 16.6335C0.28829 16.9066 0.456206 17.1542 0.667603 17.3618C0.879 17.5693 1.12964 17.7327 1.40488 17.8423C1.68012 17.9519 1.97444 18.0055 2.27064 18.0001C2.85483 17.9894 3.41147 17.7498 3.82081 17.3329C4.23016 16.916 4.4595 16.355 4.4595 15.7707C4.4595 15.1864 4.23016 14.6255 3.82081 14.2086C3.41147 13.7917 2.85483 13.5521 2.27064 13.5414ZM8.17464 6.78385H8.13714C7.54192 6.81642 6.98272 7.07932 6.57789 7.51689C6.17307 7.95447 5.95439 8.5324 5.96814 9.12835V15.1171C5.96814 16.7424 6.68364 17.7286 7.73064 17.9394C8.05553 18.0053 8.39101 17.998 8.71274 17.9181C9.03448 17.8383 9.3344 17.6878 9.59075 17.4776C9.8471 17.2674 10.0535 17.0028 10.1948 16.703C10.3362 16.4032 10.4091 16.0756 10.4081 15.7441V9.02485C10.4086 8.73105 10.3513 8.44003 10.2393 8.16841C10.1273 7.89679 9.96292 7.64988 9.75552 7.44178C9.54812 7.23368 9.30176 7.06848 9.03052 6.95559C8.75927 6.8427 8.46844 6.78435 8.17464 6.78385Z" fill="black"/>
</svg>
