<svg width="18" height="18" viewBox="0 0 18 18" fill="none" xmlns="http://www.w3.org/2000/svg">
<path d="M9.18221 7.71356V10.7983H14.392C14.1796 12.1224 12.8166 14.6801 9.18221 14.6801C6.04993 14.6801 3.49096 12.1371 3.49096 8.99944C3.49096 5.86181 6.04935 3.31875 9.18221 3.31875C10.9664 3.31875 12.1624 4.06012 12.8436 4.70475L15.3337 2.35238C13.7349 0.890438 11.6631 0 9.18221 0C4.10674 0 0 4.02244 0 9C0 13.9776 4.10674 18 9.18221 18C14.4815 18 18 14.3494 18 9.20531C18 8.61356 17.934 8.16244 17.8537 7.71412L9.18221 7.71356Z" fill="#01052A"/>
</svg>
