<svg width="18" height="16" viewBox="0 0 18 16" fill="none" xmlns="http://www.w3.org/2000/svg">
<path d="M9.0075 0.11377C7.446 0.11377 6.192 0.128769 6.20025 0.149019C6.20775 0.164019 7.48125 2.39977 9.03075 5.11402L11.8507 10.0445H14.6708C16.2315 10.0445 17.4855 10.0295 17.4772 10.0093C17.4735 9.99427 16.1962 7.75852 14.646 5.04427L11.826 0.11377H9.0075ZM5.4375 1.41127C4.52272 2.98682 3.61521 4.56659 2.715 6.15052L0 10.901L1.4175 13.3745L2.83125 15.8473L5.54625 11.096L8.25975 6.34852L6.84975 3.88327C6.075 2.52802 5.44125 1.41577 5.4375 1.41127ZM7.13175 10.901L6.9795 11.162C6.894 11.3105 6.2595 12.416 5.5695 13.6273C5.148 14.3715 4.72349 15.114 4.296 15.8548C4.2885 15.8743 6.726 15.8863 9.7125 15.8863H15.1455L16.4925 13.5185C17.2365 12.218 17.88 11.096 17.922 11.0263L18 10.901H12.5632H7.13175Z" fill="#01052A"/>
</svg>
