<svg width="18" height="18" viewBox="0 0 18 18" fill="none" xmlns="http://www.w3.org/2000/svg">
<path d="M12.0678 11.4547H5.93283V7.977H12.0678V11.4547ZM13.3638 5.0625H15.5463V16.773C15.5463 17.451 14.9966 18 14.3186 18H3.68208C3.52095 18 3.36139 17.9683 3.21253 17.9066C3.06366 17.8449 2.9284 17.7546 2.81446 17.6406C2.58435 17.4105 2.45508 17.0984 2.45508 16.773V1.227C2.45508 0.549 3.00408 0 3.68208 0H10.4831V5.0625H13.3638ZM13.0916 6.95475H4.90908V12.477H13.0916V6.95475ZM11.0456 2.4705V4.5H15.5463L11.0463 0L11.0456 2.4705Z" fill="#01052A"/>
</svg>
