<svg width="10" height="14" viewBox="0 0 10 14" fill="none" xmlns="http://www.w3.org/2000/svg">
<path fill-rule="evenodd" clip-rule="evenodd" d="M3.07692 1.81486C3.07692 2.20777 2.91484 2.58459 2.62632 2.86242C2.3378 3.14025 1.94649 3.29634 1.53846 3.29634C1.13044 3.29634 0.739122 3.14025 0.450605 2.86242C0.162087 2.58459 0 2.20777 0 1.81486C0 1.42194 0.162087 1.04512 0.450605 0.76729C0.739122 0.489458 1.13044 0.333374 1.53846 0.333374C1.94649 0.333374 2.3378 0.489458 2.62632 0.76729C2.91484 1.04512 3.07692 1.42194 3.07692 1.81486ZM1.53846 8.48152C1.94649 8.48152 2.3378 8.32544 2.62632 8.04761C2.91484 7.76977 3.07692 7.39295 3.07692 7.00004C3.07692 6.60713 2.91484 6.23031 2.62632 5.95248C2.3378 5.67464 1.94649 5.51856 1.53846 5.51856C1.13044 5.51856 0.739122 5.67464 0.450605 5.95248C0.162087 6.23031 0 6.60713 0 7.00004C0 7.39295 0.162087 7.76977 0.450605 8.04761C0.739122 8.32544 1.13044 8.48152 1.53846 8.48152ZM1.53846 13.6667C1.94649 13.6667 2.3378 13.5106 2.62632 13.2328C2.91484 12.955 3.07692 12.5781 3.07692 12.1852C3.07692 11.7923 2.91484 11.4155 2.62632 11.1377C2.3378 10.8598 1.94649 10.7037 1.53846 10.7037C1.13044 10.7037 0.739122 10.8598 0.450605 11.1377C0.162087 11.4155 0 11.7923 0 12.1852C0 12.5781 0.162087 12.955 0.450605 13.2328C0.739122 13.5106 1.13044 13.6667 1.53846 13.6667ZM10 1.81486C10 2.20777 9.83791 2.58459 9.54939 2.86242C9.26088 3.14025 8.86956 3.29634 8.46154 3.29634C8.05351 3.29634 7.6622 3.14025 7.37368 2.86242C7.08517 2.58459 6.92308 2.20777 6.92308 1.81486C6.92308 1.42194 7.08517 1.04512 7.37368 0.76729C7.6622 0.489458 8.05351 0.333374 8.46154 0.333374C8.86956 0.333374 9.26088 0.489458 9.54939 0.76729C9.83791 1.04512 10 1.42194 10 1.81486ZM8.46154 8.48152C8.86956 8.48152 9.26088 8.32544 9.54939 8.04761C9.83791 7.76977 10 7.39295 10 7.00004C10 6.60713 9.83791 6.23031 9.54939 5.95248C9.26088 5.67464 8.86956 5.51856 8.46154 5.51856C8.05351 5.51856 7.6622 5.67464 7.37368 5.95248C7.08517 6.23031 6.92308 6.60713 6.92308 7.00004C6.92308 7.39295 7.08517 7.76977 7.37368 8.04761C7.6622 8.32544 8.05351 8.48152 8.46154 8.48152ZM8.46154 13.6667C8.86956 13.6667 9.26088 13.5106 9.54939 13.2328C9.83791 12.955 10 12.5781 10 12.1852C10 11.7923 9.83791 11.4155 9.54939 11.1377C9.26088 10.8598 8.86956 10.7037 8.46154 10.7037C8.05351 10.7037 7.6622 10.8598 7.37368 11.1377C7.08517 11.4155 6.92308 11.7923 6.92308 12.1852C6.92308 12.5781 7.08517 12.955 7.37368 13.2328C7.6622 13.5106 8.05351 13.6667 8.46154 13.6667Z" fill="#01052A" fill-opacity="0.25"/>
</svg>
