<svg width="18" height="18" viewBox="0 0 18 18" fill="none" xmlns="http://www.w3.org/2000/svg">
<path fill-rule="evenodd" clip-rule="evenodd" d="M6 10C6.53043 10 7.03914 10.2107 7.41421 10.5858C7.78929 10.9609 8 11.4696 8 12V16C8 16.5304 7.78929 17.0391 7.41421 17.4142C7.03914 17.7893 6.53043 18 6 18H2C1.46957 18 0.960859 17.7893 0.585786 17.4142C0.210714 17.0391 1.00268e-07 16.5304 1.00268e-07 16V12C1.00268e-07 11.4696 0.210714 10.9609 0.585786 10.5858C0.960859 10.2107 1.46957 10 2 10H6ZM16 10C16.5046 9.99984 16.9906 10.1904 17.3605 10.5335C17.7305 10.8766 17.9572 11.3468 17.995 11.85L18 12V16C18.0002 16.5046 17.8096 16.9906 17.4665 17.3605C17.1234 17.7305 16.6532 17.9572 16.15 17.995L16 18H12C11.4954 18.0002 11.0094 17.8096 10.6395 17.4665C10.2695 17.1234 10.0428 16.6532 10.005 16.15L10 16V12C9.99984 11.4954 10.1904 11.0094 10.5335 10.6395C10.8766 10.2695 11.3468 10.0428 11.85 10.005L12 10H16ZM6 12H2V16H6V12ZM16 12H12V16H16V12ZM16 1.00268e-07C16.5046 -0.000159579 16.9906 0.190406 17.3605 0.533497C17.7305 0.876587 17.9572 1.34684 17.995 1.85L18 2V6C18.0002 6.50458 17.8096 6.99057 17.4665 7.36055C17.1234 7.73053 16.6532 7.95716 16.15 7.995L16 8H12C11.4954 8.00016 11.0094 7.80959 10.6395 7.4665C10.2695 7.12341 10.0428 6.65315 10.005 6.15L10 6V2C9.99984 1.49542 10.1904 1.00943 10.5335 0.639452C10.8766 0.269471 11.3468 0.0428434 11.85 0.00500021L12 1.00268e-07H16ZM6 1.00268e-07C6.50458 -0.000159579 6.99057 0.190406 7.36055 0.533497C7.73053 0.876587 7.95716 1.34684 7.995 1.85L8 2V6C8.00016 6.50458 7.80959 6.99057 7.4665 7.36055C7.12341 7.73053 6.65315 7.95716 6.15 7.995L6 8H2C1.49542 8.00016 1.00943 7.80959 0.639452 7.4665C0.269471 7.12341 0.0428434 6.65315 0.00500021 6.15L1.00268e-07 6V2C-0.000159579 1.49542 0.190406 1.00943 0.533497 0.639452C0.876587 0.269471 1.34684 0.0428434 1.85 0.00500021L2 1.00268e-07H6ZM16 2H12V6H16V2ZM6 2H2V6H6V2Z" fill="#01052A"/>
</svg>
