<svg width="13" height="18" viewBox="0 0 13 18" fill="none" xmlns="http://www.w3.org/2000/svg">
<path d="M6.36968 0C2.97138 0 0.207031 2.76435 0.207031 6.1623C0.207031 9.56026 2.97138 12.325 6.36968 12.325H8.39638V10.0139H6.36968C4.24587 10.0139 2.51811 8.28611 2.51811 6.1623C2.51811 4.0385 4.24587 2.31073 6.36968 2.31073C8.49349 2.31073 10.2303 4.0385 10.2303 6.1623V11.8377C10.2303 13.9476 8.51222 15.666 6.40748 15.6882C5.40037 15.6799 4.43731 15.2752 3.72706 14.5611L2.09293 16.1953C3.22559 17.3338 4.76018 17.9816 6.36587 17.999V18C6.37974 18 6.39361 18 6.40714 18H6.45049V17.999C9.80023 17.9535 12.5126 15.2228 12.5282 11.8654L12.5303 6.0111C12.4498 2.6832 9.717 0 6.36968 0Z" fill="#01052A"/>
</svg>
