<svg width="17" height="20" viewBox="0 0 17 20" fill="none" xmlns="http://www.w3.org/2000/svg">
<path d="M1 1.64286C1 1.47236 1.06773 1.30885 1.18829 1.18829C1.30885 1.06773 1.47236 1 1.64286 1H15.7857C15.9562 1 16.1197 1.06773 16.2403 1.18829C16.3608 1.30885 16.4286 1.47236 16.4286 1.64286C16.4286 1.81335 16.3608 1.97687 16.2403 2.09743C16.1197 2.21798 15.9562 2.28571 15.7857 2.28571H14.5V3.57143C14.5003 4.66304 14.1917 5.73246 13.61 6.65614C13.0282 7.57983 12.197 8.32009 11.2124 8.79143C10.8396 8.97014 10.6429 9.27614 10.6429 9.55V10.45C10.6429 10.7239 10.8409 11.0299 11.2124 11.2086C12.197 11.6799 13.0282 12.4202 13.61 13.3439C14.1917 14.2675 14.5003 15.337 14.5 16.4286V17.7143H15.7857C15.9562 17.7143 16.1197 17.782 16.2403 17.9026C16.3608 18.0231 16.4286 18.1866 16.4286 18.3571C16.4286 18.5276 16.3608 18.6912 16.2403 18.8117C16.1197 18.9323 15.9562 19 15.7857 19H1.64286C1.47236 19 1.30885 18.9323 1.18829 18.8117C1.06773 18.6912 1 18.5276 1 18.3571C1 18.1866 1.06773 18.0231 1.18829 17.9026C1.30885 17.782 1.47236 17.7143 1.64286 17.7143H2.92857V16.4286C2.92831 15.337 3.23687 14.2675 3.81861 13.3439C4.40035 12.4202 5.23153 11.6799 6.21614 11.2086C6.589 11.0299 6.78571 10.7239 6.78571 10.45V9.55C6.78571 9.27614 6.58771 8.97014 6.21614 8.79143C5.23153 8.32009 4.40035 7.57983 3.81861 6.65614C3.23687 5.73246 2.92831 4.66304 2.92857 3.57143V2.28571H1.64286C1.47236 2.28571 1.30885 2.21798 1.18829 2.09743C1.06773 1.97687 1 1.81335 1 1.64286ZM4.21429 2.28571V3.57143C4.21405 4.42054 4.45406 5.25239 4.90658 5.97087C5.3591 6.68935 6.00566 7.26514 6.77157 7.63171C7.45686 7.96086 8.07143 8.64871 8.07143 9.54871V10.4513C8.07143 11.3513 7.45686 12.0391 6.77157 12.3683C6.00566 12.7349 5.3591 13.3106 4.90658 14.0291C4.45406 14.7476 4.21405 15.5795 4.21429 16.4286V17.7143H13.2143V16.4286C13.2145 15.5795 12.9745 14.7476 12.522 14.0291C12.0695 13.3106 11.4229 12.7349 10.657 12.3683C9.97171 12.0391 9.35714 11.3526 9.35714 10.4513V9.54871C9.35714 8.64871 9.97171 7.96086 10.657 7.63171C11.4229 7.26514 12.0695 6.68935 12.522 5.97087C12.9745 5.25239 13.2145 4.42054 13.2143 3.57143V2.28571H4.21429Z" fill="#01052A" fill-opacity="0.9" stroke="#01052A" stroke-opacity="0.9" stroke-width="0.2"/>
</svg>
