<svg width="18" height="18" viewBox="0 0 18 18" fill="none" xmlns="http://www.w3.org/2000/svg">
<path d="M13.2117 5.94749V3.81299C13.494 3.68076 13.7332 3.47123 13.9014 3.20867C14.0695 2.94612 14.1599 2.64128 14.1619 2.32948V2.27923C14.1607 1.84331 13.9871 1.42558 13.6789 1.11726C13.3707 0.808951 12.9531 0.635117 12.5172 0.633732H12.4669C12.0311 0.635116 11.6136 0.808846 11.3054 1.117C10.9973 1.42515 10.8235 1.84269 10.8222 2.27848V2.32873C10.8239 2.63868 10.9129 2.94187 11.079 3.20358C11.245 3.46529 11.4815 3.67493 11.7612 3.80849L11.7709 3.81299V5.95199C10.9546 6.07598 10.186 6.4151 9.54416 6.93449L9.55316 6.92699L3.68215 2.35573C3.79393 1.93698 3.757 1.49241 3.57766 1.09784C3.39832 0.703265 3.08767 0.383112 2.69868 0.191965C2.30968 0.000818455 1.86643 -0.0494873 1.4445 0.049625C1.02257 0.148737 0.648071 0.391131 0.384867 0.735479C0.121662 1.07983 -0.0139553 1.50481 0.00113635 1.93796C0.016228 2.37112 0.181095 2.78563 0.467627 3.11083C0.754159 3.43602 1.14461 3.65176 1.57242 3.72127C2.00023 3.79077 2.43891 3.70974 2.81365 3.49198L2.80465 3.49648L8.57741 7.98974C8.06808 8.75532 7.79716 9.65472 7.79891 10.5742C7.79667 11.5436 8.09744 12.4895 8.65916 13.2795L8.64941 13.2645L6.89291 15.0217C6.75221 14.9767 6.60562 14.9527 6.45791 14.9505H6.45641C6.15484 14.9505 5.86004 15.0399 5.6093 15.2075C5.35856 15.375 5.16312 15.6131 5.04772 15.8918C4.93231 16.1704 4.90212 16.4769 4.96095 16.7727C5.01979 17.0685 5.165 17.3402 5.37824 17.5534C5.59148 17.7667 5.86317 17.9119 6.15894 17.9707C6.45471 18.0295 6.76129 17.9993 7.0399 17.8839C7.31852 17.7685 7.55665 17.5731 7.72419 17.3224C7.89173 17.0716 7.98116 16.7768 7.98116 16.4752C7.97887 16.3236 7.95358 16.1731 7.90616 16.029L7.90991 16.0395L9.64766 14.3017C10.2141 14.7339 10.8716 15.0313 11.5702 15.1711C12.2688 15.3109 12.9901 15.2896 13.6792 15.1088C14.3683 14.9279 15.0071 14.5923 15.547 14.1274C16.0869 13.6625 16.5136 13.0806 16.7948 12.426C17.0759 11.7713 17.2041 11.0612 17.1695 10.3496C17.135 9.63795 16.9385 8.94359 16.5952 8.3193C16.2519 7.69501 15.7707 7.15724 15.1883 6.74689C14.6059 6.33655 13.9376 6.06443 13.2342 5.95124L13.2072 5.94749H13.2117ZM12.4887 12.981C12.0134 12.9797 11.5492 12.8375 11.1547 12.5725C10.7602 12.3076 10.4531 11.9316 10.2721 11.4922C10.0911 11.0527 10.0444 10.5695 10.1379 10.1035C10.2314 9.63759 10.4608 9.20977 10.7973 8.87414C11.1338 8.53851 11.5621 8.31012 12.0283 8.2178C12.4945 8.12548 12.9776 8.17339 13.4166 8.35546C13.8556 8.53753 14.2308 8.84561 14.4948 9.24078C14.7588 9.63595 14.8998 10.1005 14.8999 10.5757V10.5772C14.9 10.8931 14.8379 11.2059 14.717 11.4978C14.5962 11.7897 14.419 12.0549 14.1957 12.2782C13.9723 12.5016 13.7071 12.6788 13.4152 12.7996C13.1234 12.9204 12.8106 12.9826 12.4947 12.9825L12.4887 12.981Z" fill="#01052A"/>
</svg>
