<svg width="20" height="18" viewBox="0 0 20 18" fill="none" xmlns="http://www.w3.org/2000/svg">
<path d="M16.9231 1.38428H3.07692C1.92987 1.38428 1 2.31415 1 3.4612V14.5381C1 15.6852 1.92987 16.615 3.07692 16.615H16.9231C18.0701 16.615 19 15.6852 19 14.5381V3.4612C19 2.31415 18.0701 1.38428 16.9231 1.38428Z" stroke="#01052A" stroke-width="1.5" stroke-linejoin="round"/>
<path d="M13.4608 6.92255C14.2255 6.92255 14.8454 6.30264 14.8454 5.53794C14.8454 4.77323 14.2255 4.15332 13.4608 4.15332C12.6961 4.15332 12.0762 4.77323 12.0762 5.53794C12.0762 6.30264 12.6961 6.92255 13.4608 6.92255Z" stroke="#01052A" stroke-width="1.5" stroke-miterlimit="10"/>
<path d="M12.0769 12.4522L8.15413 8.53678C7.90451 8.28722 7.56901 8.14241 7.21619 8.13196C6.86337 8.1215 6.51987 8.24619 6.25591 8.48053L1 13.1536M8.61538 16.6151L13.9522 11.2783C14.1963 11.0338 14.523 10.8893 14.8681 10.8733C15.2132 10.8573 15.5519 10.9709 15.8175 11.1918L19 13.8459" stroke="#01052A" stroke-width="1.5" stroke-linecap="round" stroke-linejoin="round"/>
</svg>
