<svg width="33" height="30" viewBox="0 0 33 30" fill="none" xmlns="http://www.w3.org/2000/svg">
<path fill-rule="evenodd" clip-rule="evenodd" d="M20.3649 14.0389C20.2042 13.8783 19.9864 13.7882 19.7592 13.7882C19.5321 13.7882 19.3142 13.8783 19.1535 14.0389L16.9021 16.2903V7.85714C16.9021 7.62981 16.8118 7.4118 16.651 7.25105C16.4903 7.09031 16.2723 7 16.0449 7C15.8176 7 15.5996 7.09031 15.4388 7.25105C15.2781 7.4118 15.1878 7.62981 15.1878 7.85714V16.2903L12.9364 14.0389C12.7739 13.8875 12.559 13.805 12.3369 13.8089C12.1148 13.8129 11.903 13.9028 11.7459 14.0599C11.5889 14.2169 11.4989 14.4288 11.495 14.6508C11.4911 14.8729 11.5735 15.0878 11.7249 15.2503L15.4392 18.9646L16.0449 19.5714L16.6506 18.9657L20.3649 15.2514C20.4446 15.1718 20.5078 15.0773 20.5509 14.9733C20.594 14.8693 20.6162 14.7578 20.6162 14.6451C20.6162 14.5325 20.594 14.421 20.5509 14.317C20.5078 14.213 20.4446 14.1185 20.3649 14.0389ZM9.75921 17C9.75921 16.8874 9.73704 16.776 9.69396 16.672C9.65089 16.568 9.58775 16.4735 9.50816 16.3939C9.42856 16.3143 9.33407 16.2512 9.23008 16.2081C9.12609 16.165 9.01463 16.1429 8.90206 16.1429C8.7895 16.1429 8.67804 16.165 8.57405 16.2081C8.47006 16.2512 8.37557 16.3143 8.29597 16.3939C8.21638 16.4735 8.15324 16.568 8.11017 16.672C8.06709 16.776 8.04492 16.8874 8.04492 17V20.7143C8.04492 21.3205 8.28574 21.9019 8.71439 22.3305C9.14305 22.7592 9.72443 23 10.3306 23H21.7592C22.3654 23 22.9468 22.7592 23.3755 22.3305C23.8041 21.9019 24.0449 21.3205 24.0449 20.7143V17C24.0449 16.7727 23.9546 16.5547 23.7939 16.3939C23.6331 16.2332 23.4151 16.1429 23.1878 16.1429C22.9605 16.1429 22.7424 16.2332 22.5817 16.3939C22.4209 16.5547 22.3306 16.7727 22.3306 17V20.7143C22.3306 20.8658 22.2704 21.0112 22.1633 21.1183C22.0561 21.2255 21.9108 21.2857 21.7592 21.2857H10.3306C10.1791 21.2857 10.0337 21.2255 9.92658 21.1183C9.81941 21.0112 9.75921 20.8658 9.75921 20.7143V17Z" fill="#01052A" fill-opacity="0.75"/>
</svg>
