<svg width="18" height="18" viewBox="0 0 18 18" fill="none" xmlns="http://www.w3.org/2000/svg">
<path d="M7.36364 11.4545C7.58063 11.4545 7.78874 11.3683 7.94218 11.2149C8.09562 11.0615 8.18182 10.8534 8.18182 10.6364V4.09091C8.18182 3.87391 8.09562 3.66581 7.94218 3.51237C7.78874 3.35893 7.58063 3.27273 7.36364 3.27273C7.14664 3.27273 6.93853 3.35893 6.78509 3.51237C6.63166 3.66581 6.54545 3.87391 6.54545 4.09091V10.6364C6.54545 10.8534 6.63166 11.0615 6.78509 11.2149C6.93853 11.3683 7.14664 11.4545 7.36364 11.4545ZM10.6364 11.4545C10.8534 11.4545 11.0615 11.3683 11.2149 11.2149C11.3683 11.0615 11.4545 10.8534 11.4545 10.6364V4.09091C11.4545 3.87391 11.3683 3.66581 11.2149 3.51237C11.0615 3.35893 10.8534 3.27273 10.6364 3.27273C10.4194 3.27273 10.2113 3.35893 10.0578 3.51237C9.90438 3.66581 9.81818 3.87391 9.81818 4.09091V10.6364C9.81818 10.8534 9.90438 11.0615 10.0578 11.2149C10.2113 11.3683 10.4194 11.4545 10.6364 11.4545ZM4.09091 9.81818C4.3079 9.81818 4.51601 9.73198 4.66945 9.57854C4.82289 9.4251 4.90909 9.217 4.90909 9V5.72727C4.90909 5.51028 4.82289 5.30217 4.66945 5.14873C4.51601 4.99529 4.3079 4.90909 4.09091 4.90909C3.87391 4.90909 3.66581 4.99529 3.51237 5.14873C3.35893 5.30217 3.27273 5.51028 3.27273 5.72727V9C3.27273 9.217 3.35893 9.4251 3.51237 9.57854C3.66581 9.73198 3.87391 9.81818 4.09091 9.81818ZM15.5455 0H2.45455C1.80376 0.000649812 1.17981 0.259462 0.719637 0.719637C0.259462 1.17981 0.000649812 1.80376 0 2.45455V15.5455C0.000649812 16.1962 0.259462 16.8202 0.719637 17.2804C1.17981 17.7405 1.80376 17.9994 2.45455 18H15.5455C16.1962 17.9994 16.8202 17.7405 17.2804 17.2804C17.7405 16.8202 17.9994 16.1962 18 15.5455V2.45455C17.9994 1.80376 17.7405 1.17981 17.2804 0.719637C16.8202 0.259462 16.1962 0.000649812 15.5455 0ZM16.3636 15.5455C16.3636 15.7624 16.2774 15.9706 16.124 16.124C15.9706 16.2774 15.7624 16.3636 15.5455 16.3636H2.45455C2.23755 16.3636 2.02944 16.2774 1.876 16.124C1.72256 15.9706 1.63636 15.7624 1.63636 15.5455V2.45455C1.63636 2.23755 1.72256 2.02944 1.876 1.876C2.02944 1.72256 2.23755 1.63636 2.45455 1.63636H15.5455C15.7624 1.63636 15.9706 1.72256 16.124 1.876C16.2774 2.02944 16.3636 2.23755 16.3636 2.45455V15.5455ZM13.383 11.7892C12.1015 12.6869 10.5629 13.1437 8.99918 13.0909C7.43735 13.1329 5.90264 12.677 4.617 11.7892C4.53527 11.7167 4.43984 11.6613 4.33636 11.6263C4.23288 11.5913 4.12343 11.5774 4.01448 11.5853C3.90553 11.5933 3.79927 11.623 3.70198 11.6727C3.60469 11.7224 3.51834 11.791 3.44802 11.8746C3.37769 11.9582 3.32482 12.0551 3.29253 12.1594C3.26023 12.2638 3.24916 12.3736 3.25997 12.4823C3.27078 12.591 3.30325 12.6964 3.35547 12.7924C3.40769 12.8884 3.47859 12.9729 3.564 13.041C5.14021 14.1871 7.05107 14.7799 8.99918 14.7273C10.9475 14.7803 12.8586 14.1878 14.4352 13.0418C14.6013 12.9022 14.7051 12.7023 14.7238 12.4861C14.7426 12.2699 14.6746 12.0551 14.535 11.889C14.3954 11.7229 14.1955 11.6191 13.9793 11.6003C13.7631 11.5816 13.5491 11.6495 13.383 11.7892ZM13.9083 4.90909C13.6913 4.90909 13.4832 4.99529 13.3297 5.14873C13.1763 5.30217 13.0901 5.51028 13.0901 5.72727V9C13.0901 9.217 13.1763 9.4251 13.3297 9.57854C13.4832 9.73198 13.6913 9.81818 13.9083 9.81818C14.1253 9.81818 14.3334 9.73198 14.4868 9.57854C14.6403 9.4251 14.7265 9.217 14.7265 9V5.72727C14.7265 5.51028 14.6403 5.30217 14.4868 5.14873C14.3334 4.99529 14.1253 4.90909 13.9083 4.90909Z" fill="#01052A"/>
</svg>
