<svg width="18" height="18" viewBox="0 0 18 18" fill="none" xmlns="http://www.w3.org/2000/svg">
<path d="M9.21848 14.1429L10.0765 12.9549C10.7955 13.5339 11.5145 13.8199 12.2325 13.8129C12.6725 13.8129 13.0105 13.7319 13.2455 13.5709C13.3546 13.4998 13.4433 13.4016 13.5029 13.2859C13.5625 13.1702 13.591 13.041 13.5855 12.9109C13.5868 12.7689 13.557 12.6283 13.498 12.499C13.4391 12.3698 13.3526 12.255 13.2445 12.1629C13.0105 11.9569 12.5665 11.7519 11.9135 11.5469C11.1285 11.3199 10.5245 11.0269 10.0985 10.6669C9.68048 10.3079 9.46849 9.80489 9.46049 9.15989C9.46049 8.55089 9.72449 8.04089 10.2525 7.63089C10.7665 7.21989 11.4225 7.01489 12.2215 7.01489C13.3365 7.01489 14.2315 7.28589 14.9055 7.82889L14.1355 9.02789C13.8645 8.81589 13.5525 8.66089 13.2005 8.56589C12.8485 8.45589 12.5345 8.40089 12.2545 8.40089C11.8735 8.40089 11.5695 8.46989 11.3415 8.60989C11.1145 8.74989 11.0005 8.93289 11.0005 9.15989C11.0005 9.40889 11.1405 9.62189 11.4185 9.79789C11.6985 9.96689 12.1745 10.1539 12.8485 10.3589C13.6625 10.6009 14.2425 10.9239 14.5865 11.3269C14.9315 11.7299 15.1035 12.2439 15.1035 12.8669C15.1035 13.5049 14.8585 14.0549 14.3665 14.5169C13.8825 14.9719 13.1785 15.2099 12.2545 15.2319C11.0445 15.2319 10.0325 14.8689 9.21848 14.1429Z" fill="#01052A"/>
<path d="M3.93048 13.0099C4.09567 13.2427 4.30496 13.4408 4.54648 13.5929C4.78148 13.7399 5.06348 13.8129 5.39348 13.8129C5.73848 13.8129 6.02448 13.7139 6.25248 13.5159C6.47848 13.3109 6.59248 12.9549 6.59248 12.4489V7.14689H8.07748V12.7349C8.05548 13.5999 7.80648 14.2239 7.32948 14.6049C7.06932 14.8263 6.76587 14.9912 6.43848 15.0889C6.11548 15.1839 5.80348 15.2319 5.50348 15.2319C4.95348 15.2319 4.46548 15.1359 4.04048 14.9459C3.58648 14.7409 3.20448 14.3769 2.89648 13.8569L3.93048 13.0099Z" fill="#01052A"/>
<rect x="0.7" y="0.7" width="16.6" height="16.6" rx="2.8" stroke="#01052A" stroke-width="1.4"/>
</svg>
