<svg width="18" height="18" viewBox="0 0 18 18" fill="none" xmlns="http://www.w3.org/2000/svg">
<path d="M8.577 0C8.577 2.16 10.35 3.915 12.492 3.915H14.094V5.445C14.094 7.605 15.84 9.351 18 9.36V0.756C18 0.555496 17.9203 0.363205 17.7786 0.221427C17.6368 0.0796498 17.4445 0 17.244 0H8.577ZM4.293 4.32C4.29773 5.35448 4.71078 6.34523 5.44227 7.07673C6.17376 7.80822 7.16452 8.22127 8.199 8.226H9.819V9.774C9.82373 10.8085 10.2368 11.7992 10.9683 12.5307C11.6998 13.2622 12.6905 13.6753 13.725 13.68V5.067C13.7227 4.86961 13.6432 4.68096 13.5036 4.54137C13.364 4.40179 13.1754 4.32234 12.978 4.32H4.293ZM0 8.64C0 10.8 1.755 12.546 3.915 12.546H5.517V14.094C5.526 16.245 7.272 18 9.423 18V9.387C9.423 9.1865 9.34335 8.9942 9.20157 8.85243C9.05979 8.71065 8.8675 8.631 8.667 8.631L0 8.64Z" fill="#01052A"/>
</svg>
