<svg width="18" height="18" viewBox="0 0 18 18" fill="none" xmlns="http://www.w3.org/2000/svg">
<path d="M0 1.42105C0 1.04417 0.118526 0.682716 0.329505 0.416217C0.540483 0.149717 0.826631 0 1.125 0H12.375C12.6734 0 12.9595 0.149717 13.1705 0.416217C13.3815 0.682716 13.5 1.04417 13.5 1.42105C13.5 1.79794 13.3815 2.15939 13.1705 2.42589C12.9595 2.69239 12.6734 2.84211 12.375 2.84211H1.125C0.826631 2.84211 0.540483 2.69239 0.329505 2.42589C0.118526 2.15939 0 1.79794 0 1.42105ZM0 16.5789C0 16.2021 0.118526 15.8406 0.329505 15.5741C0.540483 15.3076 0.826631 15.1579 1.125 15.1579H10.875C11.1734 15.1579 11.4595 15.3076 11.6705 15.5741C11.8815 15.8406 12 16.2021 12 16.5789C12 16.9558 11.8815 17.3173 11.6705 17.5838C11.4595 17.8503 11.1734 18 10.875 18H1.125C0.826631 18 0.540483 17.8503 0.329505 17.5838C0.118526 17.3173 0 16.9558 0 16.5789ZM1.125 7.57895C0.826631 7.57895 0.540483 7.72866 0.329505 7.99516C0.118526 8.26166 0 8.62311 0 9C0 9.37689 0.118526 9.73834 0.329505 10.0048C0.540483 10.2713 0.826631 10.4211 1.125 10.4211H16.875C17.1734 10.4211 17.4595 10.2713 17.6705 10.0048C17.8815 9.73834 18 9.37689 18 9C18 8.62311 17.8815 8.26166 17.6705 7.99516C17.4595 7.72866 17.1734 7.57895 16.875 7.57895H1.125Z" fill="#01052A"/>
</svg>
