<svg width="20" height="18" viewBox="0 0 20 18" fill="none" xmlns="http://www.w3.org/2000/svg">
<path d="M14.8462 16.9668C15.6886 17.1214 16.5338 16.7332 17.2484 15.8638C17.963 14.9943 18.5063 13.693 18.7923 12.1655C18.9848 11.1537 19 9 19 9C19 9 18.9834 6.84896 18.7923 5.83452C18.5063 4.30696 17.963 3.00568 17.2484 2.13622C16.5338 1.26675 15.6886 0.878643 14.8462 1.03319C11.0385 1.03319 8.96154 16.9668 5.15385 16.9668C4.31142 17.1214 3.46616 16.7332 2.75156 15.8638C2.03695 14.9943 1.49373 13.693 1.20769 12.1655C1.01523 11.1537 1 9 1 9C1 9 1.01662 6.84896 1.20769 5.83452C1.49373 4.30696 2.03695 3.00568 2.75156 2.13622C3.46616 1.26675 4.31142 0.878643 5.15385 1.03319C8.96154 1.03319 11.0385 16.9668 14.8462 16.9668Z" stroke="#01052A" stroke-width="1.42857" stroke-linecap="round" stroke-linejoin="round"/>
</svg>
