<svg width="24" height="24" viewBox="0 0 24 24" fill="none" xmlns="http://www.w3.org/2000/svg">
<path d="M0 1.5C0 0.671573 0.671573 0 1.5 0H22.5C23.3284 0 24 0.671573 24 1.5C24 2.32843 23.3284 3 22.5 3H1.5C0.671573 3 0 2.32843 0 1.5Z" fill="#01052A"/>
<path d="M8 16L4 13.76L0 16L2.24 12L0 8L4 10.24L8 8L5.76 12L8 16Z" fill="#01052A"/>
<path fill-rule="evenodd" clip-rule="evenodd" d="M12 8C10.8954 8 10 8.89543 10 10V14C10 15.1046 10.8954 16 12 16H22C23.1046 16 24 15.1046 24 14V10C24 8.89543 23.1046 8 22 8H12ZM13 10.5C12.7239 10.5 12.5 10.7239 12.5 11V13C12.5 13.2761 12.7239 13.5 13 13.5H21C21.2761 13.5 21.5 13.2761 21.5 13V11C21.5 10.7239 21.2761 10.5 21 10.5H13Z" fill="#01052A"/>
<path d="M0 22.5C0 21.6716 0.671573 21 1.5 21H22.5C23.3284 21 24 21.6716 24 22.5C24 23.3284 23.3284 24 22.5 24H1.5C0.671573 24 0 23.3284 0 22.5Z" fill="#01052A"/>
</svg>
