<svg width="20" height="20" viewBox="0 0 20 20" fill="none" xmlns="http://www.w3.org/2000/svg">
<path d="M8.64145 6.30566C7.69434 7.02493 6.79828 7.8093 5.95976 8.65312C2.00809 12.6129 0.00724007 17.0252 1.48842 18.5108C2.9696 19.995 7.37425 17.9887 11.3245 14.0303C12.1667 13.1896 12.9494 12.2912 13.6672 11.3417" stroke="#01052A" stroke-width="1.25" stroke-linecap="round" stroke-linejoin="round"/>
<path d="M13.6678 11.3416C15.9979 14.4409 16.9469 17.3564 15.7965 18.5093C14.3139 19.9949 9.91064 17.9885 5.95896 14.0302C2.01007 10.069 0.00922421 5.65811 1.49041 4.1725C2.64089 3.02104 5.55046 3.972 8.64343 6.30554" stroke="#01052A" stroke-width="1.25" stroke-linecap="round" stroke-linejoin="round"/>
<path d="M7.94629 11.3417C7.94629 11.5263 8.01948 11.7034 8.14977 11.8339C8.28006 11.9645 8.45677 12.0378 8.64103 12.0378C8.82528 12.0378 9.00199 11.9645 9.13228 11.8339C9.26257 11.7034 9.33577 11.5263 9.33577 11.3417C9.33577 11.157 9.26257 10.98 9.13228 10.8494C9.00199 10.7188 8.82528 10.6455 8.64103 10.6455C8.45677 10.6455 8.28006 10.7188 8.14977 10.8494C8.01948 10.98 7.94629 11.157 7.94629 11.3417ZM11.4339 5.27949C10.9962 5.20291 10.9962 4.57497 11.4339 4.49978C12.2069 4.36504 12.9224 4.00266 13.4891 3.45886C14.0558 2.91506 14.448 2.21447 14.6158 1.44642L14.6408 1.32529C14.7353 0.893667 15.3494 0.890882 15.4467 1.32111L15.48 1.46173C15.6541 2.22639 16.0498 2.92245 16.6174 3.46248C17.185 4.00251 17.8992 4.36242 18.6703 4.497C19.1093 4.57358 19.1093 5.20569 18.6703 5.28088C17.8992 5.41546 17.185 5.77537 16.6174 6.3154C16.0498 6.85543 15.6541 7.55149 15.48 8.31614L15.4467 8.45677C15.3494 8.88839 14.7353 8.8856 14.6408 8.45398L14.613 8.33285C14.4452 7.5648 14.053 6.86421 13.4863 6.32041C12.9196 5.77661 12.2041 5.41423 11.4311 5.27949H11.4339Z" stroke="#01052A" stroke-width="1.25" stroke-linecap="round" stroke-linejoin="round"/>
</svg>
