<svg width="17" height="18" viewBox="0 0 17 18" fill="none" xmlns="http://www.w3.org/2000/svg">
<path d="M7.92977 1.23213e-05C4.57282 -0.0112375 -1.88532 7.68439 0.527389 9.72286L1.11988 10.2246C0.960514 10.6535 0.904 11.1138 0.954882 11.5686C1.01788 12.1986 1.34338 12.8016 1.86987 13.268C2.36936 13.7105 3.02635 13.991 3.66384 13.991C4.71832 16.421 7.12878 17.912 9.95324 17.996C12.9832 18.086 15.5279 16.664 16.5936 14.1095C16.6634 13.9295 16.9596 13.1226 16.9596 12.4093C16.9596 11.6923 16.5546 11.3953 16.2959 11.3953C16.2884 11.3676 16.2374 11.1808 16.1669 10.9558C16.0964 10.7308 16.0244 10.5733 16.0244 10.5733C16.3056 10.1511 16.3109 9.7746 16.2734 9.56086C16.2336 9.29611 16.1234 9.07112 15.9014 8.83787C15.6794 8.60462 15.2249 8.36538 14.5867 8.18688L14.2522 8.09388C14.2507 8.07963 14.2342 7.30414 14.2199 6.97115C14.2094 6.73115 14.1884 6.35466 14.0722 5.98492C13.9327 5.48392 13.6912 5.04518 13.3889 4.76469C14.2229 3.9007 14.7434 2.94821 14.7419 2.13148C14.7397 0.560253 12.8099 0.084761 10.4325 1.0695L9.92849 1.28324L9.0045 0.378006C8.70751 0.11926 8.34226 0.0015123 7.92977 1.23213e-05ZM7.98452 0.654752C8.10952 0.654752 8.22576 0.669252 8.33326 0.698251C8.55601 0.76125 9.29325 1.61624 9.29325 1.61624C9.29325 1.61624 7.92377 2.37597 6.65329 3.43571C4.94332 4.75344 3.64959 6.6689 2.8756 8.74712C2.26736 8.86562 1.73112 9.21061 1.40337 9.68686C1.20763 9.52336 0.842384 9.20686 0.777885 9.08387C0.254393 8.08938 1.34863 6.15741 2.11361 5.06618C3.85509 2.57997 6.50704 0.650252 7.98452 0.654752ZM10.449 3.10946C10.479 3.10796 10.494 3.14696 10.47 3.16496C10.3627 3.24746 10.2457 3.35996 10.1602 3.47546C10.1569 3.47986 10.1549 3.48509 10.1544 3.49058C10.1538 3.49606 10.1548 3.50158 10.1572 3.50654C10.1596 3.5115 10.1633 3.5157 10.168 3.51869C10.1726 3.52167 10.178 3.52332 10.1835 3.52346C10.6777 3.52646 11.3737 3.6997 11.8275 3.95395C11.8582 3.9712 11.8365 4.0312 11.802 4.02295C11.1157 3.86545 9.99149 3.7462 8.8245 4.03045C7.78202 4.28544 6.98703 4.67769 6.40654 5.09993C6.37654 5.12093 6.34204 5.08268 6.36529 5.05493C7.03728 4.27869 7.86452 3.6037 8.60551 3.22496C8.63101 3.21146 8.65801 3.23921 8.64451 3.26396C8.58526 3.37121 8.47201 3.5992 8.43601 3.77245C8.43076 3.7987 8.46001 3.8197 8.48251 3.80395C8.94375 3.48896 9.74549 3.15296 10.449 3.10946ZM12.7162 5.51317L12.7582 5.51392C12.88 5.51887 12.9982 5.55671 13.1002 5.62342C13.5007 5.88967 13.5577 6.53541 13.5787 7.00715C13.5899 7.27715 13.6229 7.92888 13.6342 8.11563C13.6597 8.54387 13.7722 8.60387 13.9994 8.67887C14.1269 8.72162 14.2469 8.75237 14.4217 8.80187C14.9512 8.95037 15.2654 9.10187 15.4641 9.29536C15.5819 9.41686 15.6366 9.54511 15.6539 9.66811C15.7161 10.1241 15.2999 10.6881 14.1974 11.1988C12.9922 11.7583 11.5297 11.9001 10.5195 11.7876L10.1662 11.7478C9.35775 11.6391 8.8965 12.6831 9.38175 13.3985C9.69449 13.8598 10.5457 14.1598 11.3977 14.1598C13.3507 14.1598 14.8514 13.3265 15.4101 12.6058C15.4262 12.5854 15.4413 12.5641 15.4551 12.5421C15.4821 12.5008 15.4596 12.4783 15.4251 12.5016C14.9692 12.8136 12.9427 14.0533 10.7752 13.6798C10.7752 13.6798 10.512 13.637 10.2712 13.5433C10.08 13.4683 9.68024 13.2853 9.63149 12.8751C11.3812 13.415 12.4822 12.9043 12.4822 12.9043C12.4925 12.8999 12.5012 12.8922 12.5069 12.8825C12.5125 12.8728 12.5149 12.8615 12.5137 12.8503C12.513 12.8437 12.5111 12.8373 12.5079 12.8314C12.5048 12.8256 12.5005 12.8204 12.4953 12.8162C12.4902 12.812 12.4842 12.8089 12.4779 12.807C12.4715 12.8052 12.4648 12.8046 12.4582 12.8053C12.4582 12.8053 11.025 13.0176 9.66974 12.5218C9.81749 12.0418 10.2097 12.2158 10.8022 12.2631C11.7241 12.3184 12.6487 12.2185 13.5374 11.9676C14.1509 11.7921 14.9564 11.4448 15.5826 10.9506C15.7934 11.4141 15.8676 11.9248 15.8676 11.9248C15.8676 11.9248 16.0319 11.8948 16.1676 11.9796C16.2974 12.0591 16.3919 12.2241 16.3274 12.6508C16.1954 13.448 15.8564 14.0953 15.2872 14.6908C14.9314 15.0757 14.5078 15.392 14.0377 15.6238C13.7822 15.7588 13.5104 15.8738 13.2224 15.9688C11.0752 16.67 8.877 15.899 8.16827 14.2438C8.11101 14.1171 8.06362 13.9862 8.02652 13.8523C7.72427 12.7611 7.98152 11.4523 8.78251 10.6281C8.83125 10.5756 8.8815 10.5133 8.8815 10.4361C8.8815 10.3708 8.84025 10.3018 8.80501 10.2538C8.52451 9.8466 7.55328 9.15436 7.74827 7.81339C7.88852 6.8504 8.73076 6.17166 9.51599 6.21216L9.71549 6.22341C10.0552 6.24366 10.353 6.28716 10.6327 6.29841C11.1015 6.31941 11.523 6.25116 12.0225 5.83492C12.1912 5.69467 12.3262 5.57242 12.5549 5.53417C12.5759 5.53042 12.6239 5.51317 12.7162 5.51317ZM12.7327 7.14815C12.7176 7.14826 12.7026 7.14952 12.6877 7.1519C12.4364 7.1924 12.4274 7.50289 12.5167 7.93188C12.5677 8.17188 12.6569 8.37813 12.7567 8.50562C12.8887 8.49012 13.0132 8.49012 13.1302 8.50562C13.1969 8.35188 13.2082 8.08788 13.1482 7.79914C13.0642 7.39789 12.9524 7.14515 12.7327 7.14815ZM9.98774 8.30763C9.71424 8.30629 9.4474 8.39191 9.22575 8.55212C9.10575 8.63987 8.9925 8.76212 9.00825 8.83562C9.01425 8.85962 9.0315 8.87762 9.07425 8.88287C9.1725 8.89412 9.51824 8.72012 9.91574 8.69537C10.1962 8.67812 10.4287 8.76587 10.608 8.84537C10.7872 8.92337 10.8975 8.97512 10.9402 8.93012C10.968 8.90162 10.9597 8.84762 10.917 8.77712C10.8285 8.63312 10.647 8.48688 10.4535 8.40438C10.3062 8.34137 10.1479 8.30848 9.98774 8.30763ZM13.0492 8.91512C12.9209 8.91287 12.8144 9.05462 12.8114 9.23011C12.8084 9.40711 12.9097 9.55261 13.0387 9.55411C13.1677 9.55561 13.2742 9.41536 13.2772 9.23911C13.2802 9.06212 13.1782 8.91737 13.0492 8.91512ZM10.3642 9.04412C10.3267 9.04412 10.288 9.04612 10.248 9.05012C10.0147 9.08762 9.88574 9.16411 9.80324 9.23536C9.73274 9.29686 9.68924 9.36511 9.68924 9.41311C9.68914 9.42056 9.69052 9.42796 9.69331 9.43487C9.69609 9.44178 9.70022 9.44807 9.70545 9.45337C9.71068 9.45867 9.71692 9.46288 9.72379 9.46576C9.73066 9.46863 9.73804 9.47011 9.74549 9.47011C9.79799 9.47011 9.91649 9.42286 9.91649 9.42286C10.156 9.3333 10.4144 9.30645 10.6672 9.34486C10.785 9.35836 10.8397 9.36511 10.866 9.32536C10.8735 9.31336 10.8825 9.28861 10.8585 9.25036C10.8112 9.17311 10.626 9.04862 10.3642 9.04412ZM12.0592 9.34411C11.964 9.34411 11.883 9.38236 11.847 9.45511C11.7907 9.57061 11.8732 9.72736 12.0315 9.8046C12.189 9.8826 12.3637 9.85185 12.4214 9.7371C12.4777 9.62086 12.3952 9.46411 12.2369 9.38686C12.1818 9.35899 12.121 9.34486 12.0592 9.34411ZM3.33309 9.36211C3.36909 9.36211 3.40634 9.36286 3.44484 9.36436C3.99233 9.39436 4.79932 9.81435 4.98382 11.0068C5.14656 12.0643 4.88782 13.1391 3.89708 13.3085C3.80459 13.3235 3.71109 13.33 3.61659 13.328C2.7016 13.3033 1.71237 12.4791 1.61412 11.5018C1.50537 10.4218 2.05736 9.59086 3.0346 9.39361C3.1231 9.37511 3.2226 9.36461 3.33309 9.36211ZM3.28059 10.0573C3.16154 10.0561 3.04354 10.0798 2.93415 10.1268C2.82476 10.1738 2.72639 10.2431 2.64535 10.3303C2.36036 10.6438 2.31611 11.0713 2.37086 11.2228C2.39111 11.2776 2.42336 11.2933 2.44586 11.2963C2.49386 11.3023 2.56586 11.2671 2.61086 11.1463L2.6236 11.1073C2.65103 11.0103 2.6906 10.917 2.74135 10.8298C2.81657 10.7151 2.93427 10.6349 3.06858 10.6069C3.20288 10.579 3.34281 10.6054 3.45759 10.6806C3.65709 10.8111 3.73434 11.0556 3.64884 11.2881C3.60534 11.4088 3.53334 11.6398 3.54909 11.8288C3.58134 12.2121 3.81684 12.3666 4.02908 12.3823C4.23458 12.3898 4.37858 12.2751 4.41533 12.1903C4.43708 12.1401 4.41908 12.1101 4.40708 12.0966C4.37483 12.0568 4.32233 12.0688 4.27208 12.0808C4.23301 12.0917 4.19264 12.0973 4.15208 12.0973C4.10904 12.0983 4.06642 12.0887 4.02797 12.0694C3.98952 12.05 3.95642 12.0215 3.93158 11.9863C3.87308 11.8963 3.87683 11.7613 3.94133 11.6083L3.97133 11.5393C4.07483 11.3083 4.24733 10.9206 4.05383 10.5516C3.90758 10.2741 3.66909 10.1001 3.38334 10.0641C3.34906 10.0592 3.31448 10.0567 3.27984 10.0566L3.28059 10.0573Z" fill="#01052A"/>
</svg>
