<svg width="20" height="20" viewBox="0 0 20 20" fill="none" xmlns="http://www.w3.org/2000/svg">
<path d="M9.98589 15.5821H11.0863M11.0863 15.5821L11.4395 17.3126H8.56049L8.91368 15.5821M11.0863 15.5821L13.205 14.0457M11.0863 15.5821L11.2731 6.34345M11.0863 15.5821L13.6618 16.9016M18.8336 13.9378L13.205 14.0457M18.8336 13.9378L17.7123 9.87788M18.8336 13.9378L17.8159 18.2429L13.6618 16.9016M13.205 14.0457L13.6618 16.9016M13.205 14.0457L15.0536 10.5407M11.2731 6.34345L12.4363 3.33652M11.2731 6.34345L13.745 8.65869M11.2731 6.34345L18.0859 1M12.4363 3.33652L18.0859 1M12.4363 3.33652H9.98589M18.0859 1L19 3.89899L18.1691 7.31738M18.1691 7.31738L18.2523 9.04786L17.7123 9.87788M18.1691 7.31738L18.8959 7.18766M17.7123 9.87788L13.745 8.65869M13.6618 16.9016L11.4395 19H9.98589M13.6618 16.9016L15.6661 13.9986M13.745 8.65869L15.0536 10.5407M18.8959 8.13929L18.2129 8.22594M11.1865 10.6304L15.0536 10.5407M10.0141 15.5821H8.91368M8.91368 15.5821L6.79503 14.0457M8.91368 15.5821L8.72686 6.34345M8.91368 15.5821L6.33822 16.9016M1.16638 13.9378L6.79503 14.0457M1.16638 13.9378L2.28773 9.87788M1.16638 13.9378L2.18411 18.2429L6.33822 16.9016M6.79503 14.0457L6.33822 16.9016M6.79503 14.0457L4.94638 10.5407M8.72686 6.34345L7.56368 3.33652M8.72686 6.34345L6.25503 8.65869M8.72686 6.34345L1.91411 1M7.56368 3.33652L1.91411 1M7.56368 3.33652H10.0141M1.91411 1L1 3.89899L1.83092 7.31738M1.83092 7.31738L1.74773 9.04786L2.28773 9.87788M1.83092 7.31738L1.10362 7.18766M2.28773 9.87788L6.25503 8.65869M6.33822 16.9016L8.56049 19H10.0141M6.33822 16.9016L4.33389 13.9986M6.25503 8.65869L4.94638 10.5407M1.10362 8.13929L1.78714 8.22594M8.81346 10.6304L4.94638 10.5407M11.6784 12.8696L13.2283 12.2691L12.1221 11.6687L11.6784 12.8696ZM8.32162 12.8696L6.77168 12.2691L7.87795 11.6687L8.32162 12.8696Z" stroke="#01052A" stroke-width="0.75" stroke-linecap="round" stroke-linejoin="round"/>
</svg>
