<svg width="21" height="18" viewBox="0 0 21 18" fill="none" xmlns="http://www.w3.org/2000/svg">
<path d="M10.0013 1.78428C10.0062 1.68043 9.99036 1.57664 9.9548 1.4792C9.91925 1.38177 9.86468 1.29272 9.7944 1.21744C9.72412 1.14217 9.6396 1.08225 9.54596 1.0413C9.45231 1.00036 9.3515 0.979247 9.24963 0.979247C9.14775 0.979247 9.04694 1.00036 8.95329 1.0413C8.85965 1.08225 8.77513 1.14217 8.70485 1.21744C8.63457 1.29272 8.58 1.38177 8.54445 1.4792C8.50889 1.57664 8.49309 1.68043 8.498 1.78428V14.4975C8.48778 14.9639 8.29905 15.4078 7.97222 15.7339C7.64539 16.0601 7.20643 16.2428 6.74931 16.2428C6.29219 16.2428 5.85323 16.0601 5.5264 15.7339C5.19957 15.4078 5.01085 14.9639 5.00063 14.4975V6.34054C5.00554 6.23669 4.98974 6.1329 4.95418 6.03547C4.91862 5.93803 4.86405 5.84898 4.79377 5.77371C4.7235 5.69843 4.63897 5.63851 4.54533 5.59756C4.45169 5.55662 4.35087 5.53551 4.249 5.53551C4.14713 5.53551 4.04631 5.55662 3.95267 5.59756C3.85903 5.63851 3.77451 5.69843 3.70423 5.77371C3.63395 5.84898 3.57938 5.93803 3.54382 6.03547C3.50827 6.1329 3.49246 6.23669 3.49737 6.34054V9.79659C3.48715 10.263 3.29843 10.7068 2.9716 11.033C2.64477 11.3592 2.20581 11.5418 1.74869 11.5418C1.29157 11.5418 0.852607 11.3592 0.525778 11.033C0.198949 10.7068 0.0102235 10.263 0 9.79659L0 8.54455C0.00538782 8.41336 0.060244 8.28936 0.153106 8.19847C0.245968 8.10758 0.369652 8.05684 0.498313 8.05684C0.626973 8.05684 0.750657 8.10758 0.843519 8.19847C0.936381 8.28936 0.991237 8.41336 0.996625 8.54455V9.79837C1.00328 9.99741 1.08543 10.186 1.22574 10.3244C1.36605 10.4628 1.55355 10.5402 1.74869 10.5402C1.94382 10.5402 2.13132 10.4628 2.27164 10.3244C2.41195 10.186 2.4941 9.99741 2.50075 9.79837V6.34054C2.51097 5.87412 2.6997 5.43031 3.02653 5.10412C3.35336 4.77794 3.79232 4.59529 4.24944 4.59529C4.70656 4.59529 5.14552 4.77794 5.47235 5.10412C5.79918 5.43031 5.9879 5.87412 5.99813 6.34054V14.4975C6.00478 14.6966 6.08693 14.8852 6.22724 15.0236C6.36755 15.162 6.55505 15.2393 6.75019 15.2393C6.94532 15.2393 7.13282 15.162 7.27314 15.0236C7.41345 14.8852 7.4956 14.6966 7.50225 14.4975V1.78428C7.50225 1.31106 7.68644 0.857222 8.0143 0.522604C8.34216 0.187986 8.78683 0 9.2505 0C9.71416 0 10.1588 0.187986 10.4867 0.522604C10.8146 0.857222 10.9987 1.31106 10.9987 1.78428V12.3114C11.0016 12.38 10.9908 12.4484 10.967 12.5126C10.9432 12.5768 10.907 12.6355 10.8604 12.685C10.8139 12.7346 10.758 12.774 10.6961 12.8009C10.6343 12.8278 10.5677 12.8417 10.5004 12.8417C10.4332 12.8417 10.3666 12.8278 10.3048 12.8009C10.2429 12.774 10.187 12.7346 10.1405 12.685C10.0939 12.6355 10.0577 12.5768 10.0339 12.5126C10.0101 12.4484 9.99931 12.38 10.0021 12.3114L10.0013 1.78428ZM19.2518 4.55715C18.7882 4.55739 18.3437 4.7453 18.0158 5.07965C17.6879 5.414 17.5033 5.86747 17.5026 6.34054V13.1544C17.4933 13.3514 17.41 13.5373 17.2701 13.6734C17.1302 13.8095 16.9443 13.8854 16.751 13.8854C16.5577 13.8854 16.3718 13.8095 16.2319 13.6734C16.092 13.5373 16.0087 13.3514 15.9994 13.1544V1.78696C15.9892 1.32053 15.8004 0.876726 15.4736 0.55054C15.1468 0.224353 14.7078 0.0417112 14.2507 0.0417112C13.7936 0.0417112 13.3546 0.224353 13.0278 0.55054C12.7009 0.876726 12.5122 1.32053 12.502 1.78696V16.2184C12.4953 16.4174 12.4132 16.6061 12.2729 16.7445C12.1326 16.8829 11.9451 16.9602 11.7499 16.9602C11.5548 16.9602 11.3673 16.8829 11.227 16.7445C11.0867 16.6061 11.0045 16.4174 10.9979 16.2184V14.4296C11.0019 14.3604 10.992 14.291 10.9688 14.2258C10.9456 14.1606 10.9096 14.1009 10.863 14.0504C10.8163 13.9999 10.7601 13.9597 10.6977 13.9322C10.6352 13.9047 10.568 13.8905 10.5 13.8905C10.432 13.8905 10.3648 13.9047 10.3023 13.9322C10.2399 13.9597 10.1837 13.9999 10.137 14.0504C10.0904 14.1009 10.0544 14.1606 10.0312 14.2258C10.008 14.291 9.9981 14.3604 10.0021 14.4296V16.2157C10.0021 16.6889 10.1863 17.1428 10.5142 17.4774C10.842 17.812 11.2867 18 11.7504 18C12.214 18 12.6587 17.812 12.9866 17.4774C13.3144 17.1428 13.4986 16.6889 13.4986 16.2157V1.78428C13.5053 1.58524 13.5874 1.39662 13.7277 1.25822C13.8681 1.11982 14.0556 1.04246 14.2507 1.04246C14.4458 1.04246 14.6333 1.11982 14.7736 1.25822C14.9139 1.39662 14.9961 1.58524 15.0027 1.78428V13.1526C15.0171 13.6161 15.2076 14.0556 15.5339 14.3783C15.8602 14.7009 16.2967 14.8813 16.751 14.8813C17.2053 14.8813 17.6418 14.7009 17.9681 14.3783C18.2944 14.0556 18.4849 13.6161 18.4993 13.1526V6.34144C18.4993 6.13775 18.5785 5.9424 18.7197 5.79837C18.8608 5.65434 19.0522 5.57343 19.2518 5.57343C19.4513 5.57343 19.6427 5.65434 19.7838 5.79837C19.925 5.9424 20.0042 6.13775 20.0042 6.34144V12.3123C20.0118 12.4418 20.0675 12.5636 20.1601 12.6526C20.2526 12.7416 20.375 12.7912 20.5021 12.7912C20.6293 12.7912 20.7517 12.7416 20.8442 12.6526C20.9367 12.5636 20.9925 12.4418 21 12.3123V6.34054C20.9993 5.86762 20.8149 5.41429 20.4871 5.07997C20.1594 4.74564 19.7151 4.55763 19.2518 4.55715Z" fill="#01052A"/>
</svg>
