<svg width="18" height="12" viewBox="0 0 18 12" fill="none" xmlns="http://www.w3.org/2000/svg">
<path d="M4.9059 0.971642C5.26747 0.472211 5.81088 0.134941 6.4189 0.0325984C7.02692 -0.069744 7.6508 0.071046 8.15594 0.424592C8.66108 0.778138 9.00698 1.3161 9.11902 1.92241C9.23105 2.52871 9.10024 3.15476 8.75481 3.66548L4.26298 10.0806C3.90347 10.5855 3.35898 10.9278 2.74816 11.0331C2.13734 11.1383 1.50969 10.9979 1.00193 10.6424C0.494183 10.2869 0.147486 9.74521 0.0373767 9.13525C-0.0727325 8.52529 0.0626691 7.89653 0.414082 7.38596L4.9059 0.971642ZM11.5536 1.04055C11.911 0.530158 12.4566 0.182656 13.0702 0.0744947C13.6839 -0.0336665 14.3153 0.106373 14.8257 0.463806C15.3361 0.821239 15.6836 1.36679 15.7918 1.98043C15.9 2.59408 15.7599 3.22556 15.4025 3.73596L10.9107 10.1503C10.5511 10.6552 10.0067 10.9975 9.39584 11.1028C8.78502 11.208 8.15736 11.0676 7.64961 10.7121C7.14186 10.3566 6.79516 9.8149 6.68505 9.20494C6.57494 8.59498 6.71035 7.96622 7.06176 7.45565L11.5536 1.04055ZM15.6507 10.9326C16.2738 10.9326 16.8713 10.6851 17.3119 10.2445C17.7525 9.80392 18 9.20637 18 8.5833C18 7.96024 17.7525 7.36269 17.3119 6.92211C16.8713 6.48154 16.2738 6.23403 15.6507 6.23403C15.0277 6.23403 14.4301 6.48154 13.9895 6.92211C13.549 7.36269 13.3014 7.96024 13.3014 8.5833C13.3014 9.20637 13.549 9.80392 13.9895 10.2445C14.4301 10.6851 15.0277 10.9326 15.6507 10.9326Z" fill="black"/>
</svg>
