<svg width="18" height="18" viewBox="0 0 18 18" fill="none" xmlns="http://www.w3.org/2000/svg">
<path fill-rule="evenodd" clip-rule="evenodd" d="M14.94 0.368172L15.13 0.47952L17.11 1.73575C17.3604 1.8948 17.5699 2.10561 17.7228 2.35246C17.8757 2.59931 17.9681 2.87582 17.993 3.16138L18 3.31936V15.2526C18 15.7066 17.8294 16.1456 17.5192 16.4904C17.2089 16.8353 16.7793 17.0632 16.308 17.1331L16.153 17.1503L4.624 17.9944C4.31712 18.0169 4.00894 17.9716 3.72344 17.8622C3.43795 17.7527 3.18285 17.582 2.978 17.3634L2.871 17.2388L0.6 14.357C0.254861 13.919 0.0493633 13.3957 0.0079999 12.8496L0 12.644V2.73978C3.37966e-05 2.2858 0.17057 1.84677 0.480836 1.50194C0.791101 1.1571 1.22066 0.929157 1.692 0.859244L1.847 0.842113L13.235 0.00843393C13.8279 -0.0350298 14.421 0.0901836 14.939 0.368172H14.94ZM16 4.78972L5 5.59485V16.0577L16 15.2526V4.78972ZM13 6.14112C13.2652 6.14112 13.5196 6.24138 13.7071 6.41986C13.8946 6.59834 14 6.8404 14 7.09281V13.7546C14 14.007 13.8946 14.2491 13.7071 14.4276C13.5196 14.606 13.2652 14.7063 13 14.7063H12.5C12.3292 14.7064 12.1611 14.6647 12.012 14.5854C11.8628 14.5061 11.7375 14.3918 11.648 14.2533L9 10.1572V14.2305C9 14.4829 8.89464 14.7249 8.70711 14.9034C8.51957 15.0819 8.26522 15.1822 8 15.1822C7.73478 15.1822 7.48043 15.0819 7.29289 14.9034C7.10536 14.7249 7 14.4829 7 14.2305V7.56865C7 7.31625 7.10536 7.07418 7.29289 6.8957C7.48043 6.71723 7.73478 6.61696 8 6.61696H8.5C8.67085 6.61692 8.83886 6.65853 8.98801 6.73783C9.13716 6.81713 9.26248 6.93148 9.352 7.06996L12 11.1651V7.09281C12 6.8404 12.1054 6.59834 12.2929 6.41986C12.4804 6.24138 12.7348 6.14112 13 6.14112ZM13.388 1.9061L3.245 2.64842L4.382 3.73049L15.38 2.92631L14.02 2.06313C13.8337 1.94494 13.6112 1.88964 13.388 1.9061Z" fill="#01052A"/>
</svg>
