<svg width="14" height="18" viewBox="0 0 14 18" fill="none" xmlns="http://www.w3.org/2000/svg">
<path d="M12.5069 13.9035C12.99 13.1769 13.4547 12.4381 13.9004 11.688C13.9605 11.5835 13.9881 11.4636 13.9798 11.3434C13.9716 11.2232 13.9277 11.1082 13.8539 11.013C13.4669 10.4992 12.7259 9.45669 12.3224 8.49143C11.9076 7.50066 11.8454 5.96014 11.8424 5.20863C11.8435 4.92348 11.7489 4.64621 11.5739 4.42112L9.17535 1.37307C9.16568 1.50996 9.14664 1.64604 9.11835 1.78032C9.03884 2.15758 8.88809 2.53334 8.71634 2.90534C8.61584 3.12284 8.49884 3.35535 8.38183 3.59085L8.14933 4.06036C7.76232 4.86137 7.40157 5.73064 7.30032 6.7529C7.20732 7.69792 7.33482 8.80043 7.91158 10.1137C8.00758 10.1217 8.10408 10.1327 8.20108 10.1467C9.12503 10.2711 9.99228 10.6635 10.6956 11.2755C11.3826 11.868 12.0036 12.717 12.5069 13.9005V13.9035ZM4.13977 16.9268C4.19477 16.9363 4.24977 16.9413 4.30477 16.9418C4.88978 16.9598 5.87604 17.0108 6.67481 17.1593C7.32732 17.2793 8.61959 17.6393 9.68235 17.9506C10.4946 18.1876 11.3309 17.5396 11.4486 16.7026C11.5341 16.0921 11.6961 15.4013 11.9924 14.7675L11.9849 14.7713C11.4824 13.3688 10.8434 12.4627 10.1729 11.8845C9.58569 11.3729 8.8612 11.0451 8.08933 10.9417C6.93431 10.7797 5.87529 11.0842 5.20928 11.2792C5.60829 12.9427 5.48529 14.901 4.14052 16.9276L4.13977 16.9268ZM2.14023 7.45341C2.12273 7.52841 2.09823 7.60092 2.06673 7.67092L0.105453 12.0442C0.00679854 12.2638 -0.0235689 12.5079 0.0182944 12.7449C0.0601577 12.9819 0.172317 13.2008 0.340206 13.3733L3.42726 16.5533C5.00453 14.2275 4.77428 12.0382 4.05427 10.3282C3.50826 9.03069 2.68024 8.01742 2.14173 7.45491L2.14023 7.45341ZM4.98053 10.5075C5.44179 10.3702 6.18505 10.1587 7.03931 10.107C6.52705 8.81318 6.4033 7.68217 6.5023 6.67415C6.61781 5.51013 7.02731 4.53887 7.42857 3.7116C7.51357 3.5366 7.59557 3.3706 7.67457 3.2136C7.78632 2.99084 7.89058 2.78084 7.98883 2.56859C8.15158 2.21608 8.27308 1.90483 8.33383 1.61607C8.39383 1.33107 8.39383 1.07606 8.32333 0.833809C8.25208 0.590055 8.10058 0.327551 7.81332 0.0387961C7.62099 -0.0113347 7.41922 -0.012907 7.22612 0.0342205C7.03303 0.081348 6.85467 0.175699 6.70706 0.3088L2.9945 3.64785C2.78726 3.83399 2.65124 4.08642 2.60974 4.36186L2.28949 6.4844C2.7935 6.9269 4.03552 8.22143 4.79078 10.0177C4.85878 10.1762 4.92203 10.3395 4.98053 10.5075Z" fill="#01052A"/>
</svg>
