<svg width="20" height="20" viewBox="0 0 20 20" fill="none" xmlns="http://www.w3.org/2000/svg">
<path d="M9.29525 16.8751C9.5525 17.5917 10.045 18.1919 10.6867 18.571C11.3284 18.95 12.0784 19.0838 12.8057 18.9488C13.5331 18.8138 14.1914 18.4187 14.6657 17.8325C15.1399 17.2463 15.4 16.5064 15.4004 15.742V10.9311L10 7.81196M3.89219 12.8063C3.42053 13.395 3.16395 14.1365 3.16733 14.9012C3.17071 15.6658 3.43383 16.4049 3.91067 16.9891C4.38752 17.5734 5.04774 17.9657 5.77587 18.0973C6.50401 18.229 7.2537 18.0916 7.89386 17.7093L11.8001 15.35V8.88271M4.59964 5.93119C3.34766 5.71145 2.09117 6.29896 1.41883 7.50378C1.00431 8.24659 0.891957 9.12931 1.10648 9.9578C1.32101 10.7863 1.84485 11.4927 2.5628 11.9217L6.39976 14.2625L11.8001 11.1452M10.7047 3.12491C10.4475 2.40833 9.955 1.80806 9.31332 1.42901C8.67163 1.04996 7.92158 0.916247 7.19427 1.05124C6.46695 1.18623 5.80862 1.58134 5.33435 2.16752C4.86007 2.75369 4.60002 3.49364 4.59964 4.25804V8.97581L10 12.188M16.1078 7.19373C16.5795 6.60499 16.836 5.86346 16.8327 5.09882C16.8293 4.33418 16.5662 3.59511 16.0893 3.01085C15.6125 2.42659 14.9523 2.03434 14.2241 1.90269C13.496 1.77104 12.7463 1.90837 12.1061 2.29067L8.19988 4.65002V11.1173M15.4004 14.0055C16.6523 14.2252 17.9088 13.6377 18.5812 12.4329C18.9957 11.6901 19.108 10.8074 18.8935 9.97888C18.679 9.15039 18.1551 8.44396 17.4372 8.01494L13.5597 5.67421L8.19988 8.8585" stroke="#01052A" stroke-width="1.25" stroke-linecap="round" stroke-linejoin="round"/>
</svg>
