<svg width="16" height="17" viewBox="0 0 16 17" fill="none" xmlns="http://www.w3.org/2000/svg">
<path d="M1.68421 16.5C1.22105 16.5 0.824702 16.3261 0.495158 15.9782C0.165614 15.6304 0.000561404 15.2117 0 14.7222V2.27778C0 1.78889 0.165053 1.37052 0.495158 1.02267C0.825263 0.674815 1.22161 0.500593 1.68421 0.5H13.4737C13.9368 0.5 14.3335 0.674222 14.6636 1.02267C14.9937 1.37111 15.1585 1.78948 15.1579 2.27778V4.05556L13.682 4.05556V2L1.5 2V15L13.682 15V12.9444L15.1579 12.9444V14.7222C15.1579 15.2111 14.9931 15.6298 14.6636 15.9782C14.334 16.3267 13.9374 16.5006 13.4737 16.5H1.68421ZM11.7895 12.9444L10.6105 11.7L12.7789 9.38889H5.05263V7.61111L12.7789 7.61111L10.6105 5.3L11.7895 4.05556L16 8.5L11.7895 12.9444Z" fill="#01052A" fill-opacity="0.85"/>
</svg>
