<svg width="20" height="17" viewBox="0 0 20 17" fill="none" xmlns="http://www.w3.org/2000/svg">
<path d="M10.0322 2.5C10.8988 2.5 11.7116 2.62847 12.4707 2.88542C13.2298 3.14236 13.8923 3.51389 14.458 4C15.0238 4.48611 15.4678 5.07639 15.79 5.77083C16.1123 6.46528 16.277 7.25 16.2842 8.125C16.2842 8.58333 16.2233 9.05903 16.1016 9.55208C15.9798 10.0451 15.7865 10.4965 15.5215 10.9062C15.2565 11.316 14.9235 11.6528 14.5225 11.9167C14.1214 12.1806 13.638 12.3125 13.0723 12.3125C12.4564 12.3125 12.0124 12.1493 11.7402 11.8229C11.4681 11.4965 11.3285 11.0486 11.3213 10.4792H11.2783C11.1136 11.0278 10.8486 11.4688 10.4834 11.8021C10.1182 12.1354 9.62402 12.3056 9.00098 12.3125C8.57845 12.3125 8.2168 12.2326 7.91602 12.0729C7.61523 11.9132 7.36458 11.6979 7.16406 11.4271C6.96354 11.1563 6.81673 10.8507 6.72363 10.5104C6.63053 10.1701 6.58398 9.8125 6.58398 9.4375C6.58398 8.95139 6.64844 8.46528 6.77734 7.97917C6.90625 7.49306 7.11035 7.05903 7.38965 6.67708C7.66895 6.29514 8.0127 5.98611 8.4209 5.75C8.8291 5.51389 9.32682 5.39236 9.91406 5.38542C10.0788 5.38542 10.2435 5.40625 10.4082 5.44792C10.5729 5.48958 10.734 5.55208 10.8916 5.63542C11.0492 5.71875 11.1816 5.82292 11.2891 5.94792C11.3965 6.07292 11.4824 6.21875 11.5469 6.38542V6.33333C11.5612 6.19444 11.5719 6.05556 11.5791 5.91667C11.5863 5.77778 11.6006 5.63889 11.6221 5.5H12.6211L12.3633 8.47917C12.3418 8.70139 12.3167 8.92708 12.2881 9.15625C12.2594 9.38542 12.2451 9.61111 12.2451 9.83333C12.2451 9.98611 12.2523 10.1528 12.2666 10.3333C12.2809 10.5139 12.3239 10.6875 12.3955 10.8542C12.4671 11.0208 12.5602 11.1563 12.6748 11.2604C12.7894 11.3646 12.9613 11.4201 13.1904 11.4271C13.4482 11.4271 13.6774 11.375 13.8779 11.2708C14.0785 11.1667 14.2503 11.0243 14.3936 10.8438C14.5368 10.6632 14.6621 10.4653 14.7695 10.25C14.877 10.0347 14.9593 9.80208 15.0166 9.55208C15.0739 9.30208 15.1169 9.0625 15.1455 8.83333C15.1742 8.60417 15.1885 8.38889 15.1885 8.1875C15.1885 7.42361 15.0596 6.74306 14.8018 6.14583C14.5439 5.54861 14.1859 5.04514 13.7275 4.63542C13.2692 4.22569 12.7178 3.91319 12.0732 3.69792C11.4287 3.48264 10.7269 3.375 9.96777 3.375C9.14421 3.375 8.39941 3.52431 7.7334 3.82292C7.06738 4.12153 6.49447 4.52431 6.01465 5.03125C5.53483 5.53819 5.16602 6.13542 4.9082 6.82292C4.65039 7.51042 4.52148 8.23611 4.52148 9C4.52148 9.79861 4.64681 10.5208 4.89746 11.1667C5.14811 11.8125 5.51335 12.3681 5.99316 12.8333C6.47298 13.2986 7.04232 13.6528 7.70117 13.8958C8.36003 14.1389 9.1084 14.2639 9.94629 14.2708C10.5264 14.2708 11.0993 14.2257 11.665 14.1354C12.2308 14.0451 12.7786 13.8785 13.3086 13.6354V14.5938C12.7715 14.816 12.2093 14.9653 11.6221 15.0417C11.0348 15.1181 10.4512 15.1597 9.87109 15.1667C8.91862 15.1667 8.0485 15.0243 7.26074 14.7396C6.47298 14.4549 5.79622 14.0451 5.23047 13.5104C4.66471 12.9757 4.2207 12.3299 3.89844 11.5729C3.57617 10.816 3.41862 9.97222 3.42578 9.04167C3.42578 8.10417 3.58691 7.23611 3.90918 6.4375C4.23145 5.63889 4.68262 4.94792 5.2627 4.36458C5.84277 3.78125 6.53743 3.32639 7.34668 3C8.15592 2.67361 9.05111 2.50694 10.0322 2.5ZM9.19434 11.4062C9.63118 11.4062 9.98926 11.2882 10.2686 11.0521C10.5479 10.816 10.7663 10.5174 10.9238 10.1562C11.0814 9.79514 11.1888 9.41667 11.2461 9.02083C11.3034 8.625 11.3356 8.26042 11.3428 7.92708C11.3428 7.69097 11.3177 7.47222 11.2676 7.27083C11.2174 7.06944 11.1387 6.89583 11.0312 6.75C10.9238 6.60417 10.7734 6.48958 10.5801 6.40625C10.3867 6.32292 10.1611 6.28125 9.90332 6.28125C9.48796 6.28125 9.14062 6.38542 8.86133 6.59375C8.58203 6.80208 8.35645 7.0625 8.18457 7.375C8.0127 7.6875 7.89095 8.02778 7.81934 8.39583C7.74772 8.76389 7.70833 9.11458 7.70117 9.44792C7.70117 9.67708 7.72624 9.90625 7.77637 10.1354C7.8265 10.3646 7.90885 10.5764 8.02344 10.7708C8.13802 10.9653 8.29199 11.1181 8.48535 11.2292C8.67871 11.3403 8.91504 11.3993 9.19434 11.4062ZM0 0.5H4.125V1.83333H1.375V15.1667H4.125V16.5H0V0.5ZM20 0.5V16.5H15.875V15.1667H18.625V1.83333H15.875V0.5H20Z" fill="#01052A"/>
</svg>
