<svg width="18" height="18" viewBox="0 0 18 18" fill="none" xmlns="http://www.w3.org/2000/svg">
<path d="M12.3488 12.2992L12.7697 11.8584L11.7923 10.8231L11.3732 11.2639L12.3488 12.2992ZM14.181 11.6735L15.9448 12.6845L16.6048 11.4021L14.8418 10.3921L14.181 11.6735ZM16.2836 14.6927L14.9729 16.0676L15.9485 17.1019L17.2592 15.728L16.2836 14.6927ZM14.1736 16.5093C12.8353 16.6417 9.37405 16.5239 5.62486 12.5949L4.64834 13.6292C8.73903 17.9173 12.6331 18.1274 14.3028 17.963L14.1736 16.5093ZM5.62486 12.5949C2.05197 8.84891 1.45941 5.69931 1.38557 4.33225L0.00292904 4.41495C0.0952281 6.13521 0.829006 9.62633 4.64834 13.6292L5.62486 12.5949ZM6.89397 6.58182L7.15887 6.30354L6.18419 5.26925L5.9193 5.54655L6.89397 6.58182ZM7.36931 2.76669L6.20635 1.12816L5.09784 2.00386L6.2608 3.64142L7.36931 2.76669ZM2.29194 0.771074L0.84285 2.28895L1.81937 3.32422L3.26755 1.80634L2.29194 0.771074ZM6.40664 6.06418C5.91745 5.54655 5.91745 5.54655 5.91745 5.5485H5.91561L5.91284 5.55239C5.86897 5.59901 5.8297 5.65019 5.79562 5.70515C5.74577 5.78299 5.69132 5.88515 5.64517 6.01456C5.53282 6.34862 5.50483 6.70774 5.56395 7.05664C5.68763 7.89829 6.23773 9.01042 7.64621 10.4874L8.62274 9.45217C7.30378 8.07051 6.98997 7.22984 6.93182 6.83285C6.90413 6.64409 6.93274 6.55068 6.94105 6.52928C6.94659 6.5163 6.94659 6.51436 6.94105 6.52344C6.93282 6.53687 6.92356 6.54956 6.91336 6.56139L6.90413 6.57112L6.8949 6.57987L6.40664 6.06418ZM7.64621 10.4874C9.05562 11.9644 10.1161 12.5405 10.9154 12.6689C11.3243 12.7351 11.6538 12.6825 11.904 12.5842C12.0441 12.5302 12.175 12.4527 12.2916 12.3546L12.3378 12.3108L12.3442 12.305L12.347 12.3021L12.3479 12.3001C12.3479 12.3001 12.3488 12.2992 11.8606 11.7815C11.3714 11.2639 11.3742 11.2629 11.3742 11.2629L11.376 11.261L11.3779 11.259L11.3834 11.2542L11.3926 11.2444L11.4277 11.2152C11.4363 11.2094 11.4342 11.21 11.4212 11.2172C11.3982 11.2259 11.3077 11.2561 11.1259 11.2269C10.7438 11.1646 9.94077 10.8338 8.62274 9.45217L7.64621 10.4874ZM6.20635 1.12719C5.2649 -0.196087 3.41522 -0.406254 2.29194 0.771074L3.26755 1.80634C3.75858 1.29163 4.62988 1.34514 5.09784 2.00386L6.20635 1.12719ZM1.38649 4.33322C1.36803 3.99656 1.51479 3.64434 1.81937 3.32519L0.841927 2.28992C0.346282 2.80951 -0.0441435 3.54509 0.00292904 4.41495L1.38649 4.33322ZM14.9729 16.0676C14.72 16.3342 14.4468 16.484 14.1745 16.5103L14.3028 17.963C14.9812 17.8958 15.5359 17.5358 15.9494 17.1029L14.9729 16.0676ZM7.15887 6.30354C8.06802 5.35098 8.1354 3.84575 7.37024 2.76767L6.26173 3.64239C6.63369 4.16684 6.57831 4.85475 6.18327 5.27022L7.15887 6.30354ZM15.9457 12.6854C16.6998 13.1175 16.817 14.1352 16.2845 14.6937L17.261 15.728C18.4978 14.431 18.1166 12.268 16.6057 11.403L15.9457 12.6854ZM12.7697 11.8594C13.1242 11.4877 13.6946 11.3962 14.1819 11.6745L14.8428 10.3931C13.8422 9.81899 12.6017 9.97758 11.7932 10.8241L12.7697 11.8594Z" fill="#01052A"/>
</svg>
