<svg width="18" height="18" viewBox="0 0 18 18" fill="none" xmlns="http://www.w3.org/2000/svg">
<g clip-path="url(#clip0_5225_51)">
<path d="M15.438 14.3301L13.0777 11.9691L14.9328 10.1134L16.1947 11.3757L15.438 14.3301ZM14.9328 7.88658L13.0777 6.03092L15.438 3.66991L16.1947 6.62443L14.9328 7.88658ZM11.3718 1.79956L14.3251 2.55637L11.9649 4.91754L10.1099 3.06188L11.3718 1.79956ZM7.88386 3.06192L6.02882 4.91754L3.66865 2.55647L6.622 1.79956L7.88386 3.06192ZM2.55545 3.66971L4.91582 6.03098L3.06088 7.88658L1.79881 6.62404L2.55545 3.66971ZM3.06088 10.1133L4.91582 11.9689L2.55545 14.3301L1.79881 11.3758L3.06088 10.1133ZM6.6219 16.2004L3.66845 15.4435L6.02882 13.0824L7.88382 14.9381L6.6219 16.2004ZM10.8518 11.969L8.99682 13.8247L7.14176 11.969L8.99682 10.1133L10.8518 11.969ZM11.9648 7.14426L13.8198 8.99998L11.9648 10.8556L10.1098 8.99998L11.9648 7.14426ZM7.88382 8.99998L6.02882 10.8556L4.17388 8.99998L6.02882 7.14436L7.88382 8.99998ZM7.14188 6.03098L8.99686 4.17532L10.8518 6.03092L8.99682 7.88658L7.14188 6.03098ZM10.1098 14.9381L11.9648 13.0825L14.325 15.4435L11.3716 16.2003L10.1098 14.9381ZM16.5559 16.5618L17.9936 10.9484L16.0458 9.00002L17.9934 7.0515L16.5558 1.43809L10.9444 0L8.99686 1.94848L7.04892 5.4251e-05L1.43757 1.43825L0 7.0516L1.94789 8.99998L0 10.9485L1.43757 16.5619L7.04902 18L8.99682 16.0514L10.9445 17.9999L16.5559 16.5618Z" fill="#01052A"/>
</g>
<defs>
<clipPath id="clip0_5225_51">
<rect width="18" height="18" fill="white"/>
</clipPath>
</defs>
</svg>
