<svg width="21" height="22" viewBox="0 0 21 22" fill="none" xmlns="http://www.w3.org/2000/svg">
<path d="M8.33333 4.33341H9.66667M6.33333 6.33341V3.00008C6.33333 2.64646 6.47381 2.30732 6.72386 2.05727C6.97391 1.80722 7.31304 1.66675 7.66667 1.66675H13C13.3536 1.66675 13.6928 1.80722 13.9428 2.05727C14.1929 2.30732 14.3333 2.64646 14.3333 3.00008V9.66675C14.3333 10.0204 14.1929 10.3595 13.9428 10.6096C13.6928 10.8596 13.3536 11.0001 13 11.0001H7.66667C7.31304 11.0001 6.97391 11.1406 6.72386 11.3906C6.47381 11.6407 6.33333 11.9798 6.33333 12.3334V19.0001C6.33333 19.3537 6.47381 19.6928 6.72386 19.9429C6.97391 20.1929 7.31304 20.3334 7.66667 20.3334H13C13.3536 20.3334 13.6928 20.1929 13.9428 19.9429C14.1929 19.6928 14.3333 19.3537 14.3333 19.0001V15.6667M11 7.00008H2.33333C1.97971 7.00008 1.64057 7.14056 1.39052 7.39061C1.14048 7.64065 1 7.97979 1 8.33341V15.0001C1 15.3537 1.14048 15.6928 1.39052 15.9429C1.64057 16.1929 1.97971 16.3334 2.33333 16.3334H6.33333M9.66667 15.0001H18.3333C18.687 15.0001 19.0261 14.8596 19.2761 14.6096C19.5262 14.3595 19.6667 14.0204 19.6667 13.6667V7.00008C19.6667 6.64646 19.5262 6.30732 19.2761 6.05727C19.0261 5.80722 18.687 5.66675 18.3333 5.66675H14.3333M11 17.6667H12.3333" stroke="#01052A" stroke-width="1.5"/>
</svg>
