<svg width="18" height="18" viewBox="0 0 18 18" fill="none" xmlns="http://www.w3.org/2000/svg">
<path d="M9 0C6.61305 0 4.32387 0.948211 2.63604 2.63604C0.948211 4.32387 0 6.61305 0 9C0 11.3869 0.948211 13.6761 2.63604 15.364C4.32387 17.0518 6.61305 18 9 18C11.3869 18 13.6761 17.0518 15.364 15.364C17.0518 13.6761 18 11.3869 18 9C18 6.61305 17.0518 4.32387 15.364 2.63604C13.6761 0.948211 11.3869 0 9 0ZM9.4815 3.1005C10.1978 3.1005 10.779 3.68175 10.779 4.40025V11.1997H11.979C12.5525 11.1848 13.0974 10.9464 13.4977 10.5355C13.898 10.1246 14.1221 9.57366 14.1221 9C14.1221 8.42634 13.898 7.87536 13.4977 7.46446C13.0974 7.05356 12.5525 6.81523 11.979 6.80025H11.4795V5.49975H11.9782C12.4375 5.50014 12.8922 5.59099 13.3164 5.76711C13.7405 5.94323 14.1258 6.20116 14.4503 6.52619C14.7748 6.85122 15.032 7.23698 15.2074 7.66143C15.3828 8.08589 15.4729 8.54073 15.4725 9C15.4732 9.45929 15.3833 9.9142 15.2081 10.3387C15.0329 10.7633 14.7757 11.1491 14.4512 11.4742C14.1268 11.7993 13.7414 12.0572 13.3172 12.2333C12.893 12.4093 12.4383 12.5001 11.979 12.5002H9.48225L9.4815 3.1005ZM5.988 5.49975H8.48475V14.8995C7.76775 14.8995 7.18725 14.3175 7.18725 13.5997V6.7995H5.98725C5.41077 6.81014 4.86151 7.04662 4.45759 7.45807C4.05367 7.86951 3.82737 8.42305 3.82737 8.99963C3.82737 9.5762 4.05367 10.1297 4.45759 10.5412C4.86151 10.9526 5.41077 11.1891 5.98725 11.1997H6.48675V12.4995H5.988C5.52878 12.4993 5.0741 12.4086 4.64994 12.2326C4.22579 12.0566 3.84048 11.7987 3.51604 11.4737C3.1916 11.1487 2.93439 10.763 2.75911 10.3385C2.58382 9.91406 2.49391 9.45922 2.4945 9C2.49381 8.54071 2.58365 8.0858 2.75889 7.66126C2.93413 7.23671 3.19132 6.85088 3.51577 6.5258C3.84022 6.20072 4.22557 5.94278 4.64977 5.76672C5.07397 5.59067 5.52871 5.49995 5.988 5.49975Z" fill="#01052A"/>
</svg>
