<svg width="18" height="14" viewBox="0 0 18 14" fill="none" xmlns="http://www.w3.org/2000/svg">
<path d="M14.2178 2.39455C13.6451 2.39455 13.1461 2.56634 12.6553 2.72995C12.0827 1.74011 11.011 1.08566 9.85755 1.08566C8.95769 1.08566 8.13964 1.49469 7.55882 2.06733C6.90438 1.24928 5.91453 0.668457 4.76926 0.668457C2.86319 0.668457 1.22708 2.23094 1.22708 4.13701C1.22708 4.61966 1.39887 5.11049 1.56248 5.60132C1.0914 5.85976 0.698061 6.23957 0.423307 6.70132C0.148553 7.16308 0.00239395 7.68996 0 8.22728C0 9.86339 1.31707 11.2704 2.96136 11.2704C3.20677 11.2704 3.45219 11.2704 3.6158 11.1886C3.94302 12.4239 5.17828 13.3319 6.65896 13.3319C8.04965 13.3319 9.20311 12.5057 9.61214 11.3522C10.0293 11.524 10.4384 11.6876 10.8474 11.6876C11.9191 11.6876 12.9007 11.0905 13.3915 10.207C13.6451 10.2724 13.9069 10.2724 14.136 10.2724C16.2711 10.2724 17.9972 8.56268 17.9972 6.34575C18.079 4.13701 16.3611 2.39455 14.2178 2.39455Z" fill="#01052A"/>
</svg>
