<svg width="31" height="30" viewBox="0 0 31 30" fill="none" xmlns="http://www.w3.org/2000/svg">
<path d="M22.0449 11.1111V20.4444C22.0449 20.8722 21.8925 21.2386 21.5876 21.5434C21.2827 21.8483 20.9166 22.0005 20.4894 22H9.60048C9.1727 22 8.80637 21.8476 8.50148 21.5427C8.19659 21.2378 8.0444 20.8717 8.04492 20.4444V9.55556C8.04492 9.12778 8.19737 8.76145 8.50226 8.45656C8.80715 8.15167 9.17322 7.99948 9.60048 8H18.9338L22.0449 11.1111ZM15.0449 19.6667C15.6931 19.6667 16.244 19.4398 16.6977 18.9861C17.1514 18.5324 17.3783 17.9815 17.3783 17.3333C17.3783 16.6852 17.1514 16.1343 16.6977 15.6806C16.244 15.2269 15.6931 15 15.0449 15C14.3968 15 13.8458 15.2269 13.3921 15.6806C12.9384 16.1343 12.7116 16.6852 12.7116 17.3333C12.7116 17.9815 12.9384 18.5324 13.3921 18.9861C13.8458 19.4398 14.3968 19.6667 15.0449 19.6667ZM10.3783 13.4444H17.3783V10.3333H10.3783V13.4444Z" fill="#01052A" fill-opacity="0.75"/>
</svg>
