<svg width="24" height="24" viewBox="0 0 24 24" fill="none" xmlns="http://www.w3.org/2000/svg">
<path d="M21.1751 13.175C21.2265 12.8 21.2522 12.4125 21.2522 12C21.2522 11.6 21.2265 11.2 21.1622 10.825L23.7708 8.85C23.8832 8.75988 23.96 8.63462 23.9882 8.49559C24.0163 8.35655 23.994 8.21233 23.925 8.0875L21.4578 3.9375C21.3851 3.81196 21.2692 3.71547 21.1304 3.66514C20.9916 3.61481 20.839 3.61387 20.6996 3.6625L17.6284 4.8625C16.9859 4.3875 16.3048 3.9875 15.5467 3.6875L15.0841 0.512503C15.0613 0.369416 14.9865 0.239013 14.8734 0.144974C14.7602 0.0509351 14.6161 -0.000501881 14.4672 3.69175e-06H9.53275C9.22435 3.69175e-06 8.98019 0.212503 8.92879 0.512503L8.46618 3.6875C7.70802 3.9875 7.0141 4.4 6.38444 4.8625L3.31323 3.6625C3.03053 3.5625 2.70927 3.6625 2.55507 3.9375L0.100673 8.0875C-0.0535302 8.35 -0.00212937 8.675 0.254876 8.85L2.86348 10.825C2.79922 11.2 2.74782 11.6125 2.74782 12C2.74782 12.3875 2.77352 12.8 2.83777 13.175L0.229175 15.15C0.116766 15.2401 0.0399599 15.3654 0.0118421 15.5044C-0.0162757 15.6435 0.00603483 15.7877 0.0749723 15.9125L2.54222 20.0625C2.69642 20.3375 3.01768 20.425 3.30038 20.3375L6.37159 19.1375C7.0141 19.6125 7.69517 20.0125 8.45333 20.3125L8.91594 23.4875C8.98019 23.7875 9.22435 24 9.53275 24H14.4672C14.7757 24 15.0327 23.7875 15.0712 23.4875L15.5338 20.3125C16.292 20.0125 16.9859 19.6125 17.6156 19.1375L20.6868 20.3375C20.9695 20.4375 21.2907 20.3375 21.4449 20.0625L23.9122 15.9125C24.0664 15.6375 24.0021 15.325 23.758 15.15L21.1751 13.175ZM12 16.5C9.45565 16.5 7.37391 14.475 7.37391 12C7.37391 9.525 9.45565 7.5 12 7.5C14.5443 7.5 16.6261 9.525 16.6261 12C16.6261 14.475 14.5443 16.5 12 16.5Z" fill="#01052A"/>
</svg>
