<svg width="31" height="30" viewBox="0 0 31 30" fill="none" xmlns="http://www.w3.org/2000/svg">
<path d="M19.7116 23C19.0634 23 18.5125 22.7667 18.0588 22.3C17.6051 21.8333 17.3783 21.2667 17.3783 20.6C17.3783 20.5067 17.3847 20.4099 17.3977 20.3096C17.4107 20.2093 17.4301 20.1195 17.456 20.04L11.9727 16.76C11.7523 16.96 11.506 17.1168 11.2338 17.2304C10.9616 17.344 10.6764 17.4005 10.3783 17.4C9.73011 17.4 9.17918 17.1667 8.72548 16.7C8.27177 16.2333 8.04492 15.6667 8.04492 15C8.04492 14.3333 8.27177 13.7667 8.72548 13.3C9.17918 12.8333 9.73011 12.6 10.3783 12.6C10.6764 12.6 10.9616 12.6568 11.2338 12.7704C11.506 12.884 11.7523 13.0405 11.9727 13.24L17.456 9.96C17.4301 9.88 17.4107 9.79013 17.3977 9.6904C17.3847 9.59067 17.3783 9.49387 17.3783 9.4C17.3783 8.73333 17.6051 8.16667 18.0588 7.7C18.5125 7.23333 19.0634 7 19.7116 7C20.3597 7 20.9107 7.23333 21.3644 7.7C21.8181 8.16667 22.0449 8.73333 22.0449 9.4C22.0449 10.0667 21.8181 10.6333 21.3644 11.1C20.9107 11.5667 20.3597 11.8 19.7116 11.8C19.4134 11.8 19.1283 11.7435 18.856 11.6304C18.5838 11.5173 18.3375 11.3605 18.1171 11.16L12.6338 14.44C12.6597 14.52 12.6792 14.6101 12.6921 14.7104C12.7051 14.8107 12.7116 14.9072 12.7116 15C12.7116 15.0933 12.7051 15.1901 12.6921 15.2904C12.6792 15.3907 12.6597 15.4805 12.6338 15.56L18.1171 18.84C18.3375 18.64 18.5838 18.4835 18.856 18.3704C19.1283 18.2573 19.4134 18.2005 19.7116 18.2C20.3597 18.2 20.9107 18.4333 21.3644 18.9C21.8181 19.3667 22.0449 19.9333 22.0449 20.6C22.0449 21.2667 21.8181 21.8333 21.3644 22.3C20.9107 22.7667 20.3597 23 19.7116 23Z" fill="#01052A" fill-opacity="0.75"/>
</svg>
