<svg width="24" height="22" viewBox="0 0 24 22" fill="none" xmlns="http://www.w3.org/2000/svg">
<path d="M6.83067 7L7.88533 0H2.4L0.108 6C0.0368888 6.21333 0.000888889 6.43556 0 6.66667C0 8.13867 1.53333 9.33333 3.428 9.33333C5.17467 9.33333 6.61867 8.31467 6.83067 7ZM12 9.33333C13.8933 9.33333 15.428 8.13867 15.428 6.66667C15.4271 6.61156 15.4249 6.55778 15.4213 6.50533L14.7427 0H9.25733L8.57733 6.5L8.572 6.66667C8.572 8.13867 10.1067 9.33333 12 9.33333ZM18.6667 10.728V16H5.33333V10.736C4.74933 10.9467 4.10667 11.0667 3.428 11.0667C3.168 11.0667 2.916 11.036 2.66667 11.0013V19.4667C2.66667 20.4933 3.50533 21.3333 4.53067 21.3333H19.4667C20.4933 21.3333 21.3333 20.492 21.3333 19.4667V11.0027C21.0814 11.0426 20.827 11.0645 20.572 11.068C19.922 11.0661 19.2772 10.9511 18.6667 10.728ZM23.8933 6L21.5987 0H16.1147L17.168 6.98933C17.3733 8.30933 18.8173 9.33333 20.572 9.33333C22.4653 9.33333 24 8.13867 24 6.66667C23.9991 6.43556 23.9636 6.21333 23.8933 6Z" fill="#01052A"/>
</svg>
