<svg width="18" height="18" viewBox="0 0 18 18" fill="none" xmlns="http://www.w3.org/2000/svg">
<path d="M17.0621 9C17.5726 8.54452 17.8965 7.91625 17.9714 7.23622C18.0463 6.55618 17.8669 5.87249 17.4677 5.31684C17.0686 4.76119 16.478 4.37289 15.8096 4.22675C15.1412 4.0806 14.4425 4.18694 13.8478 4.52528V2.76707C13.8472 2.20466 13.6754 1.65575 13.3552 1.19334C13.0351 0.730927 12.5818 0.376913 12.0556 0.178364C11.5294 -0.0201848 10.9552 -0.053863 10.4094 0.0818074C9.86359 0.217478 9.372 0.516069 9 0.937884C8.54452 0.4274 7.91625 0.10352 7.23622 0.0286322C6.55618 -0.0462555 5.87249 0.133147 5.31684 0.532282C4.76119 0.931416 4.37289 1.52205 4.22675 2.1904C4.0806 2.85875 4.18694 3.55754 4.52528 4.15217H2.76707C2.20466 4.1528 1.65575 4.32461 1.19334 4.64475C0.730927 4.96489 0.376913 5.4182 0.178364 5.9444C-0.0201848 6.47061 -0.053863 7.04479 0.0818074 7.5906C0.217478 8.13641 0.516069 8.628 0.937884 9C0.4274 9.45548 0.10352 10.0837 0.0286322 10.7638C-0.0462555 11.4438 0.133147 12.1275 0.532282 12.6832C0.931416 13.2388 1.52205 13.6271 2.1904 13.7733C2.85875 13.9194 3.55754 13.8131 4.15217 13.4747V15.2329C4.1528 15.7953 4.32461 16.3442 4.64475 16.8067C4.96489 17.2691 5.4182 17.6231 5.9444 17.8216C6.47061 18.0202 7.04479 18.0539 7.5906 17.9182C8.13641 17.7825 8.628 17.4839 9 17.0621C9.45548 17.5726 10.0837 17.8965 10.7638 17.9714C11.4438 18.0463 12.1275 17.8669 12.6832 17.4677C13.2388 17.0686 13.6271 16.478 13.7733 15.8096C13.9194 15.1412 13.8131 14.4425 13.4747 13.8478H15.2329C15.7953 13.8472 16.3442 13.6754 16.8067 13.3552C17.2691 13.0351 17.6231 12.5818 17.8216 12.0556C18.0202 11.5294 18.0539 10.9552 17.9182 10.4094C17.7825 9.86359 17.4839 9.372 17.0621 9ZM4.15217 11.0776C4.15217 11.3516 4.07093 11.6194 3.91874 11.8472C3.76654 12.0749 3.55022 12.2525 3.29713 12.3573C3.04403 12.4621 2.76554 12.4896 2.49686 12.4361C2.22817 12.3827 1.98137 12.2508 1.78766 12.0571C1.59396 11.8633 1.46204 11.6165 1.40859 11.3479C1.35515 11.0792 1.38258 10.8007 1.48741 10.5476C1.59225 10.2945 1.76978 10.0782 1.99756 9.92598C2.22533 9.77378 2.49313 9.69255 2.76707 9.69255H4.15217V11.0776ZM8.30745 15.2329C8.30745 15.6003 8.16152 15.9526 7.90177 16.2123C7.64201 16.4721 7.28971 16.618 6.92236 16.618C6.55501 16.618 6.2027 16.4721 5.94295 16.2123C5.68319 15.9526 5.53726 15.6003 5.53726 15.2329V11.0776C5.53726 10.7103 5.68319 10.358 5.94295 10.0982C6.2027 9.83848 6.55501 9.69255 6.92236 9.69255H8.30745V15.2329ZM8.30745 8.30745H2.76707C2.39972 8.30745 2.04742 8.16152 1.78766 7.90177C1.52791 7.64201 1.38198 7.28971 1.38198 6.92236C1.38198 6.55501 1.52791 6.2027 1.78766 5.94295C2.04742 5.68319 2.39972 5.53726 2.76707 5.53726H6.92236C7.28971 5.53726 7.64201 5.68319 7.90177 5.94295C8.16152 6.2027 8.30745 6.55501 8.30745 6.92236V8.30745ZM8.30745 4.15217H6.92236C6.64841 4.15217 6.38062 4.07093 6.15284 3.91874C5.92506 3.76654 5.74753 3.55022 5.6427 3.29713C5.53786 3.04403 5.51043 2.76554 5.56388 2.49686C5.61732 2.22817 5.74924 1.98137 5.94295 1.78766C6.13666 1.59396 6.38346 1.46204 6.65214 1.40859C6.92082 1.35515 7.19932 1.38258 7.45241 1.48741C7.7055 1.59225 7.92183 1.76978 8.07402 1.99756C8.22622 2.22533 8.30745 2.49313 8.30745 2.76707V4.15217ZM9.69255 2.76707C9.69255 2.39972 9.83848 2.04742 10.0982 1.78766C10.358 1.52791 10.7103 1.38198 11.0776 1.38198C11.445 1.38198 11.7973 1.52791 12.0571 1.78766C12.3168 2.04742 12.4627 2.39972 12.4627 2.76707V6.92236C12.4627 7.28971 12.3168 7.64201 12.0571 7.90177C11.7973 8.16152 11.445 8.30745 11.0776 8.30745H9.69255V2.76707ZM11.0776 16.618C10.7103 16.618 10.358 16.4721 10.0982 16.2123C9.83848 15.9526 9.69255 15.6003 9.69255 15.2329V13.8478H11.0776C11.445 13.8478 11.7973 13.9938 12.0571 14.2535C12.3168 14.5133 12.4627 14.8656 12.4627 15.2329C12.4627 15.6003 12.3168 15.9526 12.0571 16.2123C11.7973 16.4721 11.445 16.618 11.0776 16.618ZM15.2329 12.4627H11.0776C10.7103 12.4627 10.358 12.3168 10.0982 12.0571C9.83848 11.7973 9.69255 11.445 9.69255 11.0776V9.69255H15.2329C15.6003 9.69255 15.9526 9.83848 16.2123 10.0982C16.4721 10.358 16.618 10.7103 16.618 11.0776C16.618 11.445 16.4721 11.7973 16.2123 12.0571C15.9526 12.3168 15.6003 12.4627 15.2329 12.4627ZM15.2329 8.30745H13.8478V6.92236C13.8478 6.64841 13.9291 6.38062 14.0813 6.15284C14.2335 5.92506 14.4498 5.74753 14.7029 5.6427C14.956 5.53786 15.2345 5.51043 15.5031 5.56388C15.7718 5.61732 16.0186 5.74924 16.2123 5.94295C16.406 6.13666 16.538 6.38346 16.5914 6.65214C16.6449 6.92082 16.6174 7.19932 16.5126 7.45241C16.4078 7.7055 16.2302 7.92183 16.0024 8.07402C15.7747 8.22622 15.5069 8.30745 15.2329 8.30745Z" fill="#01052A"/>
</svg>
