<svg width="18" height="18" viewBox="0 0 18 18" fill="none" xmlns="http://www.w3.org/2000/svg">
<path d="M9.37271 2.65754C9.27386 2.5465 9.13987 2.48413 9.00018 2.48413C8.86048 2.48413 8.72649 2.5465 8.62765 2.65754L6.63883 4.89334C6.53993 5.00457 6.48437 5.15544 6.48438 5.31275C6.48438 5.47006 6.53993 5.62092 6.63883 5.73216C6.73772 5.84339 6.87185 5.90588 7.01171 5.90588C7.15157 5.90588 7.2857 5.84339 7.38459 5.73216L8.47301 4.50832L8.32901 8.28331C8.32901 8.44057 8.52832 8.28799 8.62718 8.39919C8.72604 8.51039 8.86013 8.57286 8.99994 8.57286C9.13976 8.57286 9.27384 8.51039 9.37271 8.39919C9.47157 8.28799 9.6544 8.44057 9.6544 8.28331L9.52734 4.50832L10.6154 5.73216C10.6644 5.78723 10.7225 5.83092 10.7865 5.86073C10.8505 5.89054 10.919 5.90588 10.9883 5.90588C11.0575 5.90588 11.1261 5.89054 11.1901 5.86073C11.2541 5.83092 11.3122 5.78723 11.3612 5.73216C11.4101 5.67708 11.449 5.61169 11.4755 5.53973C11.502 5.46777 11.5156 5.39064 11.5156 5.31275C11.5156 5.23486 11.502 5.15773 11.4755 5.08576C11.449 5.0138 11.4101 4.94841 11.3612 4.89334L9.37271 2.65754Z" fill="#01052A"/>
<path fill-rule="evenodd" clip-rule="evenodd" d="M17.9714 7.23622C17.8965 7.91625 17.5726 8.54452 17.0621 9C17.4839 9.372 17.7825 9.86359 17.9182 10.4094C18.0539 10.9552 18.0202 11.5294 17.8216 12.0556C17.6231 12.5818 17.2691 13.0351 16.8067 13.3552C16.3442 13.6754 15.7953 13.8472 15.2329 13.8478H13.4747C13.8131 14.4425 13.9194 15.1412 13.7733 15.8096C13.6271 16.478 13.2388 17.0686 12.6832 17.4677C12.1275 17.8669 11.4438 18.0463 10.7638 17.9714C10.0837 17.8965 9.45548 17.5726 9 17.0621C8.628 17.4839 8.13641 17.7825 7.5906 17.9182C7.04479 18.0539 6.47061 18.0202 5.9444 17.8216C5.4182 17.6231 4.96489 17.2691 4.64475 16.8067C4.32461 16.3442 4.1528 15.7953 4.15217 15.2329V13.4747C3.55754 13.8131 2.85875 13.9194 2.1904 13.7733C1.52205 13.6271 0.931416 13.2388 0.532282 12.6832C0.133147 12.1275 -0.0462555 11.4438 0.0286322 10.7638C0.10352 10.0837 0.4274 9.45548 0.937884 9C0.516069 8.628 0.217478 8.13641 0.0818074 7.5906C-0.053863 7.04479 -0.0201848 6.47061 0.178364 5.9444C0.376913 5.4182 0.730927 4.96489 1.19334 4.64475C1.65575 4.32461 2.20466 4.1528 2.76707 4.15217H4.52528C4.18694 3.55754 4.0806 2.85875 4.22675 2.1904C4.37289 1.52205 4.76119 0.931416 5.31684 0.532282C5.87249 0.133147 6.55618 -0.0462555 7.23622 0.0286322C7.91625 0.10352 8.54452 0.4274 9 0.937884C9.372 0.516069 9.86359 0.217478 10.4094 0.0818074C10.9552 -0.053863 11.5294 -0.0201848 12.0556 0.178364C12.5818 0.376913 13.0351 0.730927 13.3552 1.19334C13.6754 1.65575 13.8472 2.20466 13.8478 2.76707V4.52528C14.4425 4.18694 15.1412 4.0806 15.8096 4.22675C16.478 4.37289 17.0686 4.76119 17.4677 5.31684C17.8669 5.87249 18.0463 6.55618 17.9714 7.23622ZM3.91874 11.8472C4.07093 11.6194 4.15217 11.3516 4.15217 11.0776V9.69255H2.76707C2.49313 9.69255 2.22533 9.77378 1.99756 9.92598C1.76978 10.0782 1.59225 10.2945 1.48741 10.5476C1.38258 10.8007 1.35515 11.0792 1.40859 11.3479C1.46204 11.6165 1.59396 11.8633 1.78766 12.0571C1.98137 12.2508 2.22817 12.3827 2.49686 12.4361C2.76554 12.4896 3.04403 12.4621 3.29713 12.3573C3.55022 12.2525 3.76654 12.0749 3.91874 11.8472ZM7.90177 16.2123C8.16152 15.9526 8.30745 15.6003 8.30745 15.2329V9.69255H6.92236C6.55501 9.69255 6.2027 9.83848 5.94295 10.0982C5.68319 10.358 5.53726 10.7103 5.53726 11.0776V15.2329C5.53726 15.6003 5.68319 15.9526 5.94295 16.2123C6.2027 16.4721 6.55501 16.618 6.92236 16.618C7.28971 16.618 7.64201 16.4721 7.90177 16.2123ZM2.76707 8.30745H8.30745V8.2832H9.69255V8.30745H11.0776C11.1649 8.30745 11.2512 8.29923 11.3357 8.2832H12.4766V2.64111C12.4766 1.95419 11.9225 1.39668 11.2368 1.39115C11.1843 1.38507 11.1311 1.38198 11.0776 1.38198C11.0243 1.38198 10.9713 1.38506 10.9188 1.39111H7.08116C6.97593 1.37897 6.86936 1.3789 6.76355 1.39111H6.70898C6.01863 1.39111 5.45898 1.95076 5.45898 2.64111V5.53726H2.76707C2.39972 5.53726 2.04742 5.68319 1.78766 5.94295C1.52791 6.2027 1.38198 6.55501 1.38198 6.92236C1.38198 7.28971 1.52791 7.64201 1.78766 7.90177C2.04742 8.16152 2.39972 8.30745 2.76707 8.30745ZM10.0982 16.2123C10.358 16.4721 10.7103 16.618 11.0776 16.618C11.445 16.618 11.7973 16.4721 12.0571 16.2123C12.3168 15.9526 12.4627 15.6003 12.4627 15.2329C12.4627 14.8656 12.3168 14.5133 12.0571 14.2535C11.7973 13.9938 11.445 13.8478 11.0776 13.8478H9.69255V15.2329C9.69255 15.6003 9.83848 15.9526 10.0982 16.2123ZM11.0776 12.4627H15.2329C15.6003 12.4627 15.9526 12.3168 16.2123 12.0571C16.4721 11.7973 16.618 11.445 16.618 11.0776C16.618 10.7103 16.4721 10.358 16.2123 10.0982C15.9526 9.83848 15.6003 9.69255 15.2329 9.69255H9.69255V11.0776C9.69255 11.445 9.83848 11.7973 10.0982 12.0571C10.358 12.3168 10.7103 12.4627 11.0776 12.4627ZM13.8478 8.30745H15.2329C15.5069 8.30745 15.7747 8.22622 16.0024 8.07402C16.2302 7.92183 16.4078 7.7055 16.5126 7.45241C16.6174 7.19932 16.6448 6.92082 16.5914 6.65214C16.538 6.38346 16.406 6.13666 16.2123 5.94295C16.0186 5.74924 15.7718 5.61732 15.5031 5.56388C15.2345 5.51043 14.956 5.53786 14.7029 5.6427C14.4498 5.74753 14.2335 5.92506 14.0813 6.15284C13.9291 6.38062 13.8478 6.64841 13.8478 6.92236V8.30745Z" fill="#01052A"/>
</svg>
