<svg width="17" height="18" viewBox="0 0 17 18" fill="none" xmlns="http://www.w3.org/2000/svg">
<path d="M1.53678 6.46132L1.22554 4.46132L1.96662 4.34599L1.81099 3.34599C1.75871 3.01006 1.783 2.68503 1.86849 2.38495L1.14719 2.17946C1.38648 1.3395 1.98633 0.639083 2.7795 0.273473L3.09346 0.954596C3.37683 0.823978 3.69426 0.75 4.03423 0.75H5.12237V0H7.29866V0.75H9.47494V0H11.6512V0.75H12.7394C13.0786 0.75 13.3954 0.82368 13.6784 0.953828L13.9918 0.272441C14.7837 0.636666 15.3834 1.33453 15.6243 2.17223L14.9035 2.37952C14.9896 2.67886 15.0148 3.00319 14.9637 3.33856L14.8115 4.33856L15.553 4.45141L15.2486 6.45141L14.5071 6.33856L14.2027 8.33856L14.9442 8.45141L14.6398 10.4514L13.8983 10.3386L13.5939 12.3386L14.3354 12.4514L14.031 14.4514L13.2895 14.3386L13.1373 15.3386C13.096 15.6101 13.0076 15.8631 12.8814 16.0906L13.5374 16.4542C13.19 17.0807 12.6273 17.5643 11.9557 17.8134L11.6948 17.1102C11.451 17.2007 11.1876 17.25 10.9129 17.25H9.66011V18H7.15452V17.25H5.90172C5.62773 17.25 5.36493 17.2009 5.12155 17.1109L4.86132 17.8143C4.19107 17.5663 3.62899 17.0849 3.28091 16.4608L3.93593 16.0955C3.80954 15.8688 3.72061 15.6167 3.67848 15.346L3.52286 14.346L2.78178 14.4613L2.47053 12.4613L3.21161 12.346L2.90036 10.346L2.15928 10.4613L1.84803 8.46132L2.58911 8.34599L2.27786 6.34599L1.53678 6.46132Z" stroke="#01052A" stroke-width="1.5" stroke-dasharray="2 2"/>
<path d="M8.38086 9.3833C8.76328 9.3833 9.07617 9.69619 9.07617 10.0786C9.07617 10.461 8.76328 10.7739 8.38086 10.7739C7.99844 10.7739 7.68555 10.461 7.68555 10.0786C7.68555 9.69619 7.99844 9.3833 8.38086 9.3833ZM9.42383 7.29736C9.80625 7.29736 10.1191 7.61025 10.1191 7.99268C10.1191 8.3751 9.80625 8.68799 9.42383 8.68799C9.04141 8.68799 8.72852 8.3751 8.72852 7.99268C8.72852 7.61025 9.04141 7.29736 9.42383 7.29736ZM6.29492 9.3833C6.67734 9.3833 6.99023 9.69619 6.99023 10.0786C6.99023 10.461 6.67734 10.7739 6.29492 10.7739C5.9125 10.7739 5.59961 10.461 5.59961 10.0786C5.59961 9.69619 5.9125 9.3833 6.29492 9.3833ZM7.33789 7.29736C7.72031 7.29736 8.0332 7.61025 8.0332 7.99268C8.0332 8.3751 7.72031 8.68799 7.33789 8.68799C6.95547 8.68799 6.64258 8.3751 6.64258 7.99268C6.64258 7.61025 6.95547 7.29736 7.33789 7.29736ZM8.38086 5.21143C8.76328 5.21143 9.07617 5.52432 9.07617 5.90674C9.07617 6.28916 8.76328 6.60205 8.38086 6.60205C7.99844 6.60205 7.68555 6.28916 7.68555 5.90674C7.68555 5.52432 7.99844 5.21143 8.38086 5.21143ZM10.4668 9.3833C10.8492 9.3833 11.1621 9.69619 11.1621 10.0786C11.1621 10.461 10.8492 10.7739 10.4668 10.7739C10.0844 10.7739 9.77148 10.461 9.77148 10.0786C9.77148 9.69619 10.0844 9.3833 10.4668 9.3833Z" fill="#01052A"/>
</svg>
