<svg width="18" height="18" viewBox="0 0 18 18" fill="none" xmlns="http://www.w3.org/2000/svg">
<path d="M16.3898 7.19794L16.3898 7.19799C16.8578 7.6887 17.1238 8.32946 17.1238 9.00192C17.1238 9.67198 16.8597 10.3105 16.3948 10.8006C16.3882 10.808 16.3854 10.8141 16.3841 10.8175C16.3834 10.8196 16.383 10.8212 16.3829 10.8225C16.3828 10.8236 16.3828 10.8244 16.3829 10.8252C16.383 10.8268 16.3845 10.8409 16.4063 10.8587C16.4297 10.8777 16.4694 10.8936 16.5173 10.8912C16.5635 10.8888 16.5974 10.8705 16.6156 10.8531C17.1105 10.3334 17.3755 9.6743 17.375 9.00082L16.3898 7.19794ZM16.3898 7.19794L16.3826 7.19058M16.3898 7.19794L16.3826 7.19058M16.3826 7.19058C16.3741 7.18199 16.3703 7.1748 16.3688 7.17068C16.3672 7.16671 16.3671 7.16417 16.3672 7.16253C16.3673 7.16086 16.3678 7.15735 16.3706 7.15195C16.3736 7.14638 16.3795 7.13793 16.3907 7.12881C16.402 7.11961 16.4179 7.11048 16.4382 7.10413C16.4585 7.09778 16.4812 7.09493 16.5044 7.09644C16.5275 7.09796 16.5486 7.10366 16.5662 7.11183C16.5837 7.11998 16.5959 7.12973 16.6037 7.1382L16.6037 7.13826M16.3826 7.19058L16.6037 7.13826M16.6037 7.13826L16.6106 7.1455M16.6037 7.13826L16.6106 7.1455M16.6106 7.1455C17.1075 7.66566 17.3743 8.32582 17.375 9.00068L16.6106 7.1455ZM12.6542 0.653843L12.6545 0.65358C12.6729 0.640366 12.6997 0.629031 12.7326 0.625862C12.7655 0.62269 12.7971 0.628448 12.8227 0.639949L13.0788 0.0704917L12.8222 0.639758C12.8476 0.651189 12.8618 0.665739 12.8685 0.675582C12.8718 0.680437 12.8733 0.684235 12.8741 0.686672C12.8748 0.689082 12.875 0.69082 12.875 0.692098V0.692193V17.3077C12.875 17.309 12.8748 17.3107 12.8741 17.3131C12.8733 17.3155 12.8718 17.3193 12.8685 17.3242C12.8618 17.334 12.8476 17.3486 12.8223 17.36C12.7968 17.3715 12.7651 17.3773 12.7322 17.3742C12.6994 17.371 12.6725 17.3597 12.6541 17.3465L6.10666 12.6465L5.94329 12.5292H5.74219H1.5C1.31791 12.5292 1.14621 12.4798 1.00407 12.3945H1.5H5.25H5.875V11.7695V6.23086V5.60586H5.25H1.5H1.00407C1.14621 5.52057 1.31791 5.47119 1.5 5.47119H5.74219H5.94329L6.10666 5.35392L12.6542 0.653843ZM0.875 11.7695V12.3C0.871053 12.2965 0.867143 12.293 0.863273 12.2894C0.70399 12.1423 0.625 11.9541 0.625 11.7695V6.23086C0.625 6.04625 0.70399 5.85803 0.863273 5.711C0.867143 5.70742 0.871053 5.70388 0.875 5.70038V6.23086V11.7695ZM11.6355 16.4001L12.625 17.1104V15.8924V2.10801V0.889963L11.6355 1.6003L6.38552 5.36918L6.125 5.55621V5.8769V12.1235V12.4442L6.38552 12.6312L11.6355 16.4001Z" fill="#01052A" stroke="#01052A" stroke-width="1.25"/>
</svg>
