<svg width="18" height="18" viewBox="0 0 18 18" fill="none" xmlns="http://www.w3.org/2000/svg">
<path d="M9 1.28571C10.5257 1.28571 12.0172 1.73815 13.2858 2.58581C14.5544 3.43346 15.5432 4.63827 16.1271 6.04787C16.7109 7.45747 16.8637 9.00856 16.5661 10.505C16.2684 12.0014 15.5337 13.376 14.4548 14.4548C13.376 15.5337 12.0014 16.2684 10.505 16.5661C9.00856 16.8637 7.45747 16.7109 6.04787 16.1271C4.63827 15.5432 3.43347 14.5544 2.58581 13.2858C1.73815 12.0172 1.28572 10.5257 1.28572 9C1.28572 6.95404 2.09847 4.99188 3.54518 3.54518C4.99189 2.09847 6.95405 1.28571 9 1.28571ZM9 0C7.21997 0 5.47991 0.527841 3.99987 1.51677C2.51983 2.50571 1.36628 3.91131 0.685088 5.55585C0.00389955 7.20038 -0.17433 9.00998 0.172936 10.7558C0.520203 12.5016 1.37737 14.1053 2.63604 15.364C3.89471 16.6226 5.49836 17.4798 7.24419 17.8271C8.99002 18.1743 10.7996 17.9961 12.4442 17.3149C14.0887 16.6337 15.4943 15.4802 16.4832 14.0001C17.4722 12.5201 18 10.78 18 9C18 6.61305 17.0518 4.32387 15.364 2.63604C13.6761 0.948211 11.387 0 9 0Z" fill="#01052A"/>
<path d="M11.5711 6.42878V11.5716H6.42829V6.42878H11.5711ZM11.5711 5.14307H6.42829C6.0873 5.14307 5.76027 5.27853 5.51916 5.51964C5.27804 5.76076 5.14258 6.08779 5.14258 6.42878V11.5716C5.14258 11.9126 5.27804 12.2397 5.51916 12.4808C5.76027 12.7219 6.0873 12.8574 6.42829 12.8574H11.5711C11.9121 12.8574 12.2392 12.7219 12.4803 12.4808C12.7214 12.2397 12.8569 11.9126 12.8569 11.5716V6.42878C12.8569 6.08779 12.7214 5.76076 12.4803 5.51964C12.2392 5.27853 11.9121 5.14307 11.5711 5.14307Z" fill="#01052A"/>
</svg>
