<svg width="18" height="18" viewBox="0 0 18 18" fill="none" xmlns="http://www.w3.org/2000/svg">
<path d="M5.02875 0.2475C5.18683 0.089221 5.4013 0.000196934 5.625 0L12.375 0C12.5989 0 12.8126 0.088875 12.9712 0.2475L17.7525 5.02875C17.9111 5.18625 18 5.40112 18 5.625V12.375C17.9998 12.5987 17.9108 12.8132 17.7525 12.9712L12.9712 17.7525C12.8132 17.9108 12.5987 17.9998 12.375 18H5.625C5.4013 17.9998 5.18683 17.9108 5.02875 17.7525L0.2475 12.9712C0.089221 12.8132 0.000196934 12.5987 0 12.375L0 5.625C0 5.40112 0.088875 5.18737 0.2475 5.02875L5.02875 0.2475ZM5.97375 1.6875L1.6875 5.97375V12.0262L5.97375 16.3125H12.0262L16.3125 12.0262V5.97375L12.0262 1.6875H5.97375ZM9 4.5C9.22378 4.5 9.43839 4.58889 9.59662 4.74713C9.75485 4.90536 9.84375 5.11997 9.84375 5.34375V9.28125C9.84375 9.50503 9.75485 9.71964 9.59662 9.87787C9.43839 10.0361 9.22378 10.125 9 10.125C8.77622 10.125 8.56161 10.0361 8.40338 9.87787C8.24514 9.71964 8.15625 9.50503 8.15625 9.28125V5.34375C8.15625 5.11997 8.24514 4.90536 8.40338 4.74713C8.56161 4.58889 8.77622 4.5 9 4.5ZM9 13.5C8.70163 13.5 8.41548 13.3815 8.20451 13.1705C7.99353 12.9595 7.875 12.6734 7.875 12.375C7.875 12.0766 7.99353 11.7905 8.20451 11.5795C8.41548 11.3685 8.70163 11.25 9 11.25C9.29837 11.25 9.58452 11.3685 9.79549 11.5795C10.0065 11.7905 10.125 12.0766 10.125 12.375C10.125 12.6734 10.0065 12.9595 9.79549 13.1705C9.58452 13.3815 9.29837 13.5 9 13.5Z" fill="#01052A"/>
</svg>
