<svg width="12" height="19" viewBox="0 0 12 19" fill="none" xmlns="http://www.w3.org/2000/svg">
<path d="M7.38365 6.95332C5.86237 6.34882 5.03309 5.88382 5.03309 5.14657C5.03309 4.52332 5.51147 4.16782 6.36456 4.16782C7.92436 4.16782 9.52688 4.81132 10.63 5.39107L11.2534 1.27057C10.3786 0.82207 8.58904 0.0908203 6.11522 0.0908203C4.36561 0.0908203 2.91017 0.58132 1.87008 1.49482C0.788654 2.45107 0.22623 3.83482 0.22623 5.50432C0.22623 8.53357 1.95412 9.82432 4.76204 10.9186C6.57258 11.6086 7.17493 12.0991 7.17493 12.8558C7.17493 13.5908 6.58659 14.0146 5.52618 14.0146C4.21292 14.0146 2.04868 13.3238 0.630363 12.4328L0 16.5991C1.2194 17.3333 3.46769 18.0908 5.79933 18.0908C7.6491 18.0908 9.19138 17.6228 10.2315 16.7311C11.397 15.7523 12 14.3041 12 12.4321C12 9.33607 10.2322 8.04382 7.38154 6.95332H7.38365Z" fill="#01052A"/>
</svg>
