<svg width="18" height="18" viewBox="0 0 18 18" fill="none" xmlns="http://www.w3.org/2000/svg">
<path fill-rule="evenodd" clip-rule="evenodd" d="M3.03497 0.25C3.03504 0.25 3.0349 0.25 3.03497 0.25L14.4527 0.25C15.257 0.25 16.0282 0.569585 16.597 1.13831C17.1657 1.70702 17.4855 2.47831 17.4863 3.28268L17.4885 5.4396C17.496 5.4824 17.5 5.52645 17.5 5.57143C17.5 5.61589 17.4961 5.65944 17.4887 5.70177L17.4977 14.7113C17.4977 14.7214 17.4975 14.7315 17.4971 14.7415L17.4903 14.9153C17.4899 14.9242 17.4894 14.933 17.4888 14.9419C17.4314 15.7054 17.0878 16.4192 16.5267 16.94C15.9656 17.4608 15.2284 17.7502 14.463 17.75C14.4629 17.75 14.4631 17.75 14.463 17.75H3.04501C2.24075 17.75 1.46953 17.4304 0.900763 16.8617C0.332018 16.293 0.0122219 15.5217 0.0114184 14.7173L3.72781e-07 3.28875C-9.7004e-06 3.27864 0.000184372 3.26854 0.000582591 3.25844L0.00743343 3.08473C0.00778396 3.07584 0.00829269 3.06696 0.00895931 3.05809C0.0663312 2.29457 0.409915 1.58084 0.971043 1.06001C1.53214 0.53921 2.2695 0.249811 3.03497 0.25ZM15.9878 4.82143L15.9863 3.28418C15.9859 2.87692 15.824 2.48663 15.5363 2.19901C15.2487 1.91142 14.8589 1.75 14.4527 1.75H6.08203V4.82143H15.9878ZM6.08203 6.32143H15.9893L15.9977 14.6976L15.992 14.8415C15.9603 15.2235 15.7871 15.5799 15.5062 15.8406C15.2225 16.1039 14.8499 16.2501 14.4632 16.25H6.08203V6.32143ZM4.58203 4.82143V1.75H3.03474C2.64804 1.74988 2.27523 1.89605 1.99149 2.15941C1.71067 2.42007 1.5374 2.77647 1.50569 3.1585L1.50001 3.30241L1.50153 4.82143H4.58203ZM1.50303 6.32143H4.58203V16.25H3.04501C2.63877 16.25 2.249 16.0886 1.96139 15.801C1.67375 15.5134 1.51182 15.1231 1.51142 14.7158L1.50303 6.32143Z" fill="#01052A" fill-opacity="0.9"/>
</svg>
