<svg width="18" height="18" viewBox="0 0 18 18" fill="none" xmlns="http://www.w3.org/2000/svg">
<g clip-path="url(#clip0_5113_78)">
<path d="M8.739 0.132324V1.78439H7.263V2.21807H8.739V3.87014H9.26381V2.21807H10.7398V1.78439H9.26381V0.132324H8.739ZM13.2632 1.82882V4.26332H11.0452V4.95689H13.2632V7.34807H14.0456L14.0507 6.16176L14.0687 4.98107L15.1673 4.96307L16.2602 4.95689V4.26332H14.0456V1.82882H13.2632ZM3.95775 1.87214V4.26614H1.71675V4.95689H3.95775V7.35089H4.69631V4.95689H6.95475V4.26332H4.69631V1.87214H3.95775ZM8.52244 5.82482V8.51976H6.04463V9.41076H8.52244V12.1091H9.48375V9.41076H11.9649V8.51976H9.48375V5.82482H8.52244ZM15.8147 6.98695V8.65139H14.3027V9.26114H15.8147V10.9571H16.4801V9.26114H18.0006V8.65139H16.4801V6.98695H15.8147ZM1.47994 7.0837V8.71551H0V9.18126H1.47994V10.8283H1.98113V9.18126H3.48131V8.71551H1.9575V7.0837H1.47994ZM13.2632 10.4739V12.9146H10.998V13.6093H13.2632V16.0196H14.0659V13.6093H16.3041V12.9146H14.0659V10.4739H13.2632ZM3.91444 10.4801V12.9146H1.6965V13.6093H3.91444V16.0027H4.74019V13.6093H6.95475V12.9146H4.74019V10.4773H4.32787L3.91444 10.4801ZM8.65125 13.9136V15.5656H7.17469V16.1714H8.65125V17.8679H9.34875L9.35775 17.0304L9.369 16.1714H10.8489V15.5656H9.34875V13.9136H8.65125Z" fill="#01052A"/>
</g>
<defs>
<clipPath id="clip0_5113_78">
<rect width="18" height="18" fill="white"/>
</clipPath>
</defs>
</svg>
