<svg width="19" height="20" viewBox="0 0 19 20" fill="none" xmlns="http://www.w3.org/2000/svg">
<g clip-path="url(#clip0_1028_1227)">
<path d="M9.33019 11.4401V7.65062M17.8008 4.80852L15.9184 2.91378M7.44784 1.01904H11.2125M9.33019 19.019C7.33327 19.019 5.41813 18.2205 4.00609 16.7992C2.59406 15.3779 1.80078 13.4502 1.80078 11.4401C1.80078 9.43003 2.59406 7.5023 4.00609 6.08097C5.41813 4.65964 7.33327 3.86115 9.33019 3.86115C11.3271 3.86115 13.2423 4.65964 14.6543 6.08097C16.0663 7.5023 16.8596 9.43003 16.8596 11.4401C16.8596 13.4502 16.0663 15.3779 14.6543 16.7992C13.2423 18.2205 11.3271 19.019 9.33019 19.019Z" stroke="#01052A" stroke-width="1.66667" stroke-linecap="round" stroke-linejoin="round"/>
</g>
<defs>
<clipPath id="clip0_1028_1227">
<rect width="18" height="20" fill="white" transform="translate(0.821289)"/>
</clipPath>
</defs>
</svg>
