<svg width="18" height="18" viewBox="0 0 18 18" fill="none" xmlns="http://www.w3.org/2000/svg">
<path d="M15.75 0H2.25C1.0125 0 0 1.0125 0 2.25V5.1435C0 5.1435 2.8905 6.8235 3.0735 6.9285C3.306 7.0635 3.594 7.06125 3.8265 6.9285C4.0215 6.81825 9.8415 3.4725 9.9285 3.42225C10.0137 3.37342 10.1099 3.34711 10.208 3.3458C10.3062 3.34448 10.4031 3.36822 10.4895 3.41475C10.6125 3.4875 10.944 3.67575 11.1195 3.77475C11.2935 3.87525 11.2852 4.15125 11.1292 4.24125L3.84525 8.43375C3.58575 8.58375 3.32775 8.58675 3.05925 8.43525C2.6085 8.18025 0.7485 7.09725 0 6.6615V8.1765L3.0735 9.9615C3.306 10.0965 3.594 10.0942 3.8265 9.9615C4.0215 9.85125 9.8415 6.50475 9.9285 6.4545C10.0138 6.4059 10.1101 6.37985 10.2082 6.3788C10.3064 6.37775 10.4032 6.40174 10.4895 6.4485C10.6125 6.5205 10.944 6.70875 11.1195 6.8085C11.2935 6.90825 11.2852 7.1835 11.1292 7.2735C10.9732 7.36425 4.16325 11.283 3.84525 11.466C3.58575 11.616 3.32775 11.6197 3.05925 11.4675C2.6085 11.2132 0.7485 10.1295 0 9.6945V11.2095L3.0735 12.9945C3.306 13.1295 3.594 13.1273 3.8265 12.9945C4.0215 12.8843 9.8415 9.53775 9.9285 9.4875C10.0137 9.43879 10.11 9.4126 10.2081 9.41142C10.3063 9.41024 10.4031 9.4341 10.4895 9.48075C10.6125 9.5535 10.944 9.74175 11.1195 9.84075C11.2935 9.9405 11.2852 10.2173 11.1292 10.3073L3.84525 14.4998C3.58575 14.649 3.32775 14.6527 3.05925 14.5005C2.6085 14.2455 0.7485 13.1625 0 12.7275V15.75C0 16.9875 1.0125 18 2.25 18H15.75C16.9875 18 18 16.9875 18 15.75V2.25C18 1.0125 16.9875 0 15.75 0Z" fill="#01052A"/>
</svg>
