<svg width="18" height="18" viewBox="0 0 18 18" fill="none" xmlns="http://www.w3.org/2000/svg">
<path d="M8.07186 2.24306V5.82458C8.07186 6.12113 8.01327 6.41477 7.89945 6.68863C7.78562 6.96249 7.61881 7.2112 7.40857 7.42046C7.19834 7.62973 6.94883 7.79544 6.67436 7.90808C6.39989 8.02072 6.10587 8.07808 5.80917 8.07687H2.24427C1.94837 8.07866 1.65515 8.02072 1.38219 7.90652C1.10923 7.79232 0.862152 7.6242 0.655767 7.41226C0.446228 7.20457 0.280292 6.95715 0.167693 6.68452C0.0550934 6.41188 -0.00190228 6.11952 4.84311e-05 5.82458V2.25229C4.34253e-05 1.65654 0.236192 1.08506 0.656802 0.662936C1.07741 0.240814 1.64822 0.0024416 2.24427 0H5.8184C6.114 0.000283858 6.4066 0.0591712 6.67927 0.173253C6.95194 0.287334 7.19925 0.454343 7.4069 0.664611C7.617 0.870441 7.784 1.11601 7.89816 1.38701C8.01233 1.65802 8.07137 1.94902 8.07186 2.24306ZM18 2.25229V5.82458C17.9952 6.41885 17.7575 6.98756 17.3379 7.40865C16.9184 7.82974 16.3503 8.06964 15.7558 8.07687H12.1724C11.5751 8.07322 11.0024 7.8383 10.5747 7.42149C10.3657 7.21148 10.2002 6.96233 10.0877 6.68831C9.97516 6.41429 9.91782 6.12078 9.91895 5.82458V2.25229C9.91821 1.9567 9.97666 1.66394 10.0909 1.39127C10.2051 1.1186 10.3727 0.871528 10.5839 0.664611C10.7916 0.454343 11.0389 0.287334 11.3115 0.173253C11.5842 0.0591712 11.8768 0.000283858 12.1724 0H15.7465C16.3427 0.00482496 16.9131 0.243669 17.3346 0.665014C17.7562 1.08636 17.9952 1.65644 18 2.25229ZM18 12.1753V15.7476C17.9952 16.3419 17.7575 16.9106 17.3379 17.3317C16.9184 17.7527 16.3503 17.9927 15.7558 17.9999H12.1724C11.5713 18.006 10.9914 17.7775 10.5562 17.363C10.3464 17.1536 10.1804 16.9045 10.0678 16.6304C9.9552 16.3562 9.89833 16.0624 9.90048 15.766V12.1938C9.89974 11.8982 9.95819 11.6054 10.0724 11.3327C10.1866 11.0601 10.3542 10.813 10.5654 10.6061C10.7731 10.3958 11.0204 10.2288 11.2931 10.1147C11.5657 10.0006 11.8583 9.94176 12.1539 9.94147H15.7281C16.3242 9.9463 16.8946 10.1851 17.3162 10.6065C17.7377 11.0278 17.9767 11.5979 17.9815 12.1938L18 12.1753ZM8.07186 12.1845V15.7568C8.06459 16.3527 7.82329 16.9218 7.4 17.3414C6.97671 17.761 6.40535 17.9975 5.80917 17.9999H2.24427C1.94921 18.0011 1.65683 17.9439 1.384 17.8316C1.11117 17.7193 0.86328 17.5542 0.654642 17.3456C0.446003 17.1371 0.280741 16.8893 0.168391 16.6166C0.0560411 16.344 -0.00117335 16.0517 4.84311e-05 15.7568V12.1845C0.00242768 11.5887 0.239055 11.0176 0.658892 10.5945C1.07873 10.1715 1.64813 9.93027 2.24427 9.92301H5.8184C6.41705 9.92913 6.98991 10.1674 7.41614 10.5876C7.83736 11.0123 8.07313 11.5865 8.07186 12.1845Z" fill="#01052A"/>
</svg>
