<svg width="20" height="20" viewBox="0 0 20 20" fill="none" xmlns="http://www.w3.org/2000/svg">
<path d="M5.37081 8.45694C7.07496 8.45694 8.45646 7.07545 8.45646 5.37129C8.45646 3.66714 7.07496 2.28564 5.37081 2.28564C3.66665 2.28564 2.28516 3.66714 2.28516 5.37129C2.28516 7.07545 3.66665 8.45694 5.37081 8.45694Z" stroke="#01052A" stroke-width="1.25" stroke-linecap="round" stroke-linejoin="round"/>
<path d="M14.6286 17.7138C16.3328 17.7138 17.7143 16.3323 17.7143 14.6281C17.7143 12.924 16.3328 11.5425 14.6286 11.5425C12.9245 11.5425 11.543 12.924 11.543 14.6281C11.543 16.3323 12.9245 17.7138 14.6286 17.7138Z" stroke="#01052A" stroke-width="1.25" stroke-linecap="round" stroke-linejoin="round"/>
<path d="M10 19C5.0293 19 1 14.9707 1 10L4.00015 11.4998M10 1C14.9707 1 19 5.0293 19 10L15.9998 8.50015" stroke="#01052A" stroke-width="1.25" stroke-linecap="round" stroke-linejoin="round"/>
</svg>
