<svg width="18" height="18" viewBox="0 0 18 18" fill="none" xmlns="http://www.w3.org/2000/svg">
<path d="M15.75 0H2.25C1.65326 0 1.08097 0.237053 0.65901 0.65901C0.237053 1.08097 0 1.65326 0 2.25V15.75C0 16.3467 0.237053 16.919 0.65901 17.341C1.08097 17.7629 1.65326 18 2.25 18H15.75C16.3467 18 16.919 17.7629 17.341 17.341C17.7629 16.919 18 16.3467 18 15.75V2.25C18 1.65326 17.7629 1.08097 17.341 0.65901C16.919 0.237053 16.3467 0 15.75 0ZM7.83 13.68C7.83 13.9664 7.71621 14.2411 7.51367 14.4437C7.31114 14.6462 7.03643 14.76 6.75 14.76H3.42C2.826 14.76 2.34 14.274 2.34 13.68V3.42C2.34 3.13357 2.45379 2.85886 2.65632 2.65632C2.85886 2.45379 3.13357 2.34 3.42 2.34H6.75C7.344 2.34 7.83 2.826 7.83 3.42V13.68ZM15.66 9.18C15.66 9.774 15.174 10.26 14.58 10.26H11.25C10.656 10.26 10.17 9.774 10.17 9.18V3.42C10.17 2.826 10.656 2.34 11.25 2.34H14.58C15.174 2.34 15.66 2.826 15.66 3.42V9.18Z" fill="#01052A"/>
</svg>
