<svg width="18" height="16" viewBox="0 0 18 16" fill="none" xmlns="http://www.w3.org/2000/svg">
<path fill-rule="evenodd" clip-rule="evenodd" d="M5.7168 1.632C6.80867 1.51722 7.90403 1.45802 9 1.45455C10.128 1.45455 11.2416 1.52582 12.2832 1.632C13.536 1.76 14.3472 1.84727 14.9664 2.02473C15.5304 2.18618 15.846 2.4 16.1172 2.736C16.146 2.77236 16.1892 2.82764 16.2156 2.86691C16.4556 3.20145 16.6116 3.62036 16.7016 4.41164C16.7976 5.25964 16.8 6.36509 16.8 8.03636C16.8 9.68727 16.7976 10.7782 16.7016 11.6145C16.6128 12.3942 16.4568 12.8087 16.2156 13.1476C16.1834 13.1923 16.1502 13.236 16.116 13.2785C15.84 13.6189 15.528 13.8298 14.9784 13.9869C14.37 14.1615 13.5768 14.2458 12.3456 14.3709C11.3028 14.4756 10.1712 14.5455 9 14.5455C7.8288 14.5455 6.696 14.4756 5.6544 14.3709C4.4232 14.2458 3.63 14.1615 3.0216 13.9869C2.4708 13.8298 2.1588 13.6189 1.884 13.2785C1.84985 13.236 1.81664 13.1923 1.7844 13.1476C1.5444 12.8087 1.3884 12.3942 1.2984 11.6145C1.2024 10.7782 1.2 9.68727 1.2 8.03636C1.2 6.36509 1.2024 5.25818 1.2984 4.41164C1.3884 3.62036 1.5444 3.20145 1.7844 2.86691C1.812 2.82764 1.854 2.77236 1.8828 2.736C2.154 2.4 2.4696 2.18618 3.0336 2.02473C3.654 1.84727 4.464 1.76 5.7168 1.632ZM0 8.03636C0 4.77527 0 3.14473 0.876 1.91564C0.9192 1.85455 0.978 1.77745 1.0248 1.71927C1.9608 0.557091 3.18 0.432 5.616 0.183273C6.684 0.0727272 7.8324 0 9 0C10.1676 0 11.316 0.0727272 12.384 0.183273C14.82 0.432 16.0392 0.557091 16.9752 1.71927C17.022 1.77745 17.0796 1.85455 17.124 1.91564C18 3.14473 18 4.77527 18 8.03636C18 11.2582 18 12.8698 17.1228 14.0989C17.0743 14.1661 17.0243 14.2316 16.9728 14.2953C16.0356 15.4575 14.8392 15.5782 12.4452 15.8196C11.376 15.9287 10.2096 16 9 16C7.7904 16 6.624 15.9273 5.556 15.8196C3.1608 15.5782 1.9644 15.456 1.0272 14.2953C0.975711 14.2315 0.925692 14.166 0.8772 14.0989C0 12.8698 0 11.2582 0 8.03636ZM6.3 4.92073C6.29983 4.86024 6.3121 4.80066 6.33572 4.74737C6.35933 4.69409 6.39354 4.64878 6.43525 4.61557C6.47695 4.58235 6.52483 4.56226 6.57455 4.55713C6.62427 4.552 6.67426 4.56199 6.72 4.58618L12.5136 7.66691C12.7536 7.79491 12.7536 8.20509 12.5136 8.33309L6.72 11.4124C6.67436 11.4365 6.62447 11.4465 6.57485 11.4414C6.52523 11.4364 6.47742 11.4164 6.43575 11.3834C6.39408 11.3503 6.35985 11.3052 6.33615 11.2521C6.31245 11.199 6.30003 11.1396 6.3 11.0793V4.92073Z" fill="#01052A"/>
</svg>
