<svg width="18" height="18" viewBox="0 0 18 18" fill="none" xmlns="http://www.w3.org/2000/svg">
<path d="M9.45 18C9.075 18 8.7564 17.8786 8.4942 17.6357C8.232 17.3929 8.1006 17.0929 8.1 16.7357C8.1 16.5643 8.1339 16.4 8.2017 16.2429C8.2695 16.0857 8.3706 15.95 8.505 15.8357L9.45 15L10.395 15.8357C10.53 15.95 10.6314 16.0857 10.6992 16.2429C10.767 16.4 10.8006 16.5643 10.8 16.7357C10.8 17.0929 10.6689 17.3929 10.4067 17.6357C10.1445 17.8786 9.8256 18 9.45 18ZM6.345 16.7143L5.4 15.8143L8.055 13.2857L9 14.1857L6.345 16.7143ZM12.15 15.4286L10.8 14.1429L12.15 12.8571L13.5 14.1429L12.15 15.4286ZM4.05 15.4286L2.7 14.1429L4.05 12.8571L5.4 14.1429L4.05 15.4286ZM4.95 12C3.585 12 2.4189 11.5394 1.4517 10.6183C0.4845 9.69714 0.0006 8.58629 0 7.28571C0 6.1 0.4125 5.06429 1.2375 4.17857C2.0625 3.29286 3.0825 2.77143 4.2975 2.61429C4.7775 1.8 5.4339 1.16057 6.2667 0.696001C7.0995 0.23143 8.0106 -0.000570376 9 1.053e-06C10.35 1.053e-06 11.5239 0.410858 12.5217 1.23257C13.5195 2.05429 14.1231 3.07914 14.3325 4.30714C15.3675 4.39286 16.2375 4.8 16.9425 5.52857C17.6475 6.25714 18 7.12857 18 8.14286C18 9.21429 17.6064 10.1251 16.8192 10.8754C16.032 11.6257 15.0756 12.0006 13.95 12H4.95Z" fill="#01052A"/>
</svg>
