<svg width="18" height="18" viewBox="0 0 18 18" fill="none" xmlns="http://www.w3.org/2000/svg">
<path d="M9 0C4.02975 0 0 4.02975 0 9C0 13.9702 4.02975 18 9 18C13.9702 18 18 13.9702 18 9C18 4.02975 13.9702 0 9 0ZM13.9387 10.9912C13.4038 10.9912 12.8908 10.7788 12.5124 10.4006C12.1341 10.0224 11.9214 9.50944 11.9213 8.9745C11.9216 8.43948 12.1343 7.92647 12.5126 7.54809C12.8908 7.1697 13.4037 6.95685 13.9387 6.95625C15.0525 6.95625 15.9562 7.8615 15.9562 8.9745C15.9562 10.0875 15.051 10.9912 13.9387 10.9912ZM5.6475 10.983C5.61004 10.9824 5.57307 10.9744 5.53871 10.9594C5.50435 10.9445 5.47327 10.923 5.44725 10.896L3.915 9.366L2.376 10.9012C2.35026 10.9267 2.31976 10.9468 2.28624 10.9604C2.25271 10.9741 2.21683 10.981 2.18064 10.9807C2.14445 10.9805 2.10866 10.9731 2.07533 10.959C2.04199 10.9449 2.01176 10.9244 1.98637 10.8986C1.96098 10.8728 1.94092 10.8423 1.92735 10.8087C1.91377 10.7752 1.90694 10.7393 1.90726 10.7031C1.90757 10.6669 1.91502 10.6311 1.92917 10.5978C1.94333 10.5645 1.96391 10.5343 1.98975 10.509L3.51975 8.9715L1.99125 7.43625C1.96421 7.41137 1.94269 7.38109 1.9281 7.34737C1.9135 7.31365 1.90614 7.27724 1.9065 7.2405C1.90635 7.18604 1.92236 7.13277 1.9525 7.08741C1.98265 7.04206 2.02556 7.00666 2.07583 6.98571C2.12609 6.96475 2.18144 6.95918 2.23487 6.96969C2.2883 6.98019 2.33742 7.00632 2.376 7.04475L3.91725 8.58075L5.45325 7.047C5.47864 7.02109 5.509 7.00056 5.5425 6.98665C5.57601 6.97273 5.61197 6.96571 5.64825 6.966C5.8065 6.966 5.9295 7.08975 5.9295 7.2405C5.93088 7.27643 5.92464 7.31224 5.91119 7.34559C5.89775 7.37894 5.87741 7.40907 5.8515 7.434L4.3095 8.97525L5.85075 10.5135C5.88882 10.5522 5.91462 10.6013 5.92493 10.6546C5.93523 10.7079 5.92958 10.7631 5.90869 10.8132C5.88779 10.8633 5.85258 10.9062 5.80745 10.9364C5.76233 10.9666 5.7093 10.9828 5.655 10.983H5.6475ZM11.6602 7.53975C11.0632 7.6155 10.9987 7.89675 10.9987 8.59275V10.683C10.9987 10.756 10.9698 10.826 10.9181 10.8776C10.8665 10.9293 10.7965 10.9583 10.7235 10.9583C10.6505 10.9583 10.5805 10.9293 10.5289 10.8776C10.4772 10.826 10.4482 10.756 10.4482 10.683V7.2855C10.4482 7.1325 10.5683 7.011 10.7198 7.011C10.8443 7.011 10.9567 7.10475 10.9792 7.22775C11.1817 7.071 11.4293 6.99 11.6768 6.99H11.7555C11.9017 6.99 12.0248 7.11375 12.0248 7.266C12.0248 7.41675 11.9017 7.53 11.7435 7.53525C11.7435 7.53525 11.676 7.53525 11.6205 7.54125L11.6602 7.53975ZM9.342 9.1935H6.46875C6.46875 9.2075 6.47025 9.22175 6.47325 9.23625C6.48725 9.31625 6.508 9.39375 6.5355 9.46875C6.681 9.867 7.10925 10.425 7.90725 10.4362C8.15475 10.434 8.3805 10.3717 8.58225 10.2645C8.73975 10.1745 8.8755 10.0613 8.976 9.9435C9.00975 9.9 9.0435 9.8595 9.066 9.8175C9.201 9.64575 9.36975 9.678 9.471 9.75525C9.594 9.8565 9.606 10.0485 9.50475 10.1827L9.49275 10.1948C9.33525 10.3973 9.1665 10.566 8.976 10.6898C8.79096 10.8128 8.58473 10.9005 8.36775 10.9485C8.12025 11.016 7.884 11.0265 7.6365 10.9935C7.23271 10.9439 6.85334 10.7734 6.54818 10.5044C6.24301 10.2354 6.02631 9.88039 5.9265 9.486C5.88117 9.32877 5.85844 9.16589 5.859 9.00225C5.859 8.361 6.17475 7.731 6.70275 7.3485C7.3665 6.88725 8.2665 6.8535 8.95275 7.29225C9.42525 7.596 9.729 8.058 9.8415 8.6205C9.89775 8.93475 9.684 9.216 9.291 9.228L9.342 9.1935ZM13.9387 7.52625C13.5548 7.52665 13.1866 7.67936 12.9151 7.95087C12.6436 8.22239 12.4909 8.59052 12.4905 8.9745C12.4905 9.7725 13.14 10.4228 13.9387 10.4228C14.7375 10.4228 15.387 9.7725 15.387 8.9745C15.3866 8.59038 15.2339 8.22209 14.9625 7.95034C14.691 7.67859 14.3229 7.52554 13.9387 7.52475V7.52625ZM13.9387 9.4725C13.8063 9.4725 13.6792 9.41987 13.5856 9.3262C13.4919 9.23253 13.4393 9.10548 13.4393 8.973C13.4393 8.84052 13.4919 8.71347 13.5856 8.6198C13.6792 8.52613 13.8063 8.4735 13.9387 8.4735C14.0712 8.4735 14.1983 8.52613 14.2919 8.6198C14.3856 8.71347 14.4382 8.84052 14.4382 8.973C14.4382 9.10548 14.3856 9.23253 14.2919 9.3262C14.1983 9.41987 14.0712 9.4725 13.9387 9.4725ZM7.90875 7.52025C7.22625 7.52025 6.65475 7.9875 6.49425 8.61975V8.64225H9.32625C9.25009 8.32331 9.06874 8.03932 8.81145 7.83604C8.55415 7.63276 8.2359 7.52205 7.908 7.52175L7.90875 7.52025Z" fill="black"/>
</svg>
