<svg width="18" height="15" viewBox="0 0 18 15" fill="none" xmlns="http://www.w3.org/2000/svg">
<g clip-path="url(#clip0_5051_91)">
<path d="M17.6025 2.75392C17.4992 2.33187 17.2978 1.94709 17.0183 1.63791C16.7388 1.32873 16.391 1.10594 16.0095 0.991713C14.6126 0.570312 8.99087 0.570312 8.99087 0.570312C8.99087 0.570312 3.36883 0.583068 1.972 1.00447C1.59045 1.1187 1.24261 1.34151 0.963115 1.6507C0.683623 1.95989 0.482232 2.34469 0.378998 2.76676C-0.0435099 5.51216 -0.207408 9.69551 0.390599 12.3311C0.493844 12.7531 0.69524 13.1379 0.974731 13.4471C1.25422 13.7563 1.60206 13.9791 1.9836 14.0933C3.38043 14.5147 9.00233 14.5147 9.00233 14.5147C9.00233 14.5147 14.6242 14.5147 16.0209 14.0933C16.4025 13.9791 16.7503 13.7563 17.0298 13.4471C17.3093 13.1379 17.5107 12.7532 17.614 12.3311C18.0596 9.5818 18.197 5.40101 17.6025 2.75392Z" fill="#FF0000"/>
<path d="M7.20117 10.5303L11.8649 7.54227L7.20117 4.5542V10.5303Z" fill="white"/>
</g>
<defs>
<clipPath id="clip0_5051_91">
<rect width="18" height="14" fill="white" transform="translate(0 0.570312)"/>
</clipPath>
</defs>
</svg>
