<svg width="18" height="18" viewBox="0 0 18 18" fill="none" xmlns="http://www.w3.org/2000/svg">
<path d="M11.25 9.00443C11.2496 9.65287 11.1326 10.2961 10.9044 10.9044C10.2979 11.133 9.65394 11.2502 9.0045 11.25H8.9955C8.34637 11.2501 7.70272 11.1329 7.0965 10.9044C6.86772 10.2962 6.75011 9.65298 6.7491 9.00443V8.99557C6.7491 8.32651 6.8724 7.68669 7.0947 7.09472C7.70149 6.86598 8.34576 6.74884 8.9955 6.74911H9.0027C9.6714 6.74911 10.3122 6.87229 10.9035 7.09472C11.1321 7.70264 11.2491 8.346 11.2491 8.99557L11.25 9.00443ZM17.8749 7.4997H12.6216L16.3359 3.78486C15.754 2.96636 15.037 2.24957 14.2146 1.66424L10.4994 5.37909V0.124951C10.0058 0.0424563 9.50606 0.000661006 9.0054 0H8.9955C8.4855 0.00118157 7.9872 0.0428319 7.5006 0.124951V5.37909L3.7845 1.66424C3.3747 1.95549 2.9919 2.27924 2.6361 2.63549L2.6343 2.63726C2.2791 2.99232 1.9557 3.37515 1.6641 3.78574L5.3793 7.4997H0.126C0.126 7.4997 0 8.4869 0 8.99734V9.00354C0.0006 9.51398 0.0426001 10.0129 0.126 10.5003H5.3793L1.6632 14.2143C2.24662 15.0321 2.96375 15.749 3.7854 16.3358L7.5006 12.6218V17.8759C7.99393 17.9581 8.49336 17.9996 8.9937 18H9.0063C9.5067 18 10.0047 17.9586 10.5003 17.8759V12.6209L14.2146 16.3366C14.6244 16.0442 15.0075 15.7205 15.3639 15.3654H15.3648C15.72 15.0086 16.0437 14.6254 16.3359 14.216L12.6207 10.5003H17.8758C17.958 10.0135 17.9994 9.51575 18 9.00709V8.9938C18 8.49222 17.9586 7.99449 17.8758 7.50059" fill="#01052A"/>
</svg>
