<svg width="18" height="14" viewBox="0 0 18 14" fill="none" xmlns="http://www.w3.org/2000/svg">
<path d="M9.6855 0.178223V10.2177L18 0.178973L9.6855 0.178223ZM0 0.179723C0 2.47472 1.86225 4.33772 4.15725 4.33772C6.45225 4.33772 8.31375 2.47472 8.3145 0.179723H0ZM8.3145 3.78497L0 13.8222H8.3145V3.78497ZM13.842 9.66497C13.296 9.66478 12.7554 9.77218 12.251 9.98104C11.7465 10.1899 11.2882 10.4961 10.9022 10.8822C10.5162 11.2683 10.21 11.7267 10.0013 12.2311C9.79251 12.7356 9.6852 13.2763 9.6855 13.8222H18C18 11.5272 16.14 9.66497 13.8428 9.66497H13.842Z" fill="#01052A"/>
</svg>
