<svg width="37" height="36" viewBox="0 0 37 36" fill="none" xmlns="http://www.w3.org/2000/svg">
<path d="M18.7678 27C21.2428 27 23.2678 29.025 23.2678 31.5C23.2678 33.975 21.2428 36 18.7678 36C16.2928 36 14.2678 33.975 14.2678 31.5C14.2678 29.025 16.2928 27 18.7678 27ZM25.5178 13.5C27.9928 13.5 30.0178 15.525 30.0178 18C30.0178 20.475 27.9928 22.5 25.5178 22.5C23.0428 22.5 21.0178 20.475 21.0178 18C21.0178 15.525 23.0428 13.5 25.5178 13.5ZM5.26782 27C7.74282 27 9.76782 29.025 9.76782 31.5C9.76782 33.975 7.74282 36 5.26782 36C2.79282 36 0.767822 33.975 0.767822 31.5C0.767822 29.025 2.79282 27 5.26782 27ZM12.0178 13.5C14.4928 13.5 16.5178 15.525 16.5178 18C16.5178 20.475 14.4928 22.5 12.0178 22.5C9.54282 22.5 7.51782 20.475 7.51782 18C7.51782 15.525 9.54282 13.5 12.0178 13.5ZM18.7678 0C21.2428 0 23.2678 2.025 23.2678 4.5C23.2678 6.975 21.2428 9 18.7678 9C16.2928 9 14.2678 6.975 14.2678 4.5C14.2678 2.025 16.2928 0 18.7678 0ZM32.2678 27C34.7428 27 36.7678 29.025 36.7678 31.5C36.7678 33.975 34.7428 36 32.2678 36C29.7928 36 27.7678 33.975 27.7678 31.5C27.7678 29.025 29.7928 27 32.2678 27Z" fill="#E53D8F"/>
</svg>
