<svg width="202" height="60" viewBox="0 0 202 60" fill="none" xmlns="http://www.w3.org/2000/svg">
<path d="M37.7991 33.7119C37.7991 34.8369 37.6012 36.0557 37.2053 37.3682C36.8095 38.6598 36.1637 39.8682 35.2678 40.9932C34.3928 42.0973 33.2366 43.0244 31.7991 43.7744C30.3824 44.5244 28.6532 44.8994 26.6116 44.8994H11.9553C10.8303 44.8994 9.61157 44.7015 8.29907 44.3057C7.00741 43.9098 5.79907 43.2744 4.67407 42.3994C3.56991 41.5036 2.64282 40.3473 1.89282 38.9307C1.14282 37.4932 0.767822 35.7536 0.767822 33.7119C0.767822 32.5869 0.965739 31.3682 1.36157 30.0557C1.75741 28.7432 2.39282 27.5348 3.26782 26.4307C4.16366 25.3057 5.31991 24.3682 6.73657 23.6182C8.17407 22.8682 9.91366 22.4932 11.9553 22.4932H26.6116V30.2432H11.9553C10.8512 30.2432 9.99699 30.5869 9.39282 31.2744C8.78866 31.9411 8.48657 32.7744 8.48657 33.7744C8.48657 34.8369 8.83032 35.6702 9.51782 36.2744C10.2262 36.8577 11.0595 37.1494 12.0178 37.1494H26.6116C27.7157 37.1494 28.5699 36.8161 29.1741 36.1494C29.7782 35.4827 30.0803 34.6494 30.0803 33.6494V22.3057C30.0803 21.2432 29.747 20.3994 29.0803 19.7744C28.4345 19.1494 27.6116 18.8369 26.6116 18.8369H8.76782V11.1182H26.6116C27.7366 11.1182 28.9449 11.3161 30.2366 11.7119C31.5491 12.1077 32.7574 12.7536 33.8616 13.6494C34.9866 14.5244 35.9241 15.6807 36.6741 17.1182C37.4241 18.5348 37.7991 20.264 37.7991 22.3057V33.7119Z" fill="white"/>
<path d="M81.4866 48.1494C81.4866 49.5452 81.3095 50.7952 80.9553 51.8994C80.6012 53.0244 80.1324 54.0036 79.5491 54.8369C78.9657 55.6911 78.2887 56.4098 77.5178 56.9932C76.747 57.5973 75.9345 58.0869 75.0803 58.4619C74.247 58.8369 73.3928 59.1077 72.5178 59.2744C71.6637 59.4619 70.8512 59.5557 70.0803 59.5557H55.4241V51.4307H70.0803C71.1845 51.4307 72.0074 51.1494 72.5491 50.5869C73.0907 50.0244 73.3616 49.2119 73.3616 48.1494V22.4932C73.3616 21.4307 73.0907 20.6286 72.5491 20.0869C72.0074 19.5244 71.1845 19.2432 70.0803 19.2432H55.4241C54.4241 19.2432 53.6324 19.5557 53.0491 20.1807C52.4657 20.7848 52.1741 21.5557 52.1741 22.4932V33.4932C52.1741 34.5557 52.4553 35.3682 53.0178 35.9307C53.5803 36.4932 54.4032 36.7744 55.4866 36.7744H70.0803V44.8994H55.4241C54.6532 44.8994 53.8407 44.8161 52.9866 44.6494C52.1324 44.4619 51.2782 44.1807 50.4241 43.8057C49.5907 43.4307 48.7887 42.9515 48.0178 42.3682C47.247 41.764 46.5699 41.0452 45.9866 40.2119C45.4032 39.3577 44.9345 38.3786 44.5803 37.2744C44.2262 36.1494 44.0491 34.889 44.0491 33.4932V22.4932C44.0491 21.7223 44.1324 20.9098 44.2991 20.0557C44.4866 19.2015 44.7678 18.3577 45.1428 17.5244C45.5178 16.6702 45.997 15.8577 46.5803 15.0869C47.1845 14.3161 47.9032 13.639 48.7366 13.0557C49.5907 12.4723 50.5699 12.0036 51.6741 11.6494C52.7782 11.2952 54.0282 11.1182 55.4241 11.1182H70.0803C70.8512 11.1182 71.6637 11.2119 72.5178 11.3994C73.3928 11.5661 74.247 11.8369 75.0803 12.2119C75.9345 12.5869 76.747 13.0765 77.5178 13.6807C78.2887 14.264 78.9657 14.9827 79.5491 15.8369C80.1324 16.6702 80.6012 17.639 80.9553 18.7432C81.3095 19.8473 81.4866 21.0973 81.4866 22.4932V48.1494Z" fill="white"/>
<path d="M126.362 44.8994H118.237V26.1494C118.237 25.0869 118.049 24.139 117.674 23.3057C117.32 22.4515 116.83 21.7223 116.205 21.1182C115.58 20.514 114.841 20.0557 113.987 19.7432C113.153 19.4098 112.247 19.2432 111.268 19.2432H97.0491V44.8994H88.9241V15.1494C88.9241 14.5869 89.0282 14.0661 89.2366 13.5869C89.4449 13.0869 89.7366 12.6598 90.1116 12.3057C90.4866 11.9307 90.9241 11.639 91.4241 11.4307C91.9241 11.2223 92.4553 11.1182 93.0178 11.1182H111.33C112.351 11.1182 113.424 11.2327 114.549 11.4619C115.695 11.6911 116.82 12.0661 117.924 12.5869C119.049 13.0869 120.112 13.7327 121.112 14.5244C122.132 15.2952 123.028 16.2432 123.799 17.3682C124.591 18.4723 125.216 19.7536 125.674 21.2119C126.132 22.6702 126.362 24.3161 126.362 26.1494V44.8994Z" fill="white"/>
<path d="M163.205 19.2432H149.018V44.8994H140.799V19.2432H130.237V11.1182H140.799V0.0869141H149.018V11.1182H163.205V19.2432Z" fill="white"/>
<path d="M158.033 42.8525C158.033 43.1338 157.976 43.3994 157.862 43.6494C157.757 43.889 157.612 44.1025 157.424 44.29C157.247 44.4671 157.033 44.6077 156.783 44.7119C156.544 44.8161 156.289 44.8682 156.018 44.8682C155.737 44.8682 155.471 44.8161 155.221 44.7119C154.981 44.6077 154.768 44.4671 154.58 44.29C154.403 44.1025 154.263 43.889 154.158 43.6494C154.054 43.3994 154.002 43.1338 154.002 42.8525C154.002 42.5817 154.054 42.3265 154.158 42.0869C154.263 41.8369 154.403 41.6234 154.58 41.4463C154.768 41.2588 154.981 41.113 155.221 41.0088C155.471 40.8942 155.737 40.8369 156.018 40.8369C156.289 40.8369 156.544 40.8942 156.783 41.0088C157.033 41.113 157.247 41.2588 157.424 41.4463C157.612 41.6234 157.757 41.8369 157.862 42.0869C157.976 42.3265 158.033 42.5817 158.033 42.8525Z" fill="white" fill-opacity="0.25"/>
<path d="M179.58 46.5244C179.58 47.2223 179.492 47.8473 179.315 48.3994C179.138 48.9619 178.903 49.4515 178.612 49.8682C178.32 50.2952 177.981 50.6546 177.596 50.9463C177.211 51.2484 176.804 51.4932 176.377 51.6807C175.961 51.8682 175.533 52.0036 175.096 52.0869C174.669 52.1807 174.263 52.2275 173.877 52.2275H166.549V48.165H173.877C174.429 48.165 174.841 48.0244 175.112 47.7432C175.382 47.4619 175.518 47.0557 175.518 46.5244V33.6963C175.518 33.165 175.382 32.764 175.112 32.4932C174.841 32.2119 174.429 32.0713 173.877 32.0713H166.549C166.049 32.0713 165.653 32.2275 165.362 32.54C165.07 32.8421 164.924 33.2275 164.924 33.6963V39.1963C164.924 39.7275 165.065 40.1338 165.346 40.415C165.627 40.6963 166.039 40.8369 166.58 40.8369H173.877V44.8994H166.549C166.164 44.8994 165.757 44.8577 165.33 44.7744C164.903 44.6807 164.476 44.54 164.049 44.3525C163.632 44.165 163.231 43.9255 162.846 43.6338C162.461 43.3317 162.122 42.9723 161.83 42.5557C161.539 42.1286 161.304 41.639 161.127 41.0869C160.95 40.5244 160.862 39.8942 160.862 39.1963V33.6963C160.862 33.3109 160.903 32.9046 160.987 32.4775C161.08 32.0505 161.221 31.6286 161.408 31.2119C161.596 30.7848 161.836 30.3786 162.127 29.9932C162.429 29.6077 162.789 29.2692 163.205 28.9775C163.632 28.6859 164.122 28.4515 164.674 28.2744C165.226 28.0973 165.851 28.0088 166.549 28.0088H173.877C174.263 28.0088 174.669 28.0557 175.096 28.1494C175.533 28.2327 175.961 28.3682 176.377 28.5557C176.804 28.7432 177.211 28.988 177.596 29.29C177.981 29.5817 178.32 29.9411 178.612 30.3682C178.903 30.7848 179.138 31.2692 179.315 31.8213C179.492 32.3734 179.58 32.9984 179.58 33.6963V46.5244Z" fill="white" fill-opacity="0.25"/>
<path d="M201.674 46.5244C201.674 47.2223 201.586 47.8473 201.408 48.3994C201.231 48.9619 200.997 49.4515 200.705 49.8682C200.414 50.2952 200.075 50.6546 199.69 50.9463C199.304 51.2484 198.898 51.4932 198.471 51.6807C198.054 51.8682 197.627 52.0036 197.19 52.0869C196.763 52.1807 196.356 52.2275 195.971 52.2275H188.643V48.165H195.971C196.523 48.165 196.934 48.0244 197.205 47.7432C197.476 47.4619 197.612 47.0557 197.612 46.5244V33.6963C197.612 33.165 197.476 32.764 197.205 32.4932C196.934 32.2119 196.523 32.0713 195.971 32.0713H188.643C188.143 32.0713 187.747 32.2275 187.455 32.54C187.164 32.8421 187.018 33.2275 187.018 33.6963V39.1963C187.018 39.7275 187.158 40.1338 187.44 40.415C187.721 40.6963 188.132 40.8369 188.674 40.8369H195.971V44.8994H188.643C188.257 44.8994 187.851 44.8577 187.424 44.7744C186.997 44.6807 186.57 44.54 186.143 44.3525C185.726 44.165 185.325 43.9255 184.94 43.6338C184.554 43.3317 184.216 42.9723 183.924 42.5557C183.632 42.1286 183.398 41.639 183.221 41.0869C183.044 40.5244 182.955 39.8942 182.955 39.1963V33.6963C182.955 33.3109 182.997 32.9046 183.08 32.4775C183.174 32.0505 183.315 31.6286 183.502 31.2119C183.69 30.7848 183.929 30.3786 184.221 29.9932C184.523 29.6077 184.882 29.2692 185.299 28.9775C185.726 28.6859 186.216 28.4515 186.768 28.2744C187.32 28.0973 187.945 28.0088 188.643 28.0088H195.971C196.356 28.0088 196.763 28.0557 197.19 28.1494C197.627 28.2327 198.054 28.3682 198.471 28.5557C198.898 28.7432 199.304 28.988 199.69 29.29C200.075 29.5817 200.414 29.9411 200.705 30.3682C200.997 30.7848 201.231 31.2692 201.408 31.8213C201.586 32.3734 201.674 32.9984 201.674 33.6963V46.5244Z" fill="white" fill-opacity="0.25"/>
</svg>
