<svg width="18" height="18" viewBox="0 0 18 18" fill="none" xmlns="http://www.w3.org/2000/svg">
<path d="M13.7151 6.79991L16.5444 9.62904C17.0035 10.082 17.3685 10.6213 17.6183 11.2159C17.8681 11.8105 17.9978 12.4486 18 13.0935C18.0021 13.7385 17.8767 14.3775 17.6309 14.9737C17.3851 15.57 17.0237 16.1117 16.5677 16.5677C16.1116 17.0238 15.5698 17.3851 14.9736 17.6309C14.3773 17.8767 13.7383 18.0021 13.0933 18C12.4483 17.9978 11.8102 17.8681 11.2156 17.6183C10.621 17.3685 10.0816 17.0036 9.62863 16.5445L8.68613 15.602C8.55869 15.4791 8.45702 15.332 8.38704 15.1693C8.31707 15.0066 8.28019 14.8316 8.27857 14.6545C8.27695 14.4775 8.31061 14.3018 8.3776 14.1379C8.44458 13.974 8.54354 13.825 8.66871 13.6997C8.79388 13.5745 8.94274 13.4754 9.10662 13.4082C9.2705 13.3411 9.4461 13.3073 9.62319 13.3087C9.80028 13.3102 9.97531 13.3469 10.1381 13.4167C10.3008 13.4865 10.448 13.588 10.5711 13.7154L11.5154 14.6587C11.9329 15.0725 12.4974 15.304 13.0853 15.3026C13.6731 15.3013 14.2365 15.0671 14.6521 14.6514C15.0677 14.2357 15.3017 13.6723 15.3029 13.0844C15.3042 12.4966 15.0724 11.9322 14.6585 11.5148L11.8293 8.6857C11.5235 8.37978 11.135 8.16973 10.7116 8.08129C10.2882 7.99285 9.84816 8.02987 9.44546 8.1878C9.30201 8.24471 9.16746 8.30279 9.04179 8.36207L8.62923 8.555C8.07795 8.80395 7.65383 8.91065 7.11412 8.37185C6.33878 7.59655 6.53973 6.88082 7.48489 6.22911C8.42642 5.58127 9.56512 5.28365 10.7032 5.38792C11.8414 5.49219 12.907 5.99178 13.7151 6.79991ZM8.37137 1.4564L9.31387 2.39885C9.55694 2.65027 9.69153 2.98709 9.68866 3.33677C9.68579 3.68645 9.54568 4.02102 9.29851 4.26841C9.05134 4.5158 8.71689 4.65621 8.3672 4.65942C8.0175 4.66262 7.68053 4.52835 7.42888 4.28553L6.48549 3.34308C6.2805 3.13073 6.03527 2.96132 5.7641 2.84475C5.49293 2.72819 5.20127 2.66679 4.90612 2.66414C4.61097 2.66149 4.31825 2.71765 4.04503 2.82933C3.77182 2.94102 3.52358 3.10599 3.31481 3.31464C3.10604 3.52328 2.94092 3.77141 2.82908 4.04454C2.71723 4.31768 2.6609 4.61035 2.66339 4.90549C2.66587 5.20063 2.7271 5.49231 2.84352 5.76353C2.95995 6.03475 3.12922 6.28007 3.34147 6.48517L6.17073 9.3143C6.47654 9.62022 6.86496 9.83027 7.28838 9.91871C7.71181 10.0072 8.15184 9.97013 8.55454 9.8122C8.69799 9.75529 8.83254 9.6972 8.95821 9.63793L9.37077 9.445C9.92205 9.19605 10.3471 9.08935 10.8859 9.62815C11.6612 10.4034 11.4603 11.1192 10.5151 11.7709C9.57358 12.4187 8.43488 12.7164 7.29675 12.6121C6.15863 12.5078 5.09297 12.0082 4.28485 11.2001L1.45559 8.37096C0.996483 7.91799 0.631521 7.37869 0.381714 6.7841C0.131907 6.18951 0.00218814 5.55138 2.74451e-05 4.90645C-0.00213325 4.26152 0.123307 3.62254 0.369124 3.02629C0.614942 2.43004 0.976282 1.8883 1.43234 1.43227C1.8884 0.976234 2.43016 0.614912 3.02644 0.369106C3.62272 0.1233 4.26173 -0.00213315 4.90669 2.74438e-05C5.55165 0.00218803 6.18981 0.1319 6.78443 0.381695C7.37905 0.63149 7.91838 0.997323 8.37137 1.4564Z" fill="#01052A"/>
</svg>
