<svg width="18" height="15" viewBox="0 0 18 15" fill="none" xmlns="http://www.w3.org/2000/svg">
<path d="M1.8 14.4C1.305 14.4 0.8814 14.2239 0.5292 13.8717C0.177 13.5195 0.0006 13.0956 0 12.6V1.8C0 1.305 0.1764 0.8814 0.5292 0.5292C0.882 0.177 1.3056 0.0006 1.8 0H16.2C16.695 0 17.1189 0.1764 17.4717 0.5292C17.8245 0.882 18.0006 1.3056 18 1.8V12.6C18 13.095 17.8239 13.5189 17.4717 13.8717C17.1195 14.2245 16.6956 14.4006 16.2 14.4H1.8ZM1.8 12.6H16.2V3.6H1.8V12.6ZM4.95 11.7L3.69 10.44L6.0075 8.1L3.6675 5.76L4.95 4.5L8.55 8.1L4.95 11.7ZM9 11.7V9.9H14.4V11.7H9Z" fill="#01052A"/>
</svg>
